%TF.GenerationSoftware,KiCad,Pcbnew,(6.0.5)*%
%TF.CreationDate,2022-06-30T03:28:59+08:00*%
%TF.ProjectId,lkt100a1_bclamp,6c6b7431-3030-4613-915f-62636c616d70,rev?*%
%TF.SameCoordinates,Original*%
%TF.FileFunction,Soldermask,Top*%
%TF.FilePolarity,Negative*%
%FSLAX46Y46*%
G04 Gerber Fmt 4.6, Leading zero omitted, Abs format (unit mm)*
G04 Created by KiCad (PCBNEW (6.0.5)) date 2022-06-30 03:28:59*
%MOMM*%
%LPD*%
G01*
G04 APERTURE LIST*
G04 Aperture macros list*
%AMRoundRect*
0 Rectangle with rounded corners*
0 $1 Rounding radius*
0 $2 $3 $4 $5 $6 $7 $8 $9 X,Y pos of 4 corners*
0 Add a 4 corners polygon primitive as box body*
4,1,4,$2,$3,$4,$5,$6,$7,$8,$9,$2,$3,0*
0 Add four circle primitives for the rounded corners*
1,1,$1+$1,$2,$3*
1,1,$1+$1,$4,$5*
1,1,$1+$1,$6,$7*
1,1,$1+$1,$8,$9*
0 Add four rect primitives between the rounded corners*
20,1,$1+$1,$2,$3,$4,$5,0*
20,1,$1+$1,$4,$5,$6,$7,0*
20,1,$1+$1,$6,$7,$8,$9,0*
20,1,$1+$1,$8,$9,$2,$3,0*%
G04 Aperture macros list end*
%ADD10C,1.500000*%
%ADD11RoundRect,0.250000X-0.450000X0.262500X-0.450000X-0.262500X0.450000X-0.262500X0.450000X0.262500X0*%
%ADD12RoundRect,0.250000X0.262500X0.450000X-0.262500X0.450000X-0.262500X-0.450000X0.262500X-0.450000X0*%
%ADD13RoundRect,0.250000X0.450000X-0.262500X0.450000X0.262500X-0.450000X0.262500X-0.450000X-0.262500X0*%
%ADD14RoundRect,0.250000X-0.262500X-0.450000X0.262500X-0.450000X0.262500X0.450000X-0.262500X0.450000X0*%
%ADD15C,2.200000*%
%ADD16RoundRect,0.225000X0.250000X-0.225000X0.250000X0.225000X-0.250000X0.225000X-0.250000X-0.225000X0*%
%ADD17RoundRect,0.200000X-0.275000X0.200000X-0.275000X-0.200000X0.275000X-0.200000X0.275000X0.200000X0*%
%ADD18RoundRect,0.150000X0.150000X-0.587500X0.150000X0.587500X-0.150000X0.587500X-0.150000X-0.587500X0*%
%ADD19C,0.800000*%
%ADD20C,5.400000*%
%ADD21RoundRect,0.250000X-0.250000X-0.475000X0.250000X-0.475000X0.250000X0.475000X-0.250000X0.475000X0*%
%ADD22C,2.500000*%
%ADD23RoundRect,0.225000X-0.225000X-0.250000X0.225000X-0.250000X0.225000X0.250000X-0.225000X0.250000X0*%
%ADD24R,2.000000X0.610000*%
%ADD25R,3.600000X2.680000*%
%ADD26RoundRect,0.200000X0.200000X0.275000X-0.200000X0.275000X-0.200000X-0.275000X0.200000X-0.275000X0*%
%ADD27RoundRect,0.200100X-0.949900X-0.949900X0.949900X-0.949900X0.949900X0.949900X-0.949900X0.949900X0*%
%ADD28RoundRect,0.200100X0.949900X-0.949900X0.949900X0.949900X-0.949900X0.949900X-0.949900X-0.949900X0*%
%ADD29R,1.600000X1.600000*%
%ADD30C,1.600000*%
%ADD31RoundRect,0.250000X0.600000X-0.600000X0.600000X0.600000X-0.600000X0.600000X-0.600000X-0.600000X0*%
%ADD32C,1.700000*%
%ADD33C,1.440000*%
%ADD34RoundRect,0.250000X0.600000X0.600000X-0.600000X0.600000X-0.600000X-0.600000X0.600000X-0.600000X0*%
G04 APERTURE END LIST*
D10*
%TO.C,TP82*%
X122555000Y-57341000D03*
%TD*%
%TO.C,TP29*%
X142392400Y-87274400D03*
%TD*%
%TO.C,TP51*%
X103415800Y-113284000D03*
%TD*%
D11*
%TO.C,R18*%
X95615000Y-101931109D03*
X95615000Y-103756109D03*
%TD*%
%TO.C,R37*%
X146110200Y-53467909D03*
X146110200Y-55292909D03*
%TD*%
D10*
%TO.C,TP3*%
X91033600Y-84175600D03*
%TD*%
D11*
%TO.C,R97*%
X89773000Y-51131109D03*
X89773000Y-52956109D03*
%TD*%
D12*
%TO.C,R26*%
X72346700Y-77596009D03*
X70521700Y-77596009D03*
%TD*%
D13*
%TO.C,R70*%
X132648200Y-55291009D03*
X132648200Y-53466009D03*
%TD*%
D11*
%TO.C,R55*%
X127974600Y-90221709D03*
X127974600Y-92046709D03*
%TD*%
D10*
%TO.C,TP48*%
X113805000Y-95021400D03*
%TD*%
%TO.C,TP97*%
X65430400Y-45466000D03*
%TD*%
D14*
%TO.C,R8*%
X139812900Y-94004409D03*
X141637900Y-94004409D03*
%TD*%
D10*
%TO.C,TP63*%
X134239000Y-94107000D03*
%TD*%
%TO.C,TP70*%
X131470400Y-50952400D03*
%TD*%
D15*
%TO.C,H7*%
X142833600Y-55269409D03*
%TD*%
D11*
%TO.C,R64*%
X121878600Y-125705509D03*
X121878600Y-127530509D03*
%TD*%
%TO.C,R1*%
X157997400Y-90094709D03*
X157997400Y-91919709D03*
%TD*%
D10*
%TO.C,TP9*%
X151892000Y-93980000D03*
%TD*%
D11*
%TO.C,R33*%
X154136600Y-53467909D03*
X154136600Y-55292909D03*
%TD*%
D10*
%TO.C,TP47*%
X141462000Y-105790009D03*
%TD*%
D11*
%TO.C,R52*%
X133715000Y-86665709D03*
X133715000Y-88490709D03*
%TD*%
D10*
%TO.C,TP24*%
X148488400Y-102666800D03*
%TD*%
D11*
%TO.C,R6*%
X147837400Y-90196309D03*
X147837400Y-92021309D03*
%TD*%
%TO.C,R10*%
X137829800Y-79274309D03*
X137829800Y-81099309D03*
%TD*%
D10*
%TO.C,TP32*%
X142341600Y-85191600D03*
%TD*%
D13*
%TO.C,R83*%
X83829400Y-111528509D03*
X83829400Y-109703509D03*
%TD*%
D10*
%TO.C,TP18*%
X137922000Y-83566000D03*
%TD*%
%TO.C,TP96*%
X67614800Y-45415200D03*
%TD*%
%TO.C,TP58*%
X102463600Y-129692400D03*
%TD*%
%TO.C,TP69*%
X122047000Y-94107000D03*
%TD*%
D11*
%TO.C,R11*%
X133765800Y-79248909D03*
X133765800Y-81073909D03*
%TD*%
D10*
%TO.C,TP35*%
X68326000Y-77520800D03*
%TD*%
%TO.C,TP75*%
X111887000Y-130048000D03*
%TD*%
D11*
%TO.C,R50*%
X135797800Y-129464709D03*
X135797800Y-131289709D03*
%TD*%
%TO.C,R65*%
X131581400Y-128397909D03*
X131581400Y-130222909D03*
%TD*%
D10*
%TO.C,TP40*%
X156210000Y-57404000D03*
%TD*%
D11*
%TO.C,R22*%
X80730600Y-49149909D03*
X80730600Y-50974909D03*
%TD*%
D10*
%TO.C,TP17*%
X137922000Y-86360000D03*
%TD*%
D11*
%TO.C,R7*%
X145856200Y-90247109D03*
X145856200Y-92072109D03*
%TD*%
D10*
%TO.C,TP86*%
X91059000Y-69583000D03*
%TD*%
%TO.C,TP14*%
X62230000Y-51816000D03*
%TD*%
%TO.C,TP41*%
X154178000Y-57404000D03*
%TD*%
D11*
%TO.C,R91*%
X74025000Y-89383509D03*
X74025000Y-91208509D03*
%TD*%
%TO.C,R96*%
X95259400Y-55093509D03*
X95259400Y-56918509D03*
%TD*%
D10*
%TO.C,TP10*%
X149860000Y-94107000D03*
%TD*%
%TO.C,TP85*%
X96631000Y-69569609D03*
%TD*%
%TO.C,TP34*%
X76200000Y-64617600D03*
%TD*%
%TO.C,TP67*%
X126111000Y-94107000D03*
%TD*%
D11*
%TO.C,R86*%
X91093800Y-65661809D03*
X91093800Y-67486809D03*
%TD*%
D13*
%TO.C,R73*%
X126653800Y-55292909D03*
X126653800Y-53467909D03*
%TD*%
D10*
%TO.C,TP88*%
X96914000Y-93472000D03*
%TD*%
D11*
%TO.C,R56*%
X125688600Y-90296009D03*
X125688600Y-92121009D03*
%TD*%
%TO.C,R58*%
X122894600Y-90272509D03*
X122894600Y-92097509D03*
%TD*%
%TO.C,R92*%
X76107800Y-89332709D03*
X76107800Y-91157709D03*
%TD*%
D10*
%TO.C,TP11*%
X147828000Y-94107000D03*
%TD*%
%TO.C,TP36*%
X68580000Y-72566809D03*
%TD*%
D11*
%TO.C,R49*%
X133562600Y-127839109D03*
X133562600Y-129664109D03*
%TD*%
%TO.C,R5*%
X149869400Y-90196309D03*
X149869400Y-92021309D03*
%TD*%
%TO.C,R17*%
X91805000Y-110465509D03*
X91805000Y-112290509D03*
%TD*%
D13*
%TO.C,R110*%
X137550400Y-45336109D03*
X137550400Y-43511109D03*
%TD*%
D11*
%TO.C,R12*%
X131759200Y-79299709D03*
X131759200Y-81124709D03*
%TD*%
D13*
%TO.C,R111*%
X133511800Y-45336109D03*
X133511800Y-43511109D03*
%TD*%
D11*
%TO.C,R54*%
X130133600Y-90247109D03*
X130133600Y-92072109D03*
%TD*%
D10*
%TO.C,TP66*%
X128143000Y-94107000D03*
%TD*%
%TO.C,TP27*%
X120954800Y-89662000D03*
%TD*%
%TO.C,TP59*%
X127660400Y-130556000D03*
%TD*%
D11*
%TO.C,R43*%
X102523800Y-80137909D03*
X102523800Y-81962909D03*
%TD*%
D16*
%TO.C,C2*%
X72043800Y-112064409D03*
X72043800Y-110514409D03*
%TD*%
D11*
%TO.C,R34*%
X152104600Y-53467909D03*
X152104600Y-55292909D03*
%TD*%
D13*
%TO.C,R76*%
X120456200Y-55291009D03*
X120456200Y-53466009D03*
%TD*%
D11*
%TO.C,R2*%
X155965400Y-90094709D03*
X155965400Y-91919709D03*
%TD*%
D14*
%TO.C,R45*%
X136612500Y-102742009D03*
X138437500Y-102742009D03*
%TD*%
D10*
%TO.C,TP42*%
X152146000Y-57404000D03*
%TD*%
D12*
%TO.C,R94*%
X67012700Y-43179009D03*
X65187700Y-43179009D03*
%TD*%
D11*
%TO.C,R47*%
X102625400Y-125807109D03*
X102625400Y-127632109D03*
%TD*%
%TO.C,R66*%
X111921800Y-126164609D03*
X111921800Y-127989609D03*
%TD*%
D10*
%TO.C,TP91*%
X110556000Y-113233200D03*
%TD*%
%TO.C,TP15*%
X66557400Y-51078409D03*
%TD*%
D17*
%TO.C,R109*%
X75980800Y-101625409D03*
X75980800Y-103275409D03*
%TD*%
D18*
%TO.C,Q7*%
X70382600Y-101291909D03*
X72282600Y-101291909D03*
X71332600Y-99416909D03*
%TD*%
D16*
%TO.C,C3*%
X70443600Y-113296009D03*
X70443600Y-111746009D03*
%TD*%
D13*
%TO.C,R104*%
X123377200Y-45361509D03*
X123377200Y-43536509D03*
%TD*%
D12*
%TO.C,R29*%
X64091700Y-48386009D03*
X62266700Y-48386009D03*
%TD*%
D10*
%TO.C,TP60*%
X133451600Y-131724400D03*
%TD*%
%TO.C,TP7*%
X155956000Y-93980000D03*
%TD*%
%TO.C,TP2*%
X95462600Y-106018609D03*
%TD*%
D13*
%TO.C,R78*%
X96885000Y-91360909D03*
X96885000Y-89535909D03*
%TD*%
%TO.C,R113*%
X125409200Y-45386909D03*
X125409200Y-43561909D03*
%TD*%
D12*
%TO.C,R93*%
X71711700Y-45465009D03*
X69886700Y-45465009D03*
%TD*%
D19*
%TO.C,H3*%
X138522109Y-96866109D03*
X141979000Y-98298000D03*
D20*
X139954000Y-98298000D03*
D19*
X141385891Y-96866109D03*
X139954000Y-96273000D03*
X139954000Y-100323000D03*
X138522109Y-99729891D03*
X137929000Y-98298000D03*
X141385891Y-99729891D03*
%TD*%
D11*
%TO.C,R53*%
X132292600Y-90170909D03*
X132292600Y-91995909D03*
%TD*%
D10*
%TO.C,TP76*%
X134747000Y-57341000D03*
%TD*%
D14*
%TO.C,R46*%
X82764500Y-48894009D03*
X84589500Y-48894009D03*
%TD*%
D10*
%TO.C,TP92*%
X97523000Y-113385600D03*
%TD*%
%TO.C,TP37*%
X74859007Y-109092009D03*
%TD*%
D16*
%TO.C,C4*%
X68868800Y-114083409D03*
X68868800Y-112533409D03*
%TD*%
D10*
%TO.C,TP64*%
X132207000Y-94107000D03*
%TD*%
D13*
%TO.C,R74*%
X124621800Y-55292909D03*
X124621800Y-53467909D03*
%TD*%
D10*
%TO.C,TP6*%
X157988000Y-93980000D03*
%TD*%
D11*
%TO.C,R28*%
X74990200Y-105182309D03*
X74990200Y-107007309D03*
%TD*%
D13*
%TO.C,R103*%
X127415800Y-45386909D03*
X127415800Y-43561909D03*
%TD*%
D10*
%TO.C,TP79*%
X128651000Y-57341000D03*
%TD*%
%TO.C,TP22*%
X157022800Y-102514400D03*
%TD*%
D13*
%TO.C,R82*%
X97596200Y-111325309D03*
X97596200Y-109500309D03*
%TD*%
D10*
%TO.C,TP100*%
X89814400Y-55016400D03*
%TD*%
%TO.C,TP26*%
X120904000Y-83566000D03*
%TD*%
%TO.C,TP13*%
X143764000Y-94107000D03*
%TD*%
D11*
%TO.C,R14*%
X157032200Y-98679909D03*
X157032200Y-100504909D03*
%TD*%
D21*
%TO.C,C5*%
X70077800Y-105840809D03*
X71977800Y-105840809D03*
%TD*%
D10*
%TO.C,TP44*%
X148082000Y-57404000D03*
%TD*%
D11*
%TO.C,R61*%
X131479800Y-46965509D03*
X131479800Y-48790509D03*
%TD*%
%TO.C,R44*%
X108010200Y-47727509D03*
X108010200Y-49552509D03*
%TD*%
%TO.C,R9*%
X135797800Y-79250809D03*
X135797800Y-81075809D03*
%TD*%
D10*
%TO.C,TP93*%
X83794600Y-113639600D03*
%TD*%
%TO.C,TP28*%
X120954800Y-87630000D03*
%TD*%
%TO.C,TP65*%
X130175000Y-94107000D03*
%TD*%
D11*
%TO.C,R31*%
X158251400Y-53518709D03*
X158251400Y-55343709D03*
%TD*%
D10*
%TO.C,TP12*%
X145796000Y-94107000D03*
%TD*%
D13*
%TO.C,R79*%
X108213400Y-92986509D03*
X108213400Y-91161509D03*
%TD*%
D11*
%TO.C,R19*%
X91093800Y-80239509D03*
X91093800Y-82064509D03*
%TD*%
D10*
%TO.C,TP57*%
X138414000Y-104977209D03*
%TD*%
%TO.C,TP53*%
X136499600Y-116789200D03*
%TD*%
%TO.C,TP54*%
X103581200Y-95097600D03*
%TD*%
D11*
%TO.C,R87*%
X102371400Y-65710709D03*
X102371400Y-67535709D03*
%TD*%
D12*
%TO.C,R24*%
X85249900Y-79272409D03*
X83424900Y-79272409D03*
%TD*%
D11*
%TO.C,R35*%
X150072600Y-53467909D03*
X150072600Y-55292909D03*
%TD*%
D10*
%TO.C,TP38*%
X62230000Y-45466000D03*
%TD*%
%TO.C,TP39*%
X158242000Y-57404000D03*
%TD*%
D13*
%TO.C,R72*%
X128635000Y-55292909D03*
X128635000Y-53467909D03*
%TD*%
D11*
%TO.C,R51*%
X135188200Y-90196309D03*
X135188200Y-92021309D03*
%TD*%
D10*
%TO.C,TP49*%
X138414000Y-107618809D03*
%TD*%
%TO.C,TP16*%
X70840600Y-58547000D03*
%TD*%
D11*
%TO.C,R3*%
X153933400Y-90094709D03*
X153933400Y-91919709D03*
%TD*%
D10*
%TO.C,TP19*%
X137972800Y-89306400D03*
%TD*%
%TO.C,TP68*%
X124079000Y-94107000D03*
%TD*%
D13*
%TO.C,R102*%
X131479800Y-45361509D03*
X131479800Y-43536509D03*
%TD*%
D10*
%TO.C,TP46*%
X144205200Y-58622209D03*
%TD*%
%TO.C,TP56*%
X107950000Y-51663600D03*
%TD*%
%TO.C,TP99*%
X91948000Y-56845200D03*
%TD*%
%TO.C,TP8*%
X153924000Y-93980000D03*
%TD*%
D11*
%TO.C,R36*%
X148091400Y-53467909D03*
X148091400Y-55292909D03*
%TD*%
D10*
%TO.C,TP74*%
X131419600Y-132283200D03*
%TD*%
D11*
%TO.C,R85*%
X96631000Y-65659909D03*
X96631000Y-67484909D03*
%TD*%
D10*
%TO.C,TP95*%
X76107800Y-93471009D03*
%TD*%
D22*
%TO.C,H2*%
X73507600Y-115874800D03*
%TD*%
D11*
%TO.C,R62*%
X118170200Y-119050709D03*
X118170200Y-120875709D03*
%TD*%
D10*
%TO.C,TP72*%
X109829600Y-123393200D03*
%TD*%
D11*
%TO.C,R16*%
X148447000Y-98832309D03*
X148447000Y-100657309D03*
%TD*%
%TO.C,R42*%
X103641400Y-91110709D03*
X103641400Y-92935709D03*
%TD*%
D10*
%TO.C,TP87*%
X102362000Y-69596000D03*
%TD*%
%TO.C,TP33*%
X81280000Y-79248000D03*
%TD*%
D11*
%TO.C,R41*%
X136559800Y-112903909D03*
X136559800Y-114728909D03*
%TD*%
D10*
%TO.C,TP84*%
X107950000Y-69596000D03*
%TD*%
D11*
%TO.C,R13*%
X155000200Y-98679909D03*
X155000200Y-100504909D03*
%TD*%
D10*
%TO.C,TP98*%
X92913200Y-54965600D03*
%TD*%
D11*
%TO.C,R15*%
X146262600Y-98832309D03*
X146262600Y-100657309D03*
%TD*%
D10*
%TO.C,TP77*%
X132715000Y-57341000D03*
%TD*%
D11*
%TO.C,R95*%
X92871800Y-51080309D03*
X92871800Y-52905309D03*
%TD*%
D10*
%TO.C,TP78*%
X130683000Y-57341000D03*
%TD*%
D11*
%TO.C,R84*%
X107959400Y-65710709D03*
X107959400Y-67535709D03*
%TD*%
D13*
%TO.C,R69*%
X134680200Y-55292909D03*
X134680200Y-53467909D03*
%TD*%
D19*
%TO.C,H6*%
X79086109Y-58766109D03*
X81949891Y-61629891D03*
X80518000Y-58173000D03*
X79086109Y-61629891D03*
X81949891Y-58766109D03*
X78493000Y-60198000D03*
X80518000Y-62223000D03*
D20*
X80518000Y-60198000D03*
D19*
X82543000Y-60198000D03*
%TD*%
D10*
%TO.C,TP83*%
X120523000Y-57341000D03*
%TD*%
D13*
%TO.C,R81*%
X110499400Y-111122109D03*
X110499400Y-109297109D03*
%TD*%
D10*
%TO.C,TP80*%
X126619000Y-57341000D03*
%TD*%
%TO.C,TP25*%
X120954800Y-85598000D03*
%TD*%
%TO.C,TP43*%
X150114000Y-57404000D03*
%TD*%
%TO.C,TP4*%
X105410000Y-51663600D03*
%TD*%
%TO.C,TP94*%
X74015600Y-93522800D03*
%TD*%
D23*
%TO.C,C6*%
X70100400Y-107720409D03*
X71650400Y-107720409D03*
%TD*%
D12*
%TO.C,R38*%
X146159100Y-61136809D03*
X144334100Y-61136809D03*
%TD*%
D10*
%TO.C,TP31*%
X142341600Y-83108800D03*
%TD*%
D11*
%TO.C,R57*%
X123936000Y-86970509D03*
X123936000Y-88795509D03*
%TD*%
D10*
%TO.C,TP62*%
X136271000Y-94107000D03*
%TD*%
D16*
%TO.C,C7*%
X74406000Y-103237609D03*
X74406000Y-101687609D03*
%TD*%
D14*
%TO.C,R21*%
X132700900Y-106704409D03*
X134525900Y-106704409D03*
%TD*%
D10*
%TO.C,TP30*%
X142443200Y-89458800D03*
%TD*%
D12*
%TO.C,R27*%
X72600700Y-72516009D03*
X70775700Y-72516009D03*
%TD*%
D11*
%TO.C,R20*%
X105368600Y-47727509D03*
X105368600Y-49552509D03*
%TD*%
D24*
%TO.C,J3*%
X66448200Y-104198809D03*
X66448200Y-105198809D03*
X66448200Y-106198809D03*
X66448200Y-107198809D03*
X66448200Y-108198809D03*
X66448200Y-109198809D03*
X66448200Y-110198809D03*
X66448200Y-111198809D03*
X66448200Y-112198809D03*
X66448200Y-113198809D03*
X66448200Y-114198809D03*
X66448200Y-115198809D03*
X66448200Y-116198809D03*
X66448200Y-117198809D03*
X66448200Y-118198809D03*
X66448200Y-119198809D03*
X66448200Y-120198809D03*
X66448200Y-121198809D03*
D25*
X63648200Y-101208809D03*
X63648200Y-124188809D03*
%TD*%
D13*
%TO.C,R101*%
X135518400Y-45336109D03*
X135518400Y-43511109D03*
%TD*%
D11*
%TO.C,R4*%
X151901400Y-90096609D03*
X151901400Y-91921609D03*
%TD*%
D13*
%TO.C,R71*%
X130616200Y-55292909D03*
X130616200Y-53467909D03*
%TD*%
D10*
%TO.C,TP21*%
X154990800Y-102565200D03*
%TD*%
%TO.C,TP61*%
X135229600Y-133451600D03*
%TD*%
D11*
%TO.C,R32*%
X156168600Y-53467909D03*
X156168600Y-55292909D03*
%TD*%
D10*
%TO.C,TP89*%
X108217000Y-95021400D03*
%TD*%
%TO.C,TP50*%
X116194800Y-113284000D03*
%TD*%
D13*
%TO.C,R80*%
X83118200Y-89176509D03*
X83118200Y-87351509D03*
%TD*%
D10*
%TO.C,TP71*%
X118059200Y-122936000D03*
%TD*%
%TO.C,TP73*%
X121869200Y-129641600D03*
%TD*%
%TO.C,TP52*%
X89484200Y-113538000D03*
%TD*%
D19*
%TO.C,H1*%
X139954000Y-62223000D03*
D20*
X139954000Y-60198000D03*
D19*
X141979000Y-60198000D03*
X137929000Y-60198000D03*
X141385891Y-58766109D03*
X139954000Y-58173000D03*
X141385891Y-61629891D03*
X138522109Y-58766109D03*
X138522109Y-61629891D03*
%TD*%
%TO.C,H5*%
X80518000Y-100323000D03*
X79086109Y-99729891D03*
X81949891Y-99729891D03*
X78493000Y-98298000D03*
X82543000Y-98298000D03*
X79086109Y-96866109D03*
X80518000Y-96273000D03*
D20*
X80518000Y-98298000D03*
D19*
X81949891Y-96866109D03*
%TD*%
D10*
%TO.C,TP55*%
X102463600Y-84074000D03*
%TD*%
D26*
%TO.C,R99*%
X72106800Y-103097609D03*
X70456800Y-103097609D03*
%TD*%
D11*
%TO.C,R63*%
X109940600Y-119507909D03*
X109940600Y-121332909D03*
%TD*%
D10*
%TO.C,TP90*%
X83058000Y-91236800D03*
%TD*%
D13*
%TO.C,R112*%
X129447800Y-45386909D03*
X129447800Y-43561909D03*
%TD*%
D10*
%TO.C,TP45*%
X146050000Y-57404000D03*
%TD*%
D13*
%TO.C,R75*%
X122539000Y-55292909D03*
X122539000Y-53467909D03*
%TD*%
D10*
%TO.C,TP81*%
X124587000Y-57341000D03*
%TD*%
D22*
%TO.C,H4*%
X80467200Y-75995809D03*
%TD*%
D11*
%TO.C,R25*%
X76209400Y-60630709D03*
X76209400Y-62455709D03*
%TD*%
D10*
%TO.C,TP23*%
X146202400Y-102717600D03*
%TD*%
D11*
%TO.C,R48*%
X127720600Y-126619909D03*
X127720600Y-128444909D03*
%TD*%
D10*
%TO.C,TP5*%
X136601200Y-106629200D03*
%TD*%
%TO.C,TP1*%
X91795600Y-114401600D03*
%TD*%
%TO.C,TP20*%
X137922000Y-91948000D03*
%TD*%
D17*
%TO.C,R100*%
X68792600Y-99885009D03*
X68792600Y-101535009D03*
%TD*%
D27*
%TO.C,J1*%
X77936600Y-129462809D03*
D22*
X75396600Y-132002809D03*
X80476600Y-132002809D03*
X80476600Y-126922809D03*
X75396600Y-126922809D03*
%TD*%
D28*
%TO.C,J7*%
X154503000Y-82015609D03*
D22*
X157043000Y-79475609D03*
X157043000Y-84555609D03*
X151963000Y-79475609D03*
X151963000Y-84555609D03*
%TD*%
D29*
%TO.C,BZ1*%
X99748600Y-59765209D03*
D30*
X95748600Y-59765209D03*
%TD*%
D28*
%TO.C,J6*%
X154452200Y-69518809D03*
D22*
X156992200Y-66978809D03*
X151912200Y-72058809D03*
X156992200Y-72058809D03*
X151912200Y-66978809D03*
%TD*%
D31*
%TO.C,J4*%
X149437600Y-40672309D03*
D32*
X149437600Y-38132309D03*
X146897600Y-40672309D03*
X146897600Y-38132309D03*
X144357600Y-40672309D03*
X144357600Y-38132309D03*
X141817600Y-40672309D03*
X141817600Y-38132309D03*
X139277600Y-40672309D03*
X139277600Y-38132309D03*
X136737600Y-40672309D03*
X136737600Y-38132309D03*
X134197600Y-40672309D03*
X134197600Y-38132309D03*
X131657600Y-40672309D03*
X131657600Y-38132309D03*
X129117600Y-40672309D03*
X129117600Y-38132309D03*
X126577600Y-40672309D03*
X126577600Y-38132309D03*
X124037600Y-40672309D03*
X124037600Y-38132309D03*
X121497600Y-40672309D03*
X121497600Y-38132309D03*
X118957600Y-40672309D03*
X118957600Y-38132309D03*
X116417600Y-40672309D03*
X116417600Y-38132309D03*
X113877600Y-40672309D03*
X113877600Y-38132309D03*
X111337600Y-40672309D03*
X111337600Y-38132309D03*
X108797600Y-40672309D03*
X108797600Y-38132309D03*
X106257600Y-40672309D03*
X106257600Y-38132309D03*
X103717600Y-40672309D03*
X103717600Y-38132309D03*
X101177600Y-40672309D03*
X101177600Y-38132309D03*
X98637600Y-40672309D03*
X98637600Y-38132309D03*
X96097600Y-40672309D03*
X96097600Y-38132309D03*
X93557600Y-40672309D03*
X93557600Y-38132309D03*
X91017600Y-40672309D03*
X91017600Y-38132309D03*
X88477600Y-40672309D03*
X88477600Y-38132309D03*
X85937600Y-40672309D03*
X85937600Y-38132309D03*
X83397600Y-40672309D03*
X83397600Y-38132309D03*
X80857600Y-40672309D03*
X80857600Y-38132309D03*
X78317600Y-40672309D03*
X78317600Y-38132309D03*
X75777600Y-40672309D03*
X75777600Y-38132309D03*
X73237600Y-40672309D03*
X73237600Y-38132309D03*
X70697600Y-40672309D03*
X70697600Y-38132309D03*
%TD*%
D33*
%TO.C,RV1*%
X144726400Y-119506009D03*
X147266400Y-119506009D03*
X149806400Y-119506009D03*
%TD*%
D27*
%TO.C,J2*%
X142503400Y-129259609D03*
D22*
X139963400Y-126719609D03*
X139963400Y-131799609D03*
X145043400Y-131799609D03*
X145043400Y-126719609D03*
%TD*%
D34*
%TO.C,J5*%
X65727100Y-59409609D03*
D32*
X63187100Y-59409609D03*
X65727100Y-61949609D03*
X63187100Y-61949609D03*
X65727100Y-64489609D03*
X63187100Y-64489609D03*
X65727100Y-67029609D03*
X63187100Y-67029609D03*
X65727100Y-69569609D03*
X63187100Y-69569609D03*
X65727100Y-72109609D03*
X63187100Y-72109609D03*
X65727100Y-74649609D03*
X63187100Y-74649609D03*
X65727100Y-77189609D03*
X63187100Y-77189609D03*
X65727100Y-79729609D03*
X63187100Y-79729609D03*
X65727100Y-82269609D03*
X63187100Y-82269609D03*
%TD*%
M02*
