%TF.GenerationSoftware,KiCad,Pcbnew,(6.0.5)*%
%TF.CreationDate,2022-06-30T03:28:59+08:00*%
%TF.ProjectId,lkt100a1_bclamp,6c6b7431-3030-4613-915f-62636c616d70,rev?*%
%TF.SameCoordinates,Original*%
%TF.FileFunction,Legend,Bot*%
%TF.FilePolarity,Positive*%
%FSLAX46Y46*%
G04 Gerber Fmt 4.6, Leading zero omitted, Abs format (unit mm)*
G04 Created by KiCad (PCBNEW (6.0.5)) date 2022-06-30 03:28:59*
%MOMM*%
%LPD*%
G01*
G04 APERTURE LIST*
%ADD10C,0.152400*%
%ADD11C,0.150000*%
%ADD12C,0.120000*%
G04 APERTURE END LIST*
D10*
%TO.C,R114*%
X89666561Y-62106504D02*
X89937495Y-61719456D01*
X90131019Y-62106504D02*
X90131019Y-61293704D01*
X89821380Y-61293704D01*
X89743971Y-61332409D01*
X89705266Y-61371113D01*
X89666561Y-61448523D01*
X89666561Y-61564637D01*
X89705266Y-61642047D01*
X89743971Y-61680751D01*
X89821380Y-61719456D01*
X90131019Y-61719456D01*
X88892466Y-62106504D02*
X89356923Y-62106504D01*
X89124695Y-62106504D02*
X89124695Y-61293704D01*
X89202104Y-61409818D01*
X89279514Y-61487228D01*
X89356923Y-61525932D01*
X88118371Y-62106504D02*
X88582828Y-62106504D01*
X88350600Y-62106504D02*
X88350600Y-61293704D01*
X88428009Y-61409818D01*
X88505419Y-61487228D01*
X88582828Y-61525932D01*
X87421685Y-61564637D02*
X87421685Y-62106504D01*
X87615209Y-61254999D02*
X87808733Y-61835570D01*
X87305571Y-61835570D01*
%TO.C,R60*%
X158265914Y-117130504D02*
X158536847Y-116743456D01*
X158730371Y-117130504D02*
X158730371Y-116317704D01*
X158420733Y-116317704D01*
X158343323Y-116356409D01*
X158304619Y-116395113D01*
X158265914Y-116472523D01*
X158265914Y-116588637D01*
X158304619Y-116666047D01*
X158343323Y-116704751D01*
X158420733Y-116743456D01*
X158730371Y-116743456D01*
X157569228Y-116317704D02*
X157724047Y-116317704D01*
X157801457Y-116356409D01*
X157840161Y-116395113D01*
X157917571Y-116511228D01*
X157956276Y-116666047D01*
X157956276Y-116975685D01*
X157917571Y-117053094D01*
X157878866Y-117091799D01*
X157801457Y-117130504D01*
X157646638Y-117130504D01*
X157569228Y-117091799D01*
X157530523Y-117053094D01*
X157491819Y-116975685D01*
X157491819Y-116782161D01*
X157530523Y-116704751D01*
X157569228Y-116666047D01*
X157646638Y-116627342D01*
X157801457Y-116627342D01*
X157878866Y-116666047D01*
X157917571Y-116704751D01*
X157956276Y-116782161D01*
X156988657Y-116317704D02*
X156911247Y-116317704D01*
X156833838Y-116356409D01*
X156795133Y-116395113D01*
X156756428Y-116472523D01*
X156717723Y-116627342D01*
X156717723Y-116820866D01*
X156756428Y-116975685D01*
X156795133Y-117053094D01*
X156833838Y-117091799D01*
X156911247Y-117130504D01*
X156988657Y-117130504D01*
X157066066Y-117091799D01*
X157104771Y-117053094D01*
X157143476Y-116975685D01*
X157182180Y-116820866D01*
X157182180Y-116627342D01*
X157143476Y-116472523D01*
X157104771Y-116395113D01*
X157066066Y-116356409D01*
X156988657Y-116317704D01*
%TO.C,R98*%
X113482295Y-44586894D02*
X113095247Y-44315961D01*
X113482295Y-44122437D02*
X112669495Y-44122437D01*
X112669495Y-44432075D01*
X112708200Y-44509485D01*
X112746904Y-44548189D01*
X112824314Y-44586894D01*
X112940428Y-44586894D01*
X113017838Y-44548189D01*
X113056542Y-44509485D01*
X113095247Y-44432075D01*
X113095247Y-44122437D01*
X113482295Y-44973942D02*
X113482295Y-45128761D01*
X113443590Y-45206170D01*
X113404885Y-45244875D01*
X113288771Y-45322285D01*
X113133952Y-45360989D01*
X112824314Y-45360989D01*
X112746904Y-45322285D01*
X112708200Y-45283580D01*
X112669495Y-45206170D01*
X112669495Y-45051351D01*
X112708200Y-44973942D01*
X112746904Y-44935237D01*
X112824314Y-44896532D01*
X113017838Y-44896532D01*
X113095247Y-44935237D01*
X113133952Y-44973942D01*
X113172657Y-45051351D01*
X113172657Y-45206170D01*
X113133952Y-45283580D01*
X113095247Y-45322285D01*
X113017838Y-45360989D01*
X113017838Y-45825447D02*
X112979133Y-45748037D01*
X112940428Y-45709332D01*
X112863019Y-45670628D01*
X112824314Y-45670628D01*
X112746904Y-45709332D01*
X112708200Y-45748037D01*
X112669495Y-45825447D01*
X112669495Y-45980266D01*
X112708200Y-46057675D01*
X112746904Y-46096380D01*
X112824314Y-46135085D01*
X112863019Y-46135085D01*
X112940428Y-46096380D01*
X112979133Y-46057675D01*
X113017838Y-45980266D01*
X113017838Y-45825447D01*
X113056542Y-45748037D01*
X113095247Y-45709332D01*
X113172657Y-45670628D01*
X113327476Y-45670628D01*
X113404885Y-45709332D01*
X113443590Y-45748037D01*
X113482295Y-45825447D01*
X113482295Y-45980266D01*
X113443590Y-46057675D01*
X113404885Y-46096380D01*
X113327476Y-46135085D01*
X113172657Y-46135085D01*
X113095247Y-46096380D01*
X113056542Y-46057675D01*
X113017838Y-45980266D01*
%TO.C,R123*%
X119409961Y-72883704D02*
X119680895Y-72496656D01*
X119874419Y-72883704D02*
X119874419Y-72070904D01*
X119564780Y-72070904D01*
X119487371Y-72109609D01*
X119448666Y-72148313D01*
X119409961Y-72225723D01*
X119409961Y-72341837D01*
X119448666Y-72419247D01*
X119487371Y-72457951D01*
X119564780Y-72496656D01*
X119874419Y-72496656D01*
X118635866Y-72883704D02*
X119100323Y-72883704D01*
X118868095Y-72883704D02*
X118868095Y-72070904D01*
X118945504Y-72187018D01*
X119022914Y-72264428D01*
X119100323Y-72303132D01*
X118326228Y-72148313D02*
X118287523Y-72109609D01*
X118210114Y-72070904D01*
X118016590Y-72070904D01*
X117939180Y-72109609D01*
X117900476Y-72148313D01*
X117861771Y-72225723D01*
X117861771Y-72303132D01*
X117900476Y-72419247D01*
X118364933Y-72883704D01*
X117861771Y-72883704D01*
X117590838Y-72070904D02*
X117087676Y-72070904D01*
X117358609Y-72380542D01*
X117242495Y-72380542D01*
X117165085Y-72419247D01*
X117126380Y-72457951D01*
X117087676Y-72535361D01*
X117087676Y-72728885D01*
X117126380Y-72806294D01*
X117165085Y-72844999D01*
X117242495Y-72883704D01*
X117474723Y-72883704D01*
X117552133Y-72844999D01*
X117590838Y-72806294D01*
%TO.C,R128*%
X129315095Y-74286647D02*
X128928047Y-74015713D01*
X129315095Y-73822189D02*
X128502295Y-73822189D01*
X128502295Y-74131828D01*
X128541000Y-74209237D01*
X128579704Y-74247942D01*
X128657114Y-74286647D01*
X128773228Y-74286647D01*
X128850638Y-74247942D01*
X128889342Y-74209237D01*
X128928047Y-74131828D01*
X128928047Y-73822189D01*
X129315095Y-75060742D02*
X129315095Y-74596285D01*
X129315095Y-74828513D02*
X128502295Y-74828513D01*
X128618409Y-74751104D01*
X128695819Y-74673694D01*
X128734523Y-74596285D01*
X128579704Y-75370380D02*
X128541000Y-75409085D01*
X128502295Y-75486494D01*
X128502295Y-75680018D01*
X128541000Y-75757428D01*
X128579704Y-75796132D01*
X128657114Y-75834837D01*
X128734523Y-75834837D01*
X128850638Y-75796132D01*
X129315095Y-75331675D01*
X129315095Y-75834837D01*
X128850638Y-76299294D02*
X128811933Y-76221885D01*
X128773228Y-76183180D01*
X128695819Y-76144475D01*
X128657114Y-76144475D01*
X128579704Y-76183180D01*
X128541000Y-76221885D01*
X128502295Y-76299294D01*
X128502295Y-76454113D01*
X128541000Y-76531523D01*
X128579704Y-76570228D01*
X128657114Y-76608932D01*
X128695819Y-76608932D01*
X128773228Y-76570228D01*
X128811933Y-76531523D01*
X128850638Y-76454113D01*
X128850638Y-76299294D01*
X128889342Y-76221885D01*
X128928047Y-76183180D01*
X129005457Y-76144475D01*
X129160276Y-76144475D01*
X129237685Y-76183180D01*
X129276390Y-76221885D01*
X129315095Y-76299294D01*
X129315095Y-76454113D01*
X129276390Y-76531523D01*
X129237685Y-76570228D01*
X129160276Y-76608932D01*
X129005457Y-76608932D01*
X128928047Y-76570228D01*
X128889342Y-76531523D01*
X128850638Y-76454113D01*
%TO.C,J1*%
X73178333Y-129398704D02*
X73178333Y-129979275D01*
X73217038Y-130095389D01*
X73294447Y-130172799D01*
X73410561Y-130211504D01*
X73487971Y-130211504D01*
X72365533Y-130211504D02*
X72829990Y-130211504D01*
X72597761Y-130211504D02*
X72597761Y-129398704D01*
X72675171Y-129514818D01*
X72752580Y-129592228D01*
X72829990Y-129630932D01*
%TO.C,Q8*%
X89291609Y-58496113D02*
X89369019Y-58457409D01*
X89446428Y-58379999D01*
X89562542Y-58263885D01*
X89639952Y-58225180D01*
X89717361Y-58225180D01*
X89678657Y-58418704D02*
X89756066Y-58379999D01*
X89833476Y-58302589D01*
X89872180Y-58147770D01*
X89872180Y-57876837D01*
X89833476Y-57722018D01*
X89756066Y-57644609D01*
X89678657Y-57605904D01*
X89523838Y-57605904D01*
X89446428Y-57644609D01*
X89369019Y-57722018D01*
X89330314Y-57876837D01*
X89330314Y-58147770D01*
X89369019Y-58302589D01*
X89446428Y-58379999D01*
X89523838Y-58418704D01*
X89678657Y-58418704D01*
X88865857Y-57954247D02*
X88943266Y-57915542D01*
X88981971Y-57876837D01*
X89020676Y-57799428D01*
X89020676Y-57760723D01*
X88981971Y-57683313D01*
X88943266Y-57644609D01*
X88865857Y-57605904D01*
X88711038Y-57605904D01*
X88633628Y-57644609D01*
X88594923Y-57683313D01*
X88556219Y-57760723D01*
X88556219Y-57799428D01*
X88594923Y-57876837D01*
X88633628Y-57915542D01*
X88711038Y-57954247D01*
X88865857Y-57954247D01*
X88943266Y-57992951D01*
X88981971Y-58031656D01*
X89020676Y-58109066D01*
X89020676Y-58263885D01*
X88981971Y-58341294D01*
X88943266Y-58379999D01*
X88865857Y-58418704D01*
X88711038Y-58418704D01*
X88633628Y-58379999D01*
X88594923Y-58341294D01*
X88556219Y-58263885D01*
X88556219Y-58109066D01*
X88594923Y-58031656D01*
X88633628Y-57992951D01*
X88711038Y-57954247D01*
%TO.C,U3*%
X112111176Y-70673904D02*
X112111176Y-71331885D01*
X112072471Y-71409294D01*
X112033766Y-71447999D01*
X111956357Y-71486704D01*
X111801538Y-71486704D01*
X111724128Y-71447999D01*
X111685423Y-71409294D01*
X111646719Y-71331885D01*
X111646719Y-70673904D01*
X111337080Y-70673904D02*
X110833919Y-70673904D01*
X111104852Y-70983542D01*
X110988738Y-70983542D01*
X110911328Y-71022247D01*
X110872623Y-71060951D01*
X110833919Y-71138361D01*
X110833919Y-71331885D01*
X110872623Y-71409294D01*
X110911328Y-71447999D01*
X110988738Y-71486704D01*
X111220966Y-71486704D01*
X111298376Y-71447999D01*
X111337080Y-71409294D01*
%TO.C,R39*%
X89190114Y-133800504D02*
X89461047Y-133413456D01*
X89654571Y-133800504D02*
X89654571Y-132987704D01*
X89344933Y-132987704D01*
X89267523Y-133026409D01*
X89228819Y-133065113D01*
X89190114Y-133142523D01*
X89190114Y-133258637D01*
X89228819Y-133336047D01*
X89267523Y-133374751D01*
X89344933Y-133413456D01*
X89654571Y-133413456D01*
X88919180Y-132987704D02*
X88416019Y-132987704D01*
X88686952Y-133297342D01*
X88570838Y-133297342D01*
X88493428Y-133336047D01*
X88454723Y-133374751D01*
X88416019Y-133452161D01*
X88416019Y-133645685D01*
X88454723Y-133723094D01*
X88493428Y-133761799D01*
X88570838Y-133800504D01*
X88803066Y-133800504D01*
X88880476Y-133761799D01*
X88919180Y-133723094D01*
X88028971Y-133800504D02*
X87874152Y-133800504D01*
X87796742Y-133761799D01*
X87758038Y-133723094D01*
X87680628Y-133606980D01*
X87641923Y-133452161D01*
X87641923Y-133142523D01*
X87680628Y-133065113D01*
X87719333Y-133026409D01*
X87796742Y-132987704D01*
X87951561Y-132987704D01*
X88028971Y-133026409D01*
X88067676Y-133065113D01*
X88106380Y-133142523D01*
X88106380Y-133336047D01*
X88067676Y-133413456D01*
X88028971Y-133452161D01*
X87951561Y-133490866D01*
X87796742Y-133490866D01*
X87719333Y-133452161D01*
X87680628Y-133413456D01*
X87641923Y-133336047D01*
%TO.C,R116*%
X92841561Y-64941104D02*
X93112495Y-64554056D01*
X93306019Y-64941104D02*
X93306019Y-64128304D01*
X92996380Y-64128304D01*
X92918971Y-64167009D01*
X92880266Y-64205713D01*
X92841561Y-64283123D01*
X92841561Y-64399237D01*
X92880266Y-64476647D01*
X92918971Y-64515351D01*
X92996380Y-64554056D01*
X93306019Y-64554056D01*
X92067466Y-64941104D02*
X92531923Y-64941104D01*
X92299695Y-64941104D02*
X92299695Y-64128304D01*
X92377104Y-64244418D01*
X92454514Y-64321828D01*
X92531923Y-64360532D01*
X91293371Y-64941104D02*
X91757828Y-64941104D01*
X91525600Y-64941104D02*
X91525600Y-64128304D01*
X91603009Y-64244418D01*
X91680419Y-64321828D01*
X91757828Y-64360532D01*
X90596685Y-64128304D02*
X90751504Y-64128304D01*
X90828914Y-64167009D01*
X90867619Y-64205713D01*
X90945028Y-64321828D01*
X90983733Y-64476647D01*
X90983733Y-64786285D01*
X90945028Y-64863694D01*
X90906323Y-64902399D01*
X90828914Y-64941104D01*
X90674095Y-64941104D01*
X90596685Y-64902399D01*
X90557980Y-64863694D01*
X90519276Y-64786285D01*
X90519276Y-64592761D01*
X90557980Y-64515351D01*
X90596685Y-64476647D01*
X90674095Y-64437942D01*
X90828914Y-64437942D01*
X90906323Y-64476647D01*
X90945028Y-64515351D01*
X90983733Y-64592761D01*
%TO.C,D5*%
X130083023Y-61123504D02*
X130083023Y-60310704D01*
X129889500Y-60310704D01*
X129773385Y-60349409D01*
X129695976Y-60426818D01*
X129657271Y-60504228D01*
X129618566Y-60659047D01*
X129618566Y-60775161D01*
X129657271Y-60929980D01*
X129695976Y-61007389D01*
X129773385Y-61084799D01*
X129889500Y-61123504D01*
X130083023Y-61123504D01*
X128883176Y-60310704D02*
X129270223Y-60310704D01*
X129308928Y-60697751D01*
X129270223Y-60659047D01*
X129192814Y-60620342D01*
X128999290Y-60620342D01*
X128921880Y-60659047D01*
X128883176Y-60697751D01*
X128844471Y-60775161D01*
X128844471Y-60968685D01*
X128883176Y-61046094D01*
X128921880Y-61084799D01*
X128999290Y-61123504D01*
X129192814Y-61123504D01*
X129270223Y-61084799D01*
X129308928Y-61046094D01*
%TO.C,R59*%
X141425714Y-124496504D02*
X141696647Y-124109456D01*
X141890171Y-124496504D02*
X141890171Y-123683704D01*
X141580533Y-123683704D01*
X141503123Y-123722409D01*
X141464419Y-123761113D01*
X141425714Y-123838523D01*
X141425714Y-123954637D01*
X141464419Y-124032047D01*
X141503123Y-124070751D01*
X141580533Y-124109456D01*
X141890171Y-124109456D01*
X140690323Y-123683704D02*
X141077371Y-123683704D01*
X141116076Y-124070751D01*
X141077371Y-124032047D01*
X140999961Y-123993342D01*
X140806438Y-123993342D01*
X140729028Y-124032047D01*
X140690323Y-124070751D01*
X140651619Y-124148161D01*
X140651619Y-124341685D01*
X140690323Y-124419094D01*
X140729028Y-124457799D01*
X140806438Y-124496504D01*
X140999961Y-124496504D01*
X141077371Y-124457799D01*
X141116076Y-124419094D01*
X140264571Y-124496504D02*
X140109752Y-124496504D01*
X140032342Y-124457799D01*
X139993638Y-124419094D01*
X139916228Y-124302980D01*
X139877523Y-124148161D01*
X139877523Y-123838523D01*
X139916228Y-123761113D01*
X139954933Y-123722409D01*
X140032342Y-123683704D01*
X140187161Y-123683704D01*
X140264571Y-123722409D01*
X140303276Y-123761113D01*
X140341980Y-123838523D01*
X140341980Y-124032047D01*
X140303276Y-124109456D01*
X140264571Y-124148161D01*
X140187161Y-124186866D01*
X140032342Y-124186866D01*
X139954933Y-124148161D01*
X139916228Y-124109456D01*
X139877523Y-124032047D01*
%TO.C,J7*%
X154773933Y-86770504D02*
X154773933Y-87351075D01*
X154812638Y-87467189D01*
X154890047Y-87544599D01*
X155006161Y-87583304D01*
X155083571Y-87583304D01*
X154464295Y-86770504D02*
X153922428Y-86770504D01*
X154270771Y-87583304D01*
%TO.C,R124*%
X119333761Y-81976904D02*
X119604695Y-81589856D01*
X119798219Y-81976904D02*
X119798219Y-81164104D01*
X119488580Y-81164104D01*
X119411171Y-81202809D01*
X119372466Y-81241513D01*
X119333761Y-81318923D01*
X119333761Y-81435037D01*
X119372466Y-81512447D01*
X119411171Y-81551151D01*
X119488580Y-81589856D01*
X119798219Y-81589856D01*
X118559666Y-81976904D02*
X119024123Y-81976904D01*
X118791895Y-81976904D02*
X118791895Y-81164104D01*
X118869304Y-81280218D01*
X118946714Y-81357628D01*
X119024123Y-81396332D01*
X118250028Y-81241513D02*
X118211323Y-81202809D01*
X118133914Y-81164104D01*
X117940390Y-81164104D01*
X117862980Y-81202809D01*
X117824276Y-81241513D01*
X117785571Y-81318923D01*
X117785571Y-81396332D01*
X117824276Y-81512447D01*
X118288733Y-81976904D01*
X117785571Y-81976904D01*
X117088885Y-81435037D02*
X117088885Y-81976904D01*
X117282409Y-81125399D02*
X117475933Y-81705970D01*
X116972771Y-81705970D01*
%TO.C,D3*%
X127050523Y-63934504D02*
X127050523Y-63121704D01*
X126857000Y-63121704D01*
X126740885Y-63160409D01*
X126663476Y-63237818D01*
X126624771Y-63315228D01*
X126586066Y-63470047D01*
X126586066Y-63586161D01*
X126624771Y-63740980D01*
X126663476Y-63818389D01*
X126740885Y-63895799D01*
X126857000Y-63934504D01*
X127050523Y-63934504D01*
X126315133Y-63121704D02*
X125811971Y-63121704D01*
X126082904Y-63431342D01*
X125966790Y-63431342D01*
X125889380Y-63470047D01*
X125850676Y-63508751D01*
X125811971Y-63586161D01*
X125811971Y-63779685D01*
X125850676Y-63857094D01*
X125889380Y-63895799D01*
X125966790Y-63934504D01*
X126199019Y-63934504D01*
X126276428Y-63895799D01*
X126315133Y-63857094D01*
%TO.C,Q10*%
X124375057Y-72757913D02*
X124452466Y-72719209D01*
X124529876Y-72641799D01*
X124645990Y-72525685D01*
X124723400Y-72486980D01*
X124800809Y-72486980D01*
X124762104Y-72680504D02*
X124839514Y-72641799D01*
X124916923Y-72564389D01*
X124955628Y-72409570D01*
X124955628Y-72138637D01*
X124916923Y-71983818D01*
X124839514Y-71906409D01*
X124762104Y-71867704D01*
X124607285Y-71867704D01*
X124529876Y-71906409D01*
X124452466Y-71983818D01*
X124413761Y-72138637D01*
X124413761Y-72409570D01*
X124452466Y-72564389D01*
X124529876Y-72641799D01*
X124607285Y-72680504D01*
X124762104Y-72680504D01*
X123639666Y-72680504D02*
X124104123Y-72680504D01*
X123871895Y-72680504D02*
X123871895Y-71867704D01*
X123949304Y-71983818D01*
X124026714Y-72061228D01*
X124104123Y-72099932D01*
X123136504Y-71867704D02*
X123059095Y-71867704D01*
X122981685Y-71906409D01*
X122942980Y-71945113D01*
X122904276Y-72022523D01*
X122865571Y-72177342D01*
X122865571Y-72370866D01*
X122904276Y-72525685D01*
X122942980Y-72603094D01*
X122981685Y-72641799D01*
X123059095Y-72680504D01*
X123136504Y-72680504D01*
X123213914Y-72641799D01*
X123252619Y-72603094D01*
X123291323Y-72525685D01*
X123330028Y-72370866D01*
X123330028Y-72177342D01*
X123291323Y-72022523D01*
X123252619Y-71945113D01*
X123213914Y-71906409D01*
X123136504Y-71867704D01*
%TO.C,U1*%
X118734876Y-98504904D02*
X118734876Y-99162885D01*
X118696171Y-99240294D01*
X118657466Y-99278999D01*
X118580057Y-99317704D01*
X118425238Y-99317704D01*
X118347828Y-99278999D01*
X118309123Y-99240294D01*
X118270419Y-99162885D01*
X118270419Y-98504904D01*
X117457619Y-99317704D02*
X117922076Y-99317704D01*
X117689847Y-99317704D02*
X117689847Y-98504904D01*
X117767257Y-98621018D01*
X117844666Y-98698428D01*
X117922076Y-98737132D01*
%TO.C,Q2*%
X91476009Y-129577713D02*
X91553419Y-129539009D01*
X91630828Y-129461599D01*
X91746942Y-129345485D01*
X91824352Y-129306780D01*
X91901761Y-129306780D01*
X91863057Y-129500304D02*
X91940466Y-129461599D01*
X92017876Y-129384189D01*
X92056580Y-129229370D01*
X92056580Y-128958437D01*
X92017876Y-128803618D01*
X91940466Y-128726209D01*
X91863057Y-128687504D01*
X91708238Y-128687504D01*
X91630828Y-128726209D01*
X91553419Y-128803618D01*
X91514714Y-128958437D01*
X91514714Y-129229370D01*
X91553419Y-129384189D01*
X91630828Y-129461599D01*
X91708238Y-129500304D01*
X91863057Y-129500304D01*
X91205076Y-128764913D02*
X91166371Y-128726209D01*
X91088961Y-128687504D01*
X90895438Y-128687504D01*
X90818028Y-128726209D01*
X90779323Y-128764913D01*
X90740619Y-128842323D01*
X90740619Y-128919732D01*
X90779323Y-129035847D01*
X91243780Y-129500304D01*
X90740619Y-129500304D01*
%TO.C,C8*%
X114571866Y-71688694D02*
X114610571Y-71727399D01*
X114726685Y-71766104D01*
X114804095Y-71766104D01*
X114920209Y-71727399D01*
X114997619Y-71649989D01*
X115036323Y-71572580D01*
X115075028Y-71417761D01*
X115075028Y-71301647D01*
X115036323Y-71146828D01*
X114997619Y-71069418D01*
X114920209Y-70992009D01*
X114804095Y-70953304D01*
X114726685Y-70953304D01*
X114610571Y-70992009D01*
X114571866Y-71030713D01*
X114107409Y-71301647D02*
X114184819Y-71262942D01*
X114223523Y-71224237D01*
X114262228Y-71146828D01*
X114262228Y-71108123D01*
X114223523Y-71030713D01*
X114184819Y-70992009D01*
X114107409Y-70953304D01*
X113952590Y-70953304D01*
X113875180Y-70992009D01*
X113836476Y-71030713D01*
X113797771Y-71108123D01*
X113797771Y-71146828D01*
X113836476Y-71224237D01*
X113875180Y-71262942D01*
X113952590Y-71301647D01*
X114107409Y-71301647D01*
X114184819Y-71340351D01*
X114223523Y-71379056D01*
X114262228Y-71456466D01*
X114262228Y-71611285D01*
X114223523Y-71688694D01*
X114184819Y-71727399D01*
X114107409Y-71766104D01*
X113952590Y-71766104D01*
X113875180Y-71727399D01*
X113836476Y-71688694D01*
X113797771Y-71611285D01*
X113797771Y-71456466D01*
X113836476Y-71379056D01*
X113875180Y-71340351D01*
X113952590Y-71301647D01*
%TO.C,R108*%
X109884961Y-101230104D02*
X110155895Y-100843056D01*
X110349419Y-101230104D02*
X110349419Y-100417304D01*
X110039780Y-100417304D01*
X109962371Y-100456009D01*
X109923666Y-100494713D01*
X109884961Y-100572123D01*
X109884961Y-100688237D01*
X109923666Y-100765647D01*
X109962371Y-100804351D01*
X110039780Y-100843056D01*
X110349419Y-100843056D01*
X109110866Y-101230104D02*
X109575323Y-101230104D01*
X109343095Y-101230104D02*
X109343095Y-100417304D01*
X109420504Y-100533418D01*
X109497914Y-100610828D01*
X109575323Y-100649532D01*
X108607704Y-100417304D02*
X108530295Y-100417304D01*
X108452885Y-100456009D01*
X108414180Y-100494713D01*
X108375476Y-100572123D01*
X108336771Y-100726942D01*
X108336771Y-100920466D01*
X108375476Y-101075285D01*
X108414180Y-101152694D01*
X108452885Y-101191399D01*
X108530295Y-101230104D01*
X108607704Y-101230104D01*
X108685114Y-101191399D01*
X108723819Y-101152694D01*
X108762523Y-101075285D01*
X108801228Y-100920466D01*
X108801228Y-100726942D01*
X108762523Y-100572123D01*
X108723819Y-100494713D01*
X108685114Y-100456009D01*
X108607704Y-100417304D01*
X107872314Y-100765647D02*
X107949723Y-100726942D01*
X107988428Y-100688237D01*
X108027133Y-100610828D01*
X108027133Y-100572123D01*
X107988428Y-100494713D01*
X107949723Y-100456009D01*
X107872314Y-100417304D01*
X107717495Y-100417304D01*
X107640085Y-100456009D01*
X107601380Y-100494713D01*
X107562676Y-100572123D01*
X107562676Y-100610828D01*
X107601380Y-100688237D01*
X107640085Y-100726942D01*
X107717495Y-100765647D01*
X107872314Y-100765647D01*
X107949723Y-100804351D01*
X107988428Y-100843056D01*
X108027133Y-100920466D01*
X108027133Y-101075285D01*
X107988428Y-101152694D01*
X107949723Y-101191399D01*
X107872314Y-101230104D01*
X107717495Y-101230104D01*
X107640085Y-101191399D01*
X107601380Y-101152694D01*
X107562676Y-101075285D01*
X107562676Y-100920466D01*
X107601380Y-100843056D01*
X107640085Y-100804351D01*
X107717495Y-100765647D01*
%TO.C,R90*%
X127252514Y-105700504D02*
X127523447Y-105313456D01*
X127716971Y-105700504D02*
X127716971Y-104887704D01*
X127407333Y-104887704D01*
X127329923Y-104926409D01*
X127291219Y-104965113D01*
X127252514Y-105042523D01*
X127252514Y-105158637D01*
X127291219Y-105236047D01*
X127329923Y-105274751D01*
X127407333Y-105313456D01*
X127716971Y-105313456D01*
X126865466Y-105700504D02*
X126710647Y-105700504D01*
X126633238Y-105661799D01*
X126594533Y-105623094D01*
X126517123Y-105506980D01*
X126478419Y-105352161D01*
X126478419Y-105042523D01*
X126517123Y-104965113D01*
X126555828Y-104926409D01*
X126633238Y-104887704D01*
X126788057Y-104887704D01*
X126865466Y-104926409D01*
X126904171Y-104965113D01*
X126942876Y-105042523D01*
X126942876Y-105236047D01*
X126904171Y-105313456D01*
X126865466Y-105352161D01*
X126788057Y-105390866D01*
X126633238Y-105390866D01*
X126555828Y-105352161D01*
X126517123Y-105313456D01*
X126478419Y-105236047D01*
X125975257Y-104887704D02*
X125897847Y-104887704D01*
X125820438Y-104926409D01*
X125781733Y-104965113D01*
X125743028Y-105042523D01*
X125704323Y-105197342D01*
X125704323Y-105390866D01*
X125743028Y-105545685D01*
X125781733Y-105623094D01*
X125820438Y-105661799D01*
X125897847Y-105700504D01*
X125975257Y-105700504D01*
X126052666Y-105661799D01*
X126091371Y-105623094D01*
X126130076Y-105545685D01*
X126168780Y-105390866D01*
X126168780Y-105197342D01*
X126130076Y-105042523D01*
X126091371Y-104965113D01*
X126052666Y-104926409D01*
X125975257Y-104887704D01*
%TO.C,D2*%
X154825923Y-116547304D02*
X154825923Y-115734504D01*
X154632400Y-115734504D01*
X154516285Y-115773209D01*
X154438876Y-115850618D01*
X154400171Y-115928028D01*
X154361466Y-116082847D01*
X154361466Y-116198961D01*
X154400171Y-116353780D01*
X154438876Y-116431189D01*
X154516285Y-116508599D01*
X154632400Y-116547304D01*
X154825923Y-116547304D01*
X154051828Y-115811913D02*
X154013123Y-115773209D01*
X153935714Y-115734504D01*
X153742190Y-115734504D01*
X153664780Y-115773209D01*
X153626076Y-115811913D01*
X153587371Y-115889323D01*
X153587371Y-115966732D01*
X153626076Y-116082847D01*
X154090533Y-116547304D01*
X153587371Y-116547304D01*
%TO.C,BZ1*%
X98464638Y-65207151D02*
X98348523Y-65245856D01*
X98309819Y-65284561D01*
X98271114Y-65361970D01*
X98271114Y-65478085D01*
X98309819Y-65555494D01*
X98348523Y-65594199D01*
X98425933Y-65632904D01*
X98735571Y-65632904D01*
X98735571Y-64820104D01*
X98464638Y-64820104D01*
X98387228Y-64858809D01*
X98348523Y-64897513D01*
X98309819Y-64974923D01*
X98309819Y-65052332D01*
X98348523Y-65129742D01*
X98387228Y-65168447D01*
X98464638Y-65207151D01*
X98735571Y-65207151D01*
X98000180Y-64820104D02*
X97458314Y-64820104D01*
X98000180Y-65632904D01*
X97458314Y-65632904D01*
X96722923Y-65632904D02*
X97187380Y-65632904D01*
X96955152Y-65632904D02*
X96955152Y-64820104D01*
X97032561Y-64936218D01*
X97109971Y-65013628D01*
X97187380Y-65052332D01*
D11*
X101629552Y-59736637D02*
X100867647Y-59736637D01*
X101248600Y-60117589D02*
X101248600Y-59355685D01*
D10*
%TO.C,R132*%
X124938695Y-81588647D02*
X124551647Y-81317713D01*
X124938695Y-81124189D02*
X124125895Y-81124189D01*
X124125895Y-81433828D01*
X124164600Y-81511237D01*
X124203304Y-81549942D01*
X124280714Y-81588647D01*
X124396828Y-81588647D01*
X124474238Y-81549942D01*
X124512942Y-81511237D01*
X124551647Y-81433828D01*
X124551647Y-81124189D01*
X124938695Y-82362742D02*
X124938695Y-81898285D01*
X124938695Y-82130513D02*
X124125895Y-82130513D01*
X124242009Y-82053104D01*
X124319419Y-81975694D01*
X124358123Y-81898285D01*
X124125895Y-82633675D02*
X124125895Y-83136837D01*
X124435533Y-82865904D01*
X124435533Y-82982018D01*
X124474238Y-83059428D01*
X124512942Y-83098132D01*
X124590352Y-83136837D01*
X124783876Y-83136837D01*
X124861285Y-83098132D01*
X124899990Y-83059428D01*
X124938695Y-82982018D01*
X124938695Y-82749789D01*
X124899990Y-82672380D01*
X124861285Y-82633675D01*
X124203304Y-83446475D02*
X124164600Y-83485180D01*
X124125895Y-83562589D01*
X124125895Y-83756113D01*
X124164600Y-83833523D01*
X124203304Y-83872228D01*
X124280714Y-83910932D01*
X124358123Y-83910932D01*
X124474238Y-83872228D01*
X124938695Y-83407770D01*
X124938695Y-83910932D01*
%TO.C,R121*%
X103534961Y-74331504D02*
X103805895Y-73944456D01*
X103999419Y-74331504D02*
X103999419Y-73518704D01*
X103689780Y-73518704D01*
X103612371Y-73557409D01*
X103573666Y-73596113D01*
X103534961Y-73673523D01*
X103534961Y-73789637D01*
X103573666Y-73867047D01*
X103612371Y-73905751D01*
X103689780Y-73944456D01*
X103999419Y-73944456D01*
X102760866Y-74331504D02*
X103225323Y-74331504D01*
X102993095Y-74331504D02*
X102993095Y-73518704D01*
X103070504Y-73634818D01*
X103147914Y-73712228D01*
X103225323Y-73750932D01*
X102451228Y-73596113D02*
X102412523Y-73557409D01*
X102335114Y-73518704D01*
X102141590Y-73518704D01*
X102064180Y-73557409D01*
X102025476Y-73596113D01*
X101986771Y-73673523D01*
X101986771Y-73750932D01*
X102025476Y-73867047D01*
X102489933Y-74331504D01*
X101986771Y-74331504D01*
X101212676Y-74331504D02*
X101677133Y-74331504D01*
X101444904Y-74331504D02*
X101444904Y-73518704D01*
X101522314Y-73634818D01*
X101599723Y-73712228D01*
X101677133Y-73750932D01*
%TO.C,U2*%
X112490276Y-81087904D02*
X112490276Y-81745885D01*
X112451571Y-81823294D01*
X112412866Y-81861999D01*
X112335457Y-81900704D01*
X112180638Y-81900704D01*
X112103228Y-81861999D01*
X112064523Y-81823294D01*
X112025819Y-81745885D01*
X112025819Y-81087904D01*
X111677476Y-81165313D02*
X111638771Y-81126609D01*
X111561361Y-81087904D01*
X111367838Y-81087904D01*
X111290428Y-81126609D01*
X111251723Y-81165313D01*
X111213019Y-81242723D01*
X111213019Y-81320132D01*
X111251723Y-81436247D01*
X111716180Y-81900704D01*
X111213019Y-81900704D01*
%TO.C,Q6*%
X157516009Y-122262513D02*
X157593419Y-122223809D01*
X157670828Y-122146399D01*
X157786942Y-122030285D01*
X157864352Y-121991580D01*
X157941761Y-121991580D01*
X157903057Y-122185104D02*
X157980466Y-122146399D01*
X158057876Y-122068989D01*
X158096580Y-121914170D01*
X158096580Y-121643237D01*
X158057876Y-121488418D01*
X157980466Y-121411009D01*
X157903057Y-121372304D01*
X157748238Y-121372304D01*
X157670828Y-121411009D01*
X157593419Y-121488418D01*
X157554714Y-121643237D01*
X157554714Y-121914170D01*
X157593419Y-122068989D01*
X157670828Y-122146399D01*
X157748238Y-122185104D01*
X157903057Y-122185104D01*
X156858028Y-121372304D02*
X157012847Y-121372304D01*
X157090257Y-121411009D01*
X157128961Y-121449713D01*
X157206371Y-121565828D01*
X157245076Y-121720647D01*
X157245076Y-122030285D01*
X157206371Y-122107694D01*
X157167666Y-122146399D01*
X157090257Y-122185104D01*
X156935438Y-122185104D01*
X156858028Y-122146399D01*
X156819323Y-122107694D01*
X156780619Y-122030285D01*
X156780619Y-121836761D01*
X156819323Y-121759351D01*
X156858028Y-121720647D01*
X156935438Y-121681942D01*
X157090257Y-121681942D01*
X157167666Y-121720647D01*
X157206371Y-121759351D01*
X157245076Y-121836761D01*
%TO.C,J6*%
X154723133Y-74273704D02*
X154723133Y-74854275D01*
X154761838Y-74970389D01*
X154839247Y-75047799D01*
X154955361Y-75086504D01*
X155032771Y-75086504D01*
X153987742Y-74273704D02*
X154142561Y-74273704D01*
X154219971Y-74312409D01*
X154258676Y-74351113D01*
X154336085Y-74467228D01*
X154374790Y-74622047D01*
X154374790Y-74931685D01*
X154336085Y-75009094D01*
X154297380Y-75047799D01*
X154219971Y-75086504D01*
X154065152Y-75086504D01*
X153987742Y-75047799D01*
X153949038Y-75009094D01*
X153910333Y-74931685D01*
X153910333Y-74738161D01*
X153949038Y-74660751D01*
X153987742Y-74622047D01*
X154065152Y-74583342D01*
X154219971Y-74583342D01*
X154297380Y-74622047D01*
X154336085Y-74660751D01*
X154374790Y-74738161D01*
%TO.C,D4*%
X130174723Y-63333304D02*
X130174723Y-62520504D01*
X129981200Y-62520504D01*
X129865085Y-62559209D01*
X129787676Y-62636618D01*
X129748971Y-62714028D01*
X129710266Y-62868847D01*
X129710266Y-62984961D01*
X129748971Y-63139780D01*
X129787676Y-63217189D01*
X129865085Y-63294599D01*
X129981200Y-63333304D01*
X130174723Y-63333304D01*
X129013580Y-62791437D02*
X129013580Y-63333304D01*
X129207104Y-62481799D02*
X129400628Y-63062370D01*
X128897466Y-63062370D01*
%TO.C,Q3*%
X82840009Y-124980313D02*
X82917419Y-124941609D01*
X82994828Y-124864199D01*
X83110942Y-124748085D01*
X83188352Y-124709380D01*
X83265761Y-124709380D01*
X83227057Y-124902904D02*
X83304466Y-124864199D01*
X83381876Y-124786789D01*
X83420580Y-124631970D01*
X83420580Y-124361037D01*
X83381876Y-124206218D01*
X83304466Y-124128809D01*
X83227057Y-124090104D01*
X83072238Y-124090104D01*
X82994828Y-124128809D01*
X82917419Y-124206218D01*
X82878714Y-124361037D01*
X82878714Y-124631970D01*
X82917419Y-124786789D01*
X82994828Y-124864199D01*
X83072238Y-124902904D01*
X83227057Y-124902904D01*
X82607780Y-124090104D02*
X82104619Y-124090104D01*
X82375552Y-124399742D01*
X82259438Y-124399742D01*
X82182028Y-124438447D01*
X82143323Y-124477151D01*
X82104619Y-124554561D01*
X82104619Y-124748085D01*
X82143323Y-124825494D01*
X82182028Y-124864199D01*
X82259438Y-124902904D01*
X82491666Y-124902904D01*
X82569076Y-124864199D01*
X82607780Y-124825494D01*
%TO.C,K1*%
X130301723Y-71308904D02*
X130301723Y-70496104D01*
X129837266Y-71308904D02*
X130185609Y-70844447D01*
X129837266Y-70496104D02*
X130301723Y-70960561D01*
X129063171Y-71308904D02*
X129527628Y-71308904D01*
X129295400Y-71308904D02*
X129295400Y-70496104D01*
X129372809Y-70612218D01*
X129450219Y-70689628D01*
X129527628Y-70728332D01*
%TO.C,R77*%
X145743714Y-123124904D02*
X146014647Y-122737856D01*
X146208171Y-123124904D02*
X146208171Y-122312104D01*
X145898533Y-122312104D01*
X145821123Y-122350809D01*
X145782419Y-122389513D01*
X145743714Y-122466923D01*
X145743714Y-122583037D01*
X145782419Y-122660447D01*
X145821123Y-122699151D01*
X145898533Y-122737856D01*
X146208171Y-122737856D01*
X145472780Y-122312104D02*
X144930914Y-122312104D01*
X145279257Y-123124904D01*
X144698685Y-122312104D02*
X144156819Y-122312104D01*
X144505161Y-123124904D01*
%TO.C,R131*%
X139665961Y-62037904D02*
X139936895Y-61650856D01*
X140130419Y-62037904D02*
X140130419Y-61225104D01*
X139820780Y-61225104D01*
X139743371Y-61263809D01*
X139704666Y-61302513D01*
X139665961Y-61379923D01*
X139665961Y-61496037D01*
X139704666Y-61573447D01*
X139743371Y-61612151D01*
X139820780Y-61650856D01*
X140130419Y-61650856D01*
X138891866Y-62037904D02*
X139356323Y-62037904D01*
X139124095Y-62037904D02*
X139124095Y-61225104D01*
X139201504Y-61341218D01*
X139278914Y-61418628D01*
X139356323Y-61457332D01*
X138620933Y-61225104D02*
X138117771Y-61225104D01*
X138388704Y-61534742D01*
X138272590Y-61534742D01*
X138195180Y-61573447D01*
X138156476Y-61612151D01*
X138117771Y-61689561D01*
X138117771Y-61883085D01*
X138156476Y-61960494D01*
X138195180Y-61999199D01*
X138272590Y-62037904D01*
X138504819Y-62037904D01*
X138582228Y-61999199D01*
X138620933Y-61960494D01*
X137343676Y-62037904D02*
X137808133Y-62037904D01*
X137575904Y-62037904D02*
X137575904Y-61225104D01*
X137653314Y-61341218D01*
X137730723Y-61418628D01*
X137808133Y-61457332D01*
%TO.C,Q9*%
X121727409Y-64248913D02*
X121804819Y-64210209D01*
X121882228Y-64132799D01*
X121998342Y-64016685D01*
X122075752Y-63977980D01*
X122153161Y-63977980D01*
X122114457Y-64171504D02*
X122191866Y-64132799D01*
X122269276Y-64055389D01*
X122307980Y-63900570D01*
X122307980Y-63629637D01*
X122269276Y-63474818D01*
X122191866Y-63397409D01*
X122114457Y-63358704D01*
X121959638Y-63358704D01*
X121882228Y-63397409D01*
X121804819Y-63474818D01*
X121766114Y-63629637D01*
X121766114Y-63900570D01*
X121804819Y-64055389D01*
X121882228Y-64132799D01*
X121959638Y-64171504D01*
X122114457Y-64171504D01*
X121379066Y-64171504D02*
X121224247Y-64171504D01*
X121146838Y-64132799D01*
X121108133Y-64094094D01*
X121030723Y-63977980D01*
X120992019Y-63823161D01*
X120992019Y-63513523D01*
X121030723Y-63436113D01*
X121069428Y-63397409D01*
X121146838Y-63358704D01*
X121301657Y-63358704D01*
X121379066Y-63397409D01*
X121417771Y-63436113D01*
X121456476Y-63513523D01*
X121456476Y-63707047D01*
X121417771Y-63784456D01*
X121379066Y-63823161D01*
X121301657Y-63861866D01*
X121146838Y-63861866D01*
X121069428Y-63823161D01*
X121030723Y-63784456D01*
X120992019Y-63707047D01*
%TO.C,R133*%
X122982895Y-81360047D02*
X122595847Y-81089113D01*
X122982895Y-80895589D02*
X122170095Y-80895589D01*
X122170095Y-81205228D01*
X122208800Y-81282637D01*
X122247504Y-81321342D01*
X122324914Y-81360047D01*
X122441028Y-81360047D01*
X122518438Y-81321342D01*
X122557142Y-81282637D01*
X122595847Y-81205228D01*
X122595847Y-80895589D01*
X122982895Y-82134142D02*
X122982895Y-81669685D01*
X122982895Y-81901913D02*
X122170095Y-81901913D01*
X122286209Y-81824504D01*
X122363619Y-81747094D01*
X122402323Y-81669685D01*
X122170095Y-82405075D02*
X122170095Y-82908237D01*
X122479733Y-82637304D01*
X122479733Y-82753418D01*
X122518438Y-82830828D01*
X122557142Y-82869532D01*
X122634552Y-82908237D01*
X122828076Y-82908237D01*
X122905485Y-82869532D01*
X122944190Y-82830828D01*
X122982895Y-82753418D01*
X122982895Y-82521189D01*
X122944190Y-82443780D01*
X122905485Y-82405075D01*
X122170095Y-83179170D02*
X122170095Y-83682332D01*
X122479733Y-83411399D01*
X122479733Y-83527513D01*
X122518438Y-83604923D01*
X122557142Y-83643628D01*
X122634552Y-83682332D01*
X122828076Y-83682332D01*
X122905485Y-83643628D01*
X122944190Y-83604923D01*
X122982895Y-83527513D01*
X122982895Y-83295285D01*
X122944190Y-83217875D01*
X122905485Y-83179170D01*
%TO.C,C1*%
X149725466Y-124215894D02*
X149764171Y-124254599D01*
X149880285Y-124293304D01*
X149957695Y-124293304D01*
X150073809Y-124254599D01*
X150151219Y-124177189D01*
X150189923Y-124099780D01*
X150228628Y-123944961D01*
X150228628Y-123828847D01*
X150189923Y-123674028D01*
X150151219Y-123596618D01*
X150073809Y-123519209D01*
X149957695Y-123480504D01*
X149880285Y-123480504D01*
X149764171Y-123519209D01*
X149725466Y-123557913D01*
X148951371Y-124293304D02*
X149415828Y-124293304D01*
X149183600Y-124293304D02*
X149183600Y-123480504D01*
X149261009Y-123596618D01*
X149338419Y-123674028D01*
X149415828Y-123712732D01*
%TO.C,R119*%
X103484161Y-78319304D02*
X103755095Y-77932256D01*
X103948619Y-78319304D02*
X103948619Y-77506504D01*
X103638980Y-77506504D01*
X103561571Y-77545209D01*
X103522866Y-77583913D01*
X103484161Y-77661323D01*
X103484161Y-77777437D01*
X103522866Y-77854847D01*
X103561571Y-77893551D01*
X103638980Y-77932256D01*
X103948619Y-77932256D01*
X102710066Y-78319304D02*
X103174523Y-78319304D01*
X102942295Y-78319304D02*
X102942295Y-77506504D01*
X103019704Y-77622618D01*
X103097114Y-77700028D01*
X103174523Y-77738732D01*
X101935971Y-78319304D02*
X102400428Y-78319304D01*
X102168200Y-78319304D02*
X102168200Y-77506504D01*
X102245609Y-77622618D01*
X102323019Y-77700028D01*
X102400428Y-77738732D01*
X101548923Y-78319304D02*
X101394104Y-78319304D01*
X101316695Y-78280599D01*
X101277990Y-78241894D01*
X101200580Y-78125780D01*
X101161876Y-77970961D01*
X101161876Y-77661323D01*
X101200580Y-77583913D01*
X101239285Y-77545209D01*
X101316695Y-77506504D01*
X101471514Y-77506504D01*
X101548923Y-77545209D01*
X101587628Y-77583913D01*
X101626333Y-77661323D01*
X101626333Y-77854847D01*
X101587628Y-77932256D01*
X101548923Y-77970961D01*
X101471514Y-78009666D01*
X101316695Y-78009666D01*
X101239285Y-77970961D01*
X101200580Y-77932256D01*
X101161876Y-77854847D01*
%TO.C,R107*%
X110469161Y-102830304D02*
X110740095Y-102443256D01*
X110933619Y-102830304D02*
X110933619Y-102017504D01*
X110623980Y-102017504D01*
X110546571Y-102056209D01*
X110507866Y-102094913D01*
X110469161Y-102172323D01*
X110469161Y-102288437D01*
X110507866Y-102365847D01*
X110546571Y-102404551D01*
X110623980Y-102443256D01*
X110933619Y-102443256D01*
X109695066Y-102830304D02*
X110159523Y-102830304D01*
X109927295Y-102830304D02*
X109927295Y-102017504D01*
X110004704Y-102133618D01*
X110082114Y-102211028D01*
X110159523Y-102249732D01*
X109191904Y-102017504D02*
X109114495Y-102017504D01*
X109037085Y-102056209D01*
X108998380Y-102094913D01*
X108959676Y-102172323D01*
X108920971Y-102327142D01*
X108920971Y-102520666D01*
X108959676Y-102675485D01*
X108998380Y-102752894D01*
X109037085Y-102791599D01*
X109114495Y-102830304D01*
X109191904Y-102830304D01*
X109269314Y-102791599D01*
X109308019Y-102752894D01*
X109346723Y-102675485D01*
X109385428Y-102520666D01*
X109385428Y-102327142D01*
X109346723Y-102172323D01*
X109308019Y-102094913D01*
X109269314Y-102056209D01*
X109191904Y-102017504D01*
X108650038Y-102017504D02*
X108108171Y-102017504D01*
X108456514Y-102830304D01*
%TO.C,R130*%
X136427961Y-61987104D02*
X136698895Y-61600056D01*
X136892419Y-61987104D02*
X136892419Y-61174304D01*
X136582780Y-61174304D01*
X136505371Y-61213009D01*
X136466666Y-61251713D01*
X136427961Y-61329123D01*
X136427961Y-61445237D01*
X136466666Y-61522647D01*
X136505371Y-61561351D01*
X136582780Y-61600056D01*
X136892419Y-61600056D01*
X135653866Y-61987104D02*
X136118323Y-61987104D01*
X135886095Y-61987104D02*
X135886095Y-61174304D01*
X135963504Y-61290418D01*
X136040914Y-61367828D01*
X136118323Y-61406532D01*
X135382933Y-61174304D02*
X134879771Y-61174304D01*
X135150704Y-61483942D01*
X135034590Y-61483942D01*
X134957180Y-61522647D01*
X134918476Y-61561351D01*
X134879771Y-61638761D01*
X134879771Y-61832285D01*
X134918476Y-61909694D01*
X134957180Y-61948399D01*
X135034590Y-61987104D01*
X135266819Y-61987104D01*
X135344228Y-61948399D01*
X135382933Y-61909694D01*
X134376609Y-61174304D02*
X134299200Y-61174304D01*
X134221790Y-61213009D01*
X134183085Y-61251713D01*
X134144380Y-61329123D01*
X134105676Y-61483942D01*
X134105676Y-61677466D01*
X134144380Y-61832285D01*
X134183085Y-61909694D01*
X134221790Y-61948399D01*
X134299200Y-61987104D01*
X134376609Y-61987104D01*
X134454019Y-61948399D01*
X134492723Y-61909694D01*
X134531428Y-61832285D01*
X134570133Y-61677466D01*
X134570133Y-61483942D01*
X134531428Y-61329123D01*
X134492723Y-61251713D01*
X134454019Y-61213009D01*
X134376609Y-61174304D01*
%TO.C,Q11*%
X130750457Y-79819113D02*
X130827866Y-79780409D01*
X130905276Y-79702999D01*
X131021390Y-79586885D01*
X131098800Y-79548180D01*
X131176209Y-79548180D01*
X131137504Y-79741704D02*
X131214914Y-79702999D01*
X131292323Y-79625589D01*
X131331028Y-79470770D01*
X131331028Y-79199837D01*
X131292323Y-79045018D01*
X131214914Y-78967609D01*
X131137504Y-78928904D01*
X130982685Y-78928904D01*
X130905276Y-78967609D01*
X130827866Y-79045018D01*
X130789161Y-79199837D01*
X130789161Y-79470770D01*
X130827866Y-79625589D01*
X130905276Y-79702999D01*
X130982685Y-79741704D01*
X131137504Y-79741704D01*
X130015066Y-79741704D02*
X130479523Y-79741704D01*
X130247295Y-79741704D02*
X130247295Y-78928904D01*
X130324704Y-79045018D01*
X130402114Y-79122428D01*
X130479523Y-79161132D01*
X129240971Y-79741704D02*
X129705428Y-79741704D01*
X129473200Y-79741704D02*
X129473200Y-78928904D01*
X129550609Y-79045018D01*
X129628019Y-79122428D01*
X129705428Y-79161132D01*
%TO.C,Q5*%
X135773609Y-121144913D02*
X135851019Y-121106209D01*
X135928428Y-121028799D01*
X136044542Y-120912685D01*
X136121952Y-120873980D01*
X136199361Y-120873980D01*
X136160657Y-121067504D02*
X136238066Y-121028799D01*
X136315476Y-120951389D01*
X136354180Y-120796570D01*
X136354180Y-120525637D01*
X136315476Y-120370818D01*
X136238066Y-120293409D01*
X136160657Y-120254704D01*
X136005838Y-120254704D01*
X135928428Y-120293409D01*
X135851019Y-120370818D01*
X135812314Y-120525637D01*
X135812314Y-120796570D01*
X135851019Y-120951389D01*
X135928428Y-121028799D01*
X136005838Y-121067504D01*
X136160657Y-121067504D01*
X135076923Y-120254704D02*
X135463971Y-120254704D01*
X135502676Y-120641751D01*
X135463971Y-120603047D01*
X135386561Y-120564342D01*
X135193038Y-120564342D01*
X135115628Y-120603047D01*
X135076923Y-120641751D01*
X135038219Y-120719161D01*
X135038219Y-120912685D01*
X135076923Y-120990094D01*
X135115628Y-121028799D01*
X135193038Y-121067504D01*
X135386561Y-121067504D01*
X135463971Y-121028799D01*
X135502676Y-120990094D01*
%TO.C,R67*%
X135863114Y-124013904D02*
X136134047Y-123626856D01*
X136327571Y-124013904D02*
X136327571Y-123201104D01*
X136017933Y-123201104D01*
X135940523Y-123239809D01*
X135901819Y-123278513D01*
X135863114Y-123355923D01*
X135863114Y-123472037D01*
X135901819Y-123549447D01*
X135940523Y-123588151D01*
X136017933Y-123626856D01*
X136327571Y-123626856D01*
X135166428Y-123201104D02*
X135321247Y-123201104D01*
X135398657Y-123239809D01*
X135437361Y-123278513D01*
X135514771Y-123394628D01*
X135553476Y-123549447D01*
X135553476Y-123859085D01*
X135514771Y-123936494D01*
X135476066Y-123975199D01*
X135398657Y-124013904D01*
X135243838Y-124013904D01*
X135166428Y-123975199D01*
X135127723Y-123936494D01*
X135089019Y-123859085D01*
X135089019Y-123665561D01*
X135127723Y-123588151D01*
X135166428Y-123549447D01*
X135243838Y-123510742D01*
X135398657Y-123510742D01*
X135476066Y-123549447D01*
X135514771Y-123588151D01*
X135553476Y-123665561D01*
X134818085Y-123201104D02*
X134276219Y-123201104D01*
X134624561Y-124013904D01*
%TO.C,R115*%
X93958295Y-59465247D02*
X93571247Y-59194313D01*
X93958295Y-59000789D02*
X93145495Y-59000789D01*
X93145495Y-59310428D01*
X93184200Y-59387837D01*
X93222904Y-59426542D01*
X93300314Y-59465247D01*
X93416428Y-59465247D01*
X93493838Y-59426542D01*
X93532542Y-59387837D01*
X93571247Y-59310428D01*
X93571247Y-59000789D01*
X93958295Y-60239342D02*
X93958295Y-59774885D01*
X93958295Y-60007113D02*
X93145495Y-60007113D01*
X93261609Y-59929704D01*
X93339019Y-59852294D01*
X93377723Y-59774885D01*
X93958295Y-61013437D02*
X93958295Y-60548980D01*
X93958295Y-60781209D02*
X93145495Y-60781209D01*
X93261609Y-60703799D01*
X93339019Y-60626389D01*
X93377723Y-60548980D01*
X93145495Y-61748828D02*
X93145495Y-61361780D01*
X93532542Y-61323075D01*
X93493838Y-61361780D01*
X93455133Y-61439189D01*
X93455133Y-61632713D01*
X93493838Y-61710123D01*
X93532542Y-61748828D01*
X93609952Y-61787532D01*
X93803476Y-61787532D01*
X93880885Y-61748828D01*
X93919590Y-61710123D01*
X93958295Y-61632713D01*
X93958295Y-61439189D01*
X93919590Y-61361780D01*
X93880885Y-61323075D01*
%TO.C,Q4*%
X82382809Y-129374513D02*
X82460219Y-129335809D01*
X82537628Y-129258399D01*
X82653742Y-129142285D01*
X82731152Y-129103580D01*
X82808561Y-129103580D01*
X82769857Y-129297104D02*
X82847266Y-129258399D01*
X82924676Y-129180989D01*
X82963380Y-129026170D01*
X82963380Y-128755237D01*
X82924676Y-128600418D01*
X82847266Y-128523009D01*
X82769857Y-128484304D01*
X82615038Y-128484304D01*
X82537628Y-128523009D01*
X82460219Y-128600418D01*
X82421514Y-128755237D01*
X82421514Y-129026170D01*
X82460219Y-129180989D01*
X82537628Y-129258399D01*
X82615038Y-129297104D01*
X82769857Y-129297104D01*
X81724828Y-128755237D02*
X81724828Y-129297104D01*
X81918352Y-128445599D02*
X82111876Y-129026170D01*
X81608714Y-129026170D01*
%TO.C,D1*%
X139902923Y-117790904D02*
X139902923Y-116978104D01*
X139709400Y-116978104D01*
X139593285Y-117016809D01*
X139515876Y-117094218D01*
X139477171Y-117171628D01*
X139438466Y-117326447D01*
X139438466Y-117442561D01*
X139477171Y-117597380D01*
X139515876Y-117674789D01*
X139593285Y-117752199D01*
X139709400Y-117790904D01*
X139902923Y-117790904D01*
X138664371Y-117790904D02*
X139128828Y-117790904D01*
X138896600Y-117790904D02*
X138896600Y-116978104D01*
X138974009Y-117094218D01*
X139051419Y-117171628D01*
X139128828Y-117210332D01*
%TO.C,R23*%
X89203314Y-121473904D02*
X89474247Y-121086856D01*
X89667771Y-121473904D02*
X89667771Y-120661104D01*
X89358133Y-120661104D01*
X89280723Y-120699809D01*
X89242019Y-120738513D01*
X89203314Y-120815923D01*
X89203314Y-120932037D01*
X89242019Y-121009447D01*
X89280723Y-121048151D01*
X89358133Y-121086856D01*
X89667771Y-121086856D01*
X88893676Y-120738513D02*
X88854971Y-120699809D01*
X88777561Y-120661104D01*
X88584038Y-120661104D01*
X88506628Y-120699809D01*
X88467923Y-120738513D01*
X88429219Y-120815923D01*
X88429219Y-120893332D01*
X88467923Y-121009447D01*
X88932380Y-121473904D01*
X88429219Y-121473904D01*
X88158285Y-120661104D02*
X87655123Y-120661104D01*
X87926057Y-120970742D01*
X87809942Y-120970742D01*
X87732533Y-121009447D01*
X87693828Y-121048151D01*
X87655123Y-121125561D01*
X87655123Y-121319085D01*
X87693828Y-121396494D01*
X87732533Y-121435199D01*
X87809942Y-121473904D01*
X88042171Y-121473904D01*
X88119580Y-121435199D01*
X88158285Y-121396494D01*
%TO.C,R118*%
X119613161Y-71004104D02*
X119884095Y-70617056D01*
X120077619Y-71004104D02*
X120077619Y-70191304D01*
X119767980Y-70191304D01*
X119690571Y-70230009D01*
X119651866Y-70268713D01*
X119613161Y-70346123D01*
X119613161Y-70462237D01*
X119651866Y-70539647D01*
X119690571Y-70578351D01*
X119767980Y-70617056D01*
X120077619Y-70617056D01*
X118839066Y-71004104D02*
X119303523Y-71004104D01*
X119071295Y-71004104D02*
X119071295Y-70191304D01*
X119148704Y-70307418D01*
X119226114Y-70384828D01*
X119303523Y-70423532D01*
X118064971Y-71004104D02*
X118529428Y-71004104D01*
X118297200Y-71004104D02*
X118297200Y-70191304D01*
X118374609Y-70307418D01*
X118452019Y-70384828D01*
X118529428Y-70423532D01*
X117600514Y-70539647D02*
X117677923Y-70500942D01*
X117716628Y-70462237D01*
X117755333Y-70384828D01*
X117755333Y-70346123D01*
X117716628Y-70268713D01*
X117677923Y-70230009D01*
X117600514Y-70191304D01*
X117445695Y-70191304D01*
X117368285Y-70230009D01*
X117329580Y-70268713D01*
X117290876Y-70346123D01*
X117290876Y-70384828D01*
X117329580Y-70462237D01*
X117368285Y-70500942D01*
X117445695Y-70539647D01*
X117600514Y-70539647D01*
X117677923Y-70578351D01*
X117716628Y-70617056D01*
X117755333Y-70694466D01*
X117755333Y-70849285D01*
X117716628Y-70926694D01*
X117677923Y-70965399D01*
X117600514Y-71004104D01*
X117445695Y-71004104D01*
X117368285Y-70965399D01*
X117329580Y-70926694D01*
X117290876Y-70849285D01*
X117290876Y-70694466D01*
X117329580Y-70617056D01*
X117368285Y-70578351D01*
X117445695Y-70539647D01*
%TO.C,R68*%
X154951714Y-125367704D02*
X155222647Y-124980656D01*
X155416171Y-125367704D02*
X155416171Y-124554904D01*
X155106533Y-124554904D01*
X155029123Y-124593609D01*
X154990419Y-124632313D01*
X154951714Y-124709723D01*
X154951714Y-124825837D01*
X154990419Y-124903247D01*
X155029123Y-124941951D01*
X155106533Y-124980656D01*
X155416171Y-124980656D01*
X154255028Y-124554904D02*
X154409847Y-124554904D01*
X154487257Y-124593609D01*
X154525961Y-124632313D01*
X154603371Y-124748428D01*
X154642076Y-124903247D01*
X154642076Y-125212885D01*
X154603371Y-125290294D01*
X154564666Y-125328999D01*
X154487257Y-125367704D01*
X154332438Y-125367704D01*
X154255028Y-125328999D01*
X154216323Y-125290294D01*
X154177619Y-125212885D01*
X154177619Y-125019361D01*
X154216323Y-124941951D01*
X154255028Y-124903247D01*
X154332438Y-124864542D01*
X154487257Y-124864542D01*
X154564666Y-124903247D01*
X154603371Y-124941951D01*
X154642076Y-125019361D01*
X153713161Y-124903247D02*
X153790571Y-124864542D01*
X153829276Y-124825837D01*
X153867980Y-124748428D01*
X153867980Y-124709723D01*
X153829276Y-124632313D01*
X153790571Y-124593609D01*
X153713161Y-124554904D01*
X153558342Y-124554904D01*
X153480933Y-124593609D01*
X153442228Y-124632313D01*
X153403523Y-124709723D01*
X153403523Y-124748428D01*
X153442228Y-124825837D01*
X153480933Y-124864542D01*
X153558342Y-124903247D01*
X153713161Y-124903247D01*
X153790571Y-124941951D01*
X153829276Y-124980656D01*
X153867980Y-125058066D01*
X153867980Y-125212885D01*
X153829276Y-125290294D01*
X153790571Y-125328999D01*
X153713161Y-125367704D01*
X153558342Y-125367704D01*
X153480933Y-125328999D01*
X153442228Y-125290294D01*
X153403523Y-125212885D01*
X153403523Y-125058066D01*
X153442228Y-124980656D01*
X153480933Y-124941951D01*
X153558342Y-124903247D01*
%TO.C,Q1*%
X91120409Y-125208913D02*
X91197819Y-125170209D01*
X91275228Y-125092799D01*
X91391342Y-124976685D01*
X91468752Y-124937980D01*
X91546161Y-124937980D01*
X91507457Y-125131504D02*
X91584866Y-125092799D01*
X91662276Y-125015389D01*
X91700980Y-124860570D01*
X91700980Y-124589637D01*
X91662276Y-124434818D01*
X91584866Y-124357409D01*
X91507457Y-124318704D01*
X91352638Y-124318704D01*
X91275228Y-124357409D01*
X91197819Y-124434818D01*
X91159114Y-124589637D01*
X91159114Y-124860570D01*
X91197819Y-125015389D01*
X91275228Y-125092799D01*
X91352638Y-125131504D01*
X91507457Y-125131504D01*
X90385019Y-125131504D02*
X90849476Y-125131504D01*
X90617247Y-125131504D02*
X90617247Y-124318704D01*
X90694657Y-124434818D01*
X90772066Y-124512228D01*
X90849476Y-124550932D01*
%TO.C,RV1*%
X147584609Y-116800304D02*
X147855542Y-116413256D01*
X148049066Y-116800304D02*
X148049066Y-115987504D01*
X147739428Y-115987504D01*
X147662019Y-116026209D01*
X147623314Y-116064913D01*
X147584609Y-116142323D01*
X147584609Y-116258437D01*
X147623314Y-116335847D01*
X147662019Y-116374551D01*
X147739428Y-116413256D01*
X148049066Y-116413256D01*
X147352380Y-115987504D02*
X147081447Y-116800304D01*
X146810514Y-115987504D01*
X146113828Y-116800304D02*
X146578285Y-116800304D01*
X146346057Y-116800304D02*
X146346057Y-115987504D01*
X146423466Y-116103618D01*
X146500876Y-116181028D01*
X146578285Y-116219732D01*
%TO.C,R125*%
X122635761Y-76414304D02*
X122906695Y-76027256D01*
X123100219Y-76414304D02*
X123100219Y-75601504D01*
X122790580Y-75601504D01*
X122713171Y-75640209D01*
X122674466Y-75678913D01*
X122635761Y-75756323D01*
X122635761Y-75872437D01*
X122674466Y-75949847D01*
X122713171Y-75988551D01*
X122790580Y-76027256D01*
X123100219Y-76027256D01*
X121861666Y-76414304D02*
X122326123Y-76414304D01*
X122093895Y-76414304D02*
X122093895Y-75601504D01*
X122171304Y-75717618D01*
X122248714Y-75795028D01*
X122326123Y-75833732D01*
X121552028Y-75678913D02*
X121513323Y-75640209D01*
X121435914Y-75601504D01*
X121242390Y-75601504D01*
X121164980Y-75640209D01*
X121126276Y-75678913D01*
X121087571Y-75756323D01*
X121087571Y-75833732D01*
X121126276Y-75949847D01*
X121590733Y-76414304D01*
X121087571Y-76414304D01*
X120352180Y-75601504D02*
X120739228Y-75601504D01*
X120777933Y-75988551D01*
X120739228Y-75949847D01*
X120661819Y-75911142D01*
X120468295Y-75911142D01*
X120390885Y-75949847D01*
X120352180Y-75988551D01*
X120313476Y-76065961D01*
X120313476Y-76259485D01*
X120352180Y-76336894D01*
X120390885Y-76375599D01*
X120468295Y-76414304D01*
X120661819Y-76414304D01*
X120739228Y-76375599D01*
X120777933Y-76336894D01*
%TO.C,R122*%
X106735361Y-82001304D02*
X107006295Y-81614256D01*
X107199819Y-82001304D02*
X107199819Y-81188504D01*
X106890180Y-81188504D01*
X106812771Y-81227209D01*
X106774066Y-81265913D01*
X106735361Y-81343323D01*
X106735361Y-81459437D01*
X106774066Y-81536847D01*
X106812771Y-81575551D01*
X106890180Y-81614256D01*
X107199819Y-81614256D01*
X105961266Y-82001304D02*
X106425723Y-82001304D01*
X106193495Y-82001304D02*
X106193495Y-81188504D01*
X106270904Y-81304618D01*
X106348314Y-81382028D01*
X106425723Y-81420732D01*
X105651628Y-81265913D02*
X105612923Y-81227209D01*
X105535514Y-81188504D01*
X105341990Y-81188504D01*
X105264580Y-81227209D01*
X105225876Y-81265913D01*
X105187171Y-81343323D01*
X105187171Y-81420732D01*
X105225876Y-81536847D01*
X105690333Y-82001304D01*
X105187171Y-82001304D01*
X104877533Y-81265913D02*
X104838828Y-81227209D01*
X104761419Y-81188504D01*
X104567895Y-81188504D01*
X104490485Y-81227209D01*
X104451780Y-81265913D01*
X104413076Y-81343323D01*
X104413076Y-81420732D01*
X104451780Y-81536847D01*
X104916238Y-82001304D01*
X104413076Y-82001304D01*
%TO.C,R129*%
X124862495Y-74171847D02*
X124475447Y-73900913D01*
X124862495Y-73707389D02*
X124049695Y-73707389D01*
X124049695Y-74017028D01*
X124088400Y-74094437D01*
X124127104Y-74133142D01*
X124204514Y-74171847D01*
X124320628Y-74171847D01*
X124398038Y-74133142D01*
X124436742Y-74094437D01*
X124475447Y-74017028D01*
X124475447Y-73707389D01*
X124862495Y-74945942D02*
X124862495Y-74481485D01*
X124862495Y-74713713D02*
X124049695Y-74713713D01*
X124165809Y-74636304D01*
X124243219Y-74558894D01*
X124281923Y-74481485D01*
X124127104Y-75255580D02*
X124088400Y-75294285D01*
X124049695Y-75371694D01*
X124049695Y-75565218D01*
X124088400Y-75642628D01*
X124127104Y-75681332D01*
X124204514Y-75720037D01*
X124281923Y-75720037D01*
X124398038Y-75681332D01*
X124862495Y-75216875D01*
X124862495Y-75720037D01*
X124862495Y-76107085D02*
X124862495Y-76261904D01*
X124823790Y-76339313D01*
X124785085Y-76378018D01*
X124668971Y-76455428D01*
X124514152Y-76494132D01*
X124204514Y-76494132D01*
X124127104Y-76455428D01*
X124088400Y-76416723D01*
X124049695Y-76339313D01*
X124049695Y-76184494D01*
X124088400Y-76107085D01*
X124127104Y-76068380D01*
X124204514Y-76029675D01*
X124398038Y-76029675D01*
X124475447Y-76068380D01*
X124514152Y-76107085D01*
X124552857Y-76184494D01*
X124552857Y-76339313D01*
X124514152Y-76416723D01*
X124475447Y-76455428D01*
X124398038Y-76494132D01*
%TO.C,R40*%
X85215514Y-133800504D02*
X85486447Y-133413456D01*
X85679971Y-133800504D02*
X85679971Y-132987704D01*
X85370333Y-132987704D01*
X85292923Y-133026409D01*
X85254219Y-133065113D01*
X85215514Y-133142523D01*
X85215514Y-133258637D01*
X85254219Y-133336047D01*
X85292923Y-133374751D01*
X85370333Y-133413456D01*
X85679971Y-133413456D01*
X84518828Y-133258637D02*
X84518828Y-133800504D01*
X84712352Y-132948999D02*
X84905876Y-133529570D01*
X84402714Y-133529570D01*
X83938257Y-132987704D02*
X83860847Y-132987704D01*
X83783438Y-133026409D01*
X83744733Y-133065113D01*
X83706028Y-133142523D01*
X83667323Y-133297342D01*
X83667323Y-133490866D01*
X83706028Y-133645685D01*
X83744733Y-133723094D01*
X83783438Y-133761799D01*
X83860847Y-133800504D01*
X83938257Y-133800504D01*
X84015666Y-133761799D01*
X84054371Y-133723094D01*
X84093076Y-133645685D01*
X84131780Y-133490866D01*
X84131780Y-133297342D01*
X84093076Y-133142523D01*
X84054371Y-133065113D01*
X84015666Y-133026409D01*
X83938257Y-132987704D01*
%TO.C,R126*%
X121281095Y-77372247D02*
X120894047Y-77101313D01*
X121281095Y-76907789D02*
X120468295Y-76907789D01*
X120468295Y-77217428D01*
X120507000Y-77294837D01*
X120545704Y-77333542D01*
X120623114Y-77372247D01*
X120739228Y-77372247D01*
X120816638Y-77333542D01*
X120855342Y-77294837D01*
X120894047Y-77217428D01*
X120894047Y-76907789D01*
X121281095Y-78146342D02*
X121281095Y-77681885D01*
X121281095Y-77914113D02*
X120468295Y-77914113D01*
X120584409Y-77836704D01*
X120661819Y-77759294D01*
X120700523Y-77681885D01*
X120545704Y-78455980D02*
X120507000Y-78494685D01*
X120468295Y-78572094D01*
X120468295Y-78765618D01*
X120507000Y-78843028D01*
X120545704Y-78881732D01*
X120623114Y-78920437D01*
X120700523Y-78920437D01*
X120816638Y-78881732D01*
X121281095Y-78417275D01*
X121281095Y-78920437D01*
X120468295Y-79617123D02*
X120468295Y-79462304D01*
X120507000Y-79384894D01*
X120545704Y-79346189D01*
X120661819Y-79268780D01*
X120816638Y-79230075D01*
X121126276Y-79230075D01*
X121203685Y-79268780D01*
X121242390Y-79307485D01*
X121281095Y-79384894D01*
X121281095Y-79539713D01*
X121242390Y-79617123D01*
X121203685Y-79655828D01*
X121126276Y-79694532D01*
X120932752Y-79694532D01*
X120855342Y-79655828D01*
X120816638Y-79617123D01*
X120777933Y-79539713D01*
X120777933Y-79384894D01*
X120816638Y-79307485D01*
X120855342Y-79268780D01*
X120932752Y-79230075D01*
%TO.C,R30*%
X86002914Y-121270704D02*
X86273847Y-120883656D01*
X86467371Y-121270704D02*
X86467371Y-120457904D01*
X86157733Y-120457904D01*
X86080323Y-120496609D01*
X86041619Y-120535313D01*
X86002914Y-120612723D01*
X86002914Y-120728837D01*
X86041619Y-120806247D01*
X86080323Y-120844951D01*
X86157733Y-120883656D01*
X86467371Y-120883656D01*
X85731980Y-120457904D02*
X85228819Y-120457904D01*
X85499752Y-120767542D01*
X85383638Y-120767542D01*
X85306228Y-120806247D01*
X85267523Y-120844951D01*
X85228819Y-120922361D01*
X85228819Y-121115885D01*
X85267523Y-121193294D01*
X85306228Y-121231999D01*
X85383638Y-121270704D01*
X85615866Y-121270704D01*
X85693276Y-121231999D01*
X85731980Y-121193294D01*
X84725657Y-120457904D02*
X84648247Y-120457904D01*
X84570838Y-120496609D01*
X84532133Y-120535313D01*
X84493428Y-120612723D01*
X84454723Y-120767542D01*
X84454723Y-120961066D01*
X84493428Y-121115885D01*
X84532133Y-121193294D01*
X84570838Y-121231999D01*
X84648247Y-121270704D01*
X84725657Y-121270704D01*
X84803066Y-121231999D01*
X84841771Y-121193294D01*
X84880476Y-121115885D01*
X84919180Y-120961066D01*
X84919180Y-120767542D01*
X84880476Y-120612723D01*
X84841771Y-120535313D01*
X84803066Y-120496609D01*
X84725657Y-120457904D01*
%TO.C,R89*%
X127227114Y-103922504D02*
X127498047Y-103535456D01*
X127691571Y-103922504D02*
X127691571Y-103109704D01*
X127381933Y-103109704D01*
X127304523Y-103148409D01*
X127265819Y-103187113D01*
X127227114Y-103264523D01*
X127227114Y-103380637D01*
X127265819Y-103458047D01*
X127304523Y-103496751D01*
X127381933Y-103535456D01*
X127691571Y-103535456D01*
X126762657Y-103458047D02*
X126840066Y-103419342D01*
X126878771Y-103380637D01*
X126917476Y-103303228D01*
X126917476Y-103264523D01*
X126878771Y-103187113D01*
X126840066Y-103148409D01*
X126762657Y-103109704D01*
X126607838Y-103109704D01*
X126530428Y-103148409D01*
X126491723Y-103187113D01*
X126453019Y-103264523D01*
X126453019Y-103303228D01*
X126491723Y-103380637D01*
X126530428Y-103419342D01*
X126607838Y-103458047D01*
X126762657Y-103458047D01*
X126840066Y-103496751D01*
X126878771Y-103535456D01*
X126917476Y-103612866D01*
X126917476Y-103767685D01*
X126878771Y-103845094D01*
X126840066Y-103883799D01*
X126762657Y-103922504D01*
X126607838Y-103922504D01*
X126530428Y-103883799D01*
X126491723Y-103845094D01*
X126453019Y-103767685D01*
X126453019Y-103612866D01*
X126491723Y-103535456D01*
X126530428Y-103496751D01*
X126607838Y-103458047D01*
X126065971Y-103922504D02*
X125911152Y-103922504D01*
X125833742Y-103883799D01*
X125795038Y-103845094D01*
X125717628Y-103728980D01*
X125678923Y-103574161D01*
X125678923Y-103264523D01*
X125717628Y-103187113D01*
X125756333Y-103148409D01*
X125833742Y-103109704D01*
X125988561Y-103109704D01*
X126065971Y-103148409D01*
X126104676Y-103187113D01*
X126143380Y-103264523D01*
X126143380Y-103458047D01*
X126104676Y-103535456D01*
X126065971Y-103574161D01*
X125988561Y-103612866D01*
X125833742Y-103612866D01*
X125756333Y-103574161D01*
X125717628Y-103535456D01*
X125678923Y-103458047D01*
%TO.C,R120*%
X103433361Y-76338104D02*
X103704295Y-75951056D01*
X103897819Y-76338104D02*
X103897819Y-75525304D01*
X103588180Y-75525304D01*
X103510771Y-75564009D01*
X103472066Y-75602713D01*
X103433361Y-75680123D01*
X103433361Y-75796237D01*
X103472066Y-75873647D01*
X103510771Y-75912351D01*
X103588180Y-75951056D01*
X103897819Y-75951056D01*
X102659266Y-76338104D02*
X103123723Y-76338104D01*
X102891495Y-76338104D02*
X102891495Y-75525304D01*
X102968904Y-75641418D01*
X103046314Y-75718828D01*
X103123723Y-75757532D01*
X102349628Y-75602713D02*
X102310923Y-75564009D01*
X102233514Y-75525304D01*
X102039990Y-75525304D01*
X101962580Y-75564009D01*
X101923876Y-75602713D01*
X101885171Y-75680123D01*
X101885171Y-75757532D01*
X101923876Y-75873647D01*
X102388333Y-76338104D01*
X101885171Y-76338104D01*
X101382009Y-75525304D02*
X101304600Y-75525304D01*
X101227190Y-75564009D01*
X101188485Y-75602713D01*
X101149780Y-75680123D01*
X101111076Y-75834942D01*
X101111076Y-76028466D01*
X101149780Y-76183285D01*
X101188485Y-76260694D01*
X101227190Y-76299399D01*
X101304600Y-76338104D01*
X101382009Y-76338104D01*
X101459419Y-76299399D01*
X101498123Y-76260694D01*
X101536828Y-76183285D01*
X101575533Y-76028466D01*
X101575533Y-75834942D01*
X101536828Y-75680123D01*
X101498123Y-75602713D01*
X101459419Y-75564009D01*
X101382009Y-75525304D01*
%TO.C,R88*%
X127404914Y-102017504D02*
X127675847Y-101630456D01*
X127869371Y-102017504D02*
X127869371Y-101204704D01*
X127559733Y-101204704D01*
X127482323Y-101243409D01*
X127443619Y-101282113D01*
X127404914Y-101359523D01*
X127404914Y-101475637D01*
X127443619Y-101553047D01*
X127482323Y-101591751D01*
X127559733Y-101630456D01*
X127869371Y-101630456D01*
X126940457Y-101553047D02*
X127017866Y-101514342D01*
X127056571Y-101475637D01*
X127095276Y-101398228D01*
X127095276Y-101359523D01*
X127056571Y-101282113D01*
X127017866Y-101243409D01*
X126940457Y-101204704D01*
X126785638Y-101204704D01*
X126708228Y-101243409D01*
X126669523Y-101282113D01*
X126630819Y-101359523D01*
X126630819Y-101398228D01*
X126669523Y-101475637D01*
X126708228Y-101514342D01*
X126785638Y-101553047D01*
X126940457Y-101553047D01*
X127017866Y-101591751D01*
X127056571Y-101630456D01*
X127095276Y-101707866D01*
X127095276Y-101862685D01*
X127056571Y-101940094D01*
X127017866Y-101978799D01*
X126940457Y-102017504D01*
X126785638Y-102017504D01*
X126708228Y-101978799D01*
X126669523Y-101940094D01*
X126630819Y-101862685D01*
X126630819Y-101707866D01*
X126669523Y-101630456D01*
X126708228Y-101591751D01*
X126785638Y-101553047D01*
X126166361Y-101553047D02*
X126243771Y-101514342D01*
X126282476Y-101475637D01*
X126321180Y-101398228D01*
X126321180Y-101359523D01*
X126282476Y-101282113D01*
X126243771Y-101243409D01*
X126166361Y-101204704D01*
X126011542Y-101204704D01*
X125934133Y-101243409D01*
X125895428Y-101282113D01*
X125856723Y-101359523D01*
X125856723Y-101398228D01*
X125895428Y-101475637D01*
X125934133Y-101514342D01*
X126011542Y-101553047D01*
X126166361Y-101553047D01*
X126243771Y-101591751D01*
X126282476Y-101630456D01*
X126321180Y-101707866D01*
X126321180Y-101862685D01*
X126282476Y-101940094D01*
X126243771Y-101978799D01*
X126166361Y-102017504D01*
X126011542Y-102017504D01*
X125934133Y-101978799D01*
X125895428Y-101940094D01*
X125856723Y-101862685D01*
X125856723Y-101707866D01*
X125895428Y-101630456D01*
X125934133Y-101591751D01*
X126011542Y-101553047D01*
%TO.C,R106*%
X110367561Y-104303504D02*
X110638495Y-103916456D01*
X110832019Y-104303504D02*
X110832019Y-103490704D01*
X110522380Y-103490704D01*
X110444971Y-103529409D01*
X110406266Y-103568113D01*
X110367561Y-103645523D01*
X110367561Y-103761637D01*
X110406266Y-103839047D01*
X110444971Y-103877751D01*
X110522380Y-103916456D01*
X110832019Y-103916456D01*
X109593466Y-104303504D02*
X110057923Y-104303504D01*
X109825695Y-104303504D02*
X109825695Y-103490704D01*
X109903104Y-103606818D01*
X109980514Y-103684228D01*
X110057923Y-103722932D01*
X109090304Y-103490704D02*
X109012895Y-103490704D01*
X108935485Y-103529409D01*
X108896780Y-103568113D01*
X108858076Y-103645523D01*
X108819371Y-103800342D01*
X108819371Y-103993866D01*
X108858076Y-104148685D01*
X108896780Y-104226094D01*
X108935485Y-104264799D01*
X109012895Y-104303504D01*
X109090304Y-104303504D01*
X109167714Y-104264799D01*
X109206419Y-104226094D01*
X109245123Y-104148685D01*
X109283828Y-103993866D01*
X109283828Y-103800342D01*
X109245123Y-103645523D01*
X109206419Y-103568113D01*
X109167714Y-103529409D01*
X109090304Y-103490704D01*
X108122685Y-103490704D02*
X108277504Y-103490704D01*
X108354914Y-103529409D01*
X108393619Y-103568113D01*
X108471028Y-103684228D01*
X108509733Y-103839047D01*
X108509733Y-104148685D01*
X108471028Y-104226094D01*
X108432323Y-104264799D01*
X108354914Y-104303504D01*
X108200095Y-104303504D01*
X108122685Y-104264799D01*
X108083980Y-104226094D01*
X108045276Y-104148685D01*
X108045276Y-103955161D01*
X108083980Y-103877751D01*
X108122685Y-103839047D01*
X108200095Y-103800342D01*
X108354914Y-103800342D01*
X108432323Y-103839047D01*
X108471028Y-103877751D01*
X108509733Y-103955161D01*
%TO.C,J2*%
X137922933Y-127163504D02*
X137922933Y-127744075D01*
X137961638Y-127860189D01*
X138039047Y-127937599D01*
X138155161Y-127976304D01*
X138232571Y-127976304D01*
X137574590Y-127240913D02*
X137535885Y-127202209D01*
X137458476Y-127163504D01*
X137264952Y-127163504D01*
X137187542Y-127202209D01*
X137148838Y-127240913D01*
X137110133Y-127318323D01*
X137110133Y-127395732D01*
X137148838Y-127511847D01*
X137613295Y-127976304D01*
X137110133Y-127976304D01*
%TO.C,R127*%
X119562361Y-69505504D02*
X119833295Y-69118456D01*
X120026819Y-69505504D02*
X120026819Y-68692704D01*
X119717180Y-68692704D01*
X119639771Y-68731409D01*
X119601066Y-68770113D01*
X119562361Y-68847523D01*
X119562361Y-68963637D01*
X119601066Y-69041047D01*
X119639771Y-69079751D01*
X119717180Y-69118456D01*
X120026819Y-69118456D01*
X118788266Y-69505504D02*
X119252723Y-69505504D01*
X119020495Y-69505504D02*
X119020495Y-68692704D01*
X119097904Y-68808818D01*
X119175314Y-68886228D01*
X119252723Y-68924932D01*
X118478628Y-68770113D02*
X118439923Y-68731409D01*
X118362514Y-68692704D01*
X118168990Y-68692704D01*
X118091580Y-68731409D01*
X118052876Y-68770113D01*
X118014171Y-68847523D01*
X118014171Y-68924932D01*
X118052876Y-69041047D01*
X118517333Y-69505504D01*
X118014171Y-69505504D01*
X117743238Y-68692704D02*
X117201371Y-68692704D01*
X117549714Y-69505504D01*
%TO.C,R117*%
X108936695Y-69525547D02*
X108549647Y-69254613D01*
X108936695Y-69061089D02*
X108123895Y-69061089D01*
X108123895Y-69370728D01*
X108162600Y-69448137D01*
X108201304Y-69486842D01*
X108278714Y-69525547D01*
X108394828Y-69525547D01*
X108472238Y-69486842D01*
X108510942Y-69448137D01*
X108549647Y-69370728D01*
X108549647Y-69061089D01*
X108936695Y-70299642D02*
X108936695Y-69835185D01*
X108936695Y-70067413D02*
X108123895Y-70067413D01*
X108240009Y-69990004D01*
X108317419Y-69912594D01*
X108356123Y-69835185D01*
X108936695Y-71073737D02*
X108936695Y-70609280D01*
X108936695Y-70841509D02*
X108123895Y-70841509D01*
X108240009Y-70764099D01*
X108317419Y-70686689D01*
X108356123Y-70609280D01*
X108123895Y-71344670D02*
X108123895Y-71886537D01*
X108936695Y-71538194D01*
%TO.C,J5*%
X59783033Y-52864504D02*
X59783033Y-53445075D01*
X59821738Y-53561189D01*
X59899147Y-53638599D01*
X60015261Y-53677304D01*
X60092671Y-53677304D01*
X59008938Y-52864504D02*
X59395985Y-52864504D01*
X59434690Y-53251551D01*
X59395985Y-53212847D01*
X59318576Y-53174142D01*
X59125052Y-53174142D01*
X59047642Y-53212847D01*
X59008938Y-53251551D01*
X58970233Y-53328961D01*
X58970233Y-53522485D01*
X59008938Y-53599894D01*
X59047642Y-53638599D01*
X59125052Y-53677304D01*
X59318576Y-53677304D01*
X59395985Y-53638599D01*
X59434690Y-53599894D01*
%TO.C,R105*%
X110342161Y-105954504D02*
X110613095Y-105567456D01*
X110806619Y-105954504D02*
X110806619Y-105141704D01*
X110496980Y-105141704D01*
X110419571Y-105180409D01*
X110380866Y-105219113D01*
X110342161Y-105296523D01*
X110342161Y-105412637D01*
X110380866Y-105490047D01*
X110419571Y-105528751D01*
X110496980Y-105567456D01*
X110806619Y-105567456D01*
X109568066Y-105954504D02*
X110032523Y-105954504D01*
X109800295Y-105954504D02*
X109800295Y-105141704D01*
X109877704Y-105257818D01*
X109955114Y-105335228D01*
X110032523Y-105373932D01*
X109064904Y-105141704D02*
X108987495Y-105141704D01*
X108910085Y-105180409D01*
X108871380Y-105219113D01*
X108832676Y-105296523D01*
X108793971Y-105451342D01*
X108793971Y-105644866D01*
X108832676Y-105799685D01*
X108871380Y-105877094D01*
X108910085Y-105915799D01*
X108987495Y-105954504D01*
X109064904Y-105954504D01*
X109142314Y-105915799D01*
X109181019Y-105877094D01*
X109219723Y-105799685D01*
X109258428Y-105644866D01*
X109258428Y-105451342D01*
X109219723Y-105296523D01*
X109181019Y-105219113D01*
X109142314Y-105180409D01*
X109064904Y-105141704D01*
X108058580Y-105141704D02*
X108445628Y-105141704D01*
X108484333Y-105528751D01*
X108445628Y-105490047D01*
X108368219Y-105451342D01*
X108174695Y-105451342D01*
X108097285Y-105490047D01*
X108058580Y-105528751D01*
X108019876Y-105606161D01*
X108019876Y-105799685D01*
X108058580Y-105877094D01*
X108097285Y-105915799D01*
X108174695Y-105954504D01*
X108368219Y-105954504D01*
X108445628Y-105915799D01*
X108484333Y-105877094D01*
D12*
%TO.C,R114*%
X88994258Y-62646309D02*
X88519742Y-62646309D01*
X88994258Y-63691309D02*
X88519742Y-63691309D01*
%TO.C,R60*%
X158355300Y-118557551D02*
X158355300Y-119032067D01*
X157310300Y-118557551D02*
X157310300Y-119032067D01*
%TO.C,R98*%
X112199600Y-45336473D02*
X112199600Y-44882345D01*
X110729600Y-45336473D02*
X110729600Y-44882345D01*
%TO.C,R123*%
X118651264Y-73305009D02*
X118197136Y-73305009D01*
X118651264Y-74775009D02*
X118197136Y-74775009D01*
%TO.C,R128*%
X128039900Y-75433467D02*
X128039900Y-74958951D01*
X126994900Y-75433467D02*
X126994900Y-74958951D01*
%TO.C,J1*%
X82036600Y-133562809D02*
X82036600Y-125362809D01*
X73836600Y-133562809D02*
X73836600Y-125362809D01*
X73836600Y-125362809D02*
X82036600Y-125362809D01*
X73836600Y-133562809D02*
X82036600Y-133562809D01*
X74336600Y-129462809D02*
X73836600Y-129962809D01*
X73836600Y-128962809D02*
X74336600Y-129462809D01*
%TO.C,Q8*%
X89214200Y-58891009D02*
X90889200Y-58891009D01*
X89214200Y-58891009D02*
X88564200Y-58891009D01*
X89214200Y-62011009D02*
X89864200Y-62011009D01*
X89214200Y-62011009D02*
X88564200Y-62011009D01*
%TO.C,U3*%
X111439200Y-74888809D02*
X109639200Y-74888809D01*
X111439200Y-71768809D02*
X112239200Y-71768809D01*
X111439200Y-71768809D02*
X110639200Y-71768809D01*
X111439200Y-74888809D02*
X112239200Y-74888809D01*
%TO.C,R39*%
X88430342Y-131480309D02*
X88904858Y-131480309D01*
X88430342Y-132525309D02*
X88904858Y-132525309D01*
%TO.C,R116*%
X91694742Y-62620909D02*
X92169258Y-62620909D01*
X91694742Y-63665909D02*
X92169258Y-63665909D01*
%TO.C,D5*%
X130404400Y-59897409D02*
X133089400Y-59897409D01*
X133089400Y-61817409D02*
X130404400Y-61817409D01*
X130404400Y-61817409D02*
X130404400Y-59897409D01*
%TO.C,R59*%
X140698700Y-122181667D02*
X140698700Y-121707151D01*
X141743700Y-122181667D02*
X141743700Y-121707151D01*
%TO.C,J7*%
X158603000Y-77915609D02*
X150403000Y-77915609D01*
X154003000Y-86115609D02*
X154503000Y-85615609D01*
X150403000Y-86115609D02*
X150403000Y-77915609D01*
X158603000Y-86115609D02*
X158603000Y-77915609D01*
X154503000Y-85615609D02*
X155003000Y-86115609D01*
X158603000Y-86115609D02*
X150403000Y-86115609D01*
%TO.C,R124*%
X118651264Y-79248609D02*
X118197136Y-79248609D01*
X118651264Y-80718609D02*
X118197136Y-80718609D01*
%TO.C,D3*%
X129410600Y-64256809D02*
X129410600Y-68176809D01*
X124200600Y-64256809D02*
X129410600Y-64256809D01*
X129410600Y-68176809D02*
X124200600Y-68176809D01*
%TO.C,Q10*%
X125144600Y-71703209D02*
X125144600Y-72353209D01*
X125144600Y-71703209D02*
X125144600Y-70028209D01*
X128264600Y-71703209D02*
X128264600Y-72353209D01*
X128264600Y-71703209D02*
X128264600Y-71053209D01*
D11*
%TO.C,U1*%
X120440600Y-106625009D02*
X115790600Y-106625009D01*
X115790600Y-106625009D02*
X115790600Y-106600009D01*
X121515600Y-99800009D02*
X115790600Y-99800009D01*
X120440600Y-106625009D02*
X120440600Y-106600009D01*
X115790600Y-99800009D02*
X115790600Y-99900009D01*
D12*
%TO.C,Q2*%
X90266200Y-129208809D02*
X90266200Y-129858809D01*
X87146200Y-129208809D02*
X87146200Y-127533809D01*
X90266200Y-129208809D02*
X90266200Y-128558809D01*
X87146200Y-129208809D02*
X87146200Y-129858809D01*
%TO.C,C8*%
X115020700Y-73391429D02*
X115020700Y-73672589D01*
X114000700Y-73391429D02*
X114000700Y-73672589D01*
%TO.C,R108*%
X111934742Y-100339909D02*
X112409258Y-100339909D01*
X111934742Y-101384909D02*
X112409258Y-101384909D01*
%TO.C,R90*%
X123783236Y-106372609D02*
X124237364Y-106372609D01*
X123783236Y-104902609D02*
X124237364Y-104902609D01*
%TO.C,D2*%
X155911000Y-116869609D02*
X155911000Y-118789609D01*
X155911000Y-118789609D02*
X153226000Y-118789609D01*
X153226000Y-116869609D02*
X155911000Y-116869609D01*
%TO.C,BZ1*%
X102368600Y-59765209D02*
G75*
G03*
X102368600Y-59765209I-4620000J0D01*
G01*
%TO.C,R132*%
X124913400Y-79019951D02*
X124913400Y-79494467D01*
X123868400Y-79019951D02*
X123868400Y-79494467D01*
%TO.C,R121*%
X105598736Y-73203409D02*
X106052864Y-73203409D01*
X105598736Y-74673409D02*
X106052864Y-74673409D01*
%TO.C,U2*%
X112123100Y-80889809D02*
X114323100Y-80889809D01*
X112123100Y-75419809D02*
X109923100Y-75419809D01*
X112123100Y-75419809D02*
X115723100Y-75419809D01*
X112123100Y-80889809D02*
X109923100Y-80889809D01*
%TO.C,Q6*%
X154429200Y-122183609D02*
X155079200Y-122183609D01*
X154429200Y-119063609D02*
X155079200Y-119063609D01*
X154429200Y-119063609D02*
X153779200Y-119063609D01*
X154429200Y-122183609D02*
X152754200Y-122183609D01*
%TO.C,J6*%
X158552200Y-65418809D02*
X150352200Y-65418809D01*
X158552200Y-73618809D02*
X158552200Y-65418809D01*
X150352200Y-73618809D02*
X150352200Y-65418809D01*
X153952200Y-73618809D02*
X154452200Y-73118809D01*
X154452200Y-73118809D02*
X154952200Y-73618809D01*
X158552200Y-73618809D02*
X150352200Y-73618809D01*
%TO.C,D4*%
X130415300Y-63976409D02*
X130415300Y-62056409D01*
X133100300Y-63976409D02*
X130415300Y-63976409D01*
X130415300Y-62056409D02*
X133100300Y-62056409D01*
%TO.C,Q3*%
X86761000Y-125246409D02*
X86761000Y-124596409D01*
X86761000Y-125246409D02*
X86761000Y-125896409D01*
X83641000Y-125246409D02*
X83641000Y-125896409D01*
X83641000Y-125246409D02*
X83641000Y-123571409D01*
%TO.C,K1*%
X144979000Y-75438009D02*
X144979000Y-66038009D01*
X130579000Y-66038009D02*
X131779000Y-66038009D01*
X144979000Y-75438009D02*
X143779000Y-75438009D01*
X130579000Y-66038009D02*
X130579000Y-75438009D01*
X144979000Y-66038009D02*
X143779000Y-66038009D01*
X130579000Y-75438009D02*
X131779000Y-75438009D01*
X131779000Y-66038009D02*
X131779000Y-64438009D01*
%TO.C,R77*%
X145128258Y-123555509D02*
X144653742Y-123555509D01*
X145128258Y-124600509D02*
X144653742Y-124600509D01*
%TO.C,R131*%
X135577858Y-61379909D02*
X135103342Y-61379909D01*
X135577858Y-60334909D02*
X135103342Y-60334909D01*
%TO.C,J4*%
X154647600Y-36402309D02*
X154647600Y-27282309D01*
X108017600Y-36402309D02*
X108017600Y-27282309D01*
X149437600Y-42022309D02*
X149937600Y-43022309D01*
X112117600Y-36402309D02*
X112117600Y-27282309D01*
X65487600Y-36402309D02*
X154647600Y-36402309D01*
X65487600Y-27282309D02*
X65487600Y-36402309D01*
X149937600Y-43022309D02*
X148937600Y-43022309D01*
X154647600Y-27282309D02*
X65487600Y-27282309D01*
X148937600Y-43022309D02*
X149437600Y-42022309D01*
%TO.C,Q9*%
X123184600Y-66267609D02*
X123184600Y-65617609D01*
X120064600Y-66267609D02*
X120064600Y-66917609D01*
X123184600Y-66267609D02*
X123184600Y-67942609D01*
X120064600Y-66267609D02*
X120064600Y-65617609D01*
%TO.C,R133*%
X123287800Y-78969151D02*
X123287800Y-79443667D01*
X122242800Y-78969151D02*
X122242800Y-79443667D01*
%TO.C,C1*%
X148601400Y-124218589D02*
X148601400Y-123937429D01*
X147581400Y-124218589D02*
X147581400Y-123937429D01*
%TO.C,R119*%
X105598736Y-78737409D02*
X106052864Y-78737409D01*
X105598736Y-77267409D02*
X106052864Y-77267409D01*
%TO.C,R107*%
X111973342Y-101914709D02*
X112447858Y-101914709D01*
X111973342Y-102959709D02*
X112447858Y-102959709D01*
%TO.C,R130*%
X135565658Y-62493909D02*
X135091142Y-62493909D01*
X135565658Y-63538909D02*
X135091142Y-63538909D01*
%TO.C,Q11*%
X127235700Y-77748009D02*
X126585700Y-77748009D01*
X127235700Y-80868009D02*
X125560700Y-80868009D01*
X127235700Y-77748009D02*
X127885700Y-77748009D01*
X127235700Y-80868009D02*
X127885700Y-80868009D01*
%TO.C,Q5*%
X139784000Y-120420409D02*
X139784000Y-119770409D01*
X136664000Y-120420409D02*
X136664000Y-118745409D01*
X139784000Y-120420409D02*
X139784000Y-121070409D01*
X136664000Y-120420409D02*
X136664000Y-121070409D01*
%TO.C,R67*%
X137744942Y-123098309D02*
X138219458Y-123098309D01*
X137744942Y-124143309D02*
X138219458Y-124143309D01*
%TO.C,R115*%
X92683100Y-60612067D02*
X92683100Y-60137551D01*
X91638100Y-60612067D02*
X91638100Y-60137551D01*
%TO.C,Q4*%
X84997800Y-130565609D02*
X85647800Y-130565609D01*
X84997800Y-130565609D02*
X84347800Y-130565609D01*
X84997800Y-127445609D02*
X86672800Y-127445609D01*
X84997800Y-127445609D02*
X84347800Y-127445609D01*
%TO.C,D1*%
X142028800Y-116855809D02*
X142028800Y-119540809D01*
X140108800Y-119540809D02*
X140108800Y-116855809D01*
X140108800Y-116855809D02*
X142028800Y-116855809D01*
%TO.C,R23*%
X88316542Y-122822509D02*
X88791058Y-122822509D01*
X88316542Y-121777509D02*
X88791058Y-121777509D01*
%TO.C,R118*%
X121861858Y-71158909D02*
X121387342Y-71158909D01*
X121861858Y-70113909D02*
X121387342Y-70113909D01*
%TO.C,R68*%
X154191942Y-124092509D02*
X154666458Y-124092509D01*
X154191942Y-123047509D02*
X154666458Y-123047509D01*
%TO.C,Q1*%
X87146200Y-125246409D02*
X87146200Y-123571409D01*
X90266200Y-125246409D02*
X90266200Y-124596409D01*
X87146200Y-125246409D02*
X87146200Y-125896409D01*
X90266200Y-125246409D02*
X90266200Y-125896409D01*
%TO.C,RV1*%
X152151400Y-122046009D02*
X142381400Y-122046009D01*
X152151400Y-116976009D02*
X152151400Y-122046009D01*
X152151400Y-116976009D02*
X142381400Y-116976009D01*
X142381400Y-116976009D02*
X142381400Y-122046009D01*
%TO.C,R125*%
X118651264Y-76756209D02*
X118197136Y-76756209D01*
X118651264Y-75286209D02*
X118197136Y-75286209D01*
%TO.C,R122*%
X105598736Y-79248609D02*
X106052864Y-79248609D01*
X105598736Y-80718609D02*
X106052864Y-80718609D01*
%TO.C,R129*%
X125318500Y-75394867D02*
X125318500Y-74920351D01*
X126363500Y-75394867D02*
X126363500Y-74920351D01*
%TO.C,R40*%
X84455742Y-131480309D02*
X84930258Y-131480309D01*
X84455742Y-132525309D02*
X84930258Y-132525309D01*
%TO.C,R126*%
X118651264Y-78737409D02*
X118197136Y-78737409D01*
X118651264Y-77267409D02*
X118197136Y-77267409D01*
%TO.C,R30*%
X85116142Y-121675909D02*
X85590658Y-121675909D01*
X85116142Y-122720909D02*
X85590658Y-122720909D01*
%TO.C,R89*%
X123783236Y-102921409D02*
X124237364Y-102921409D01*
X123783236Y-104391409D02*
X124237364Y-104391409D01*
%TO.C,R120*%
X105598736Y-76705409D02*
X106052864Y-76705409D01*
X105598736Y-75235409D02*
X106052864Y-75235409D01*
%TO.C,R88*%
X123783236Y-100940209D02*
X124237364Y-100940209D01*
X123783236Y-102410209D02*
X124237364Y-102410209D01*
%TO.C,R106*%
X111946942Y-103489509D02*
X112421458Y-103489509D01*
X111946942Y-104534509D02*
X112421458Y-104534509D01*
%TO.C,J2*%
X138403400Y-133359609D02*
X146603400Y-133359609D01*
X138403400Y-133359609D02*
X138403400Y-125159609D01*
X138403400Y-125159609D02*
X146603400Y-125159609D01*
X138403400Y-128759609D02*
X138903400Y-129259609D01*
X138903400Y-129259609D02*
X138403400Y-129759609D01*
X146603400Y-133359609D02*
X146603400Y-125159609D01*
%TO.C,R127*%
X121811058Y-69533309D02*
X121336542Y-69533309D01*
X121811058Y-68488309D02*
X121336542Y-68488309D01*
%TO.C,R117*%
X109015300Y-73370951D02*
X109015300Y-73845467D01*
X107970300Y-73370951D02*
X107970300Y-73845467D01*
%TO.C,J5*%
X68077100Y-58909609D02*
X68077100Y-59909609D01*
X61457100Y-68789609D02*
X52337100Y-68789609D01*
X52337100Y-87479609D02*
X61457100Y-87479609D01*
X61457100Y-72889609D02*
X52337100Y-72889609D01*
X67077100Y-59409609D02*
X68077100Y-58909609D01*
X68077100Y-59909609D02*
X67077100Y-59409609D01*
X61457100Y-54199609D02*
X52337100Y-54199609D01*
X61457100Y-87479609D02*
X61457100Y-54199609D01*
X52337100Y-54199609D02*
X52337100Y-87479609D01*
%TO.C,R105*%
X111934742Y-105064309D02*
X112409258Y-105064309D01*
X111934742Y-106109309D02*
X112409258Y-106109309D01*
%TD*%
M02*
