%TF.GenerationSoftware,KiCad,Pcbnew,(6.0.5)*%
%TF.CreationDate,2022-06-30T03:28:59+08:00*%
%TF.ProjectId,lkt100a1_bclamp,6c6b7431-3030-4613-915f-62636c616d70,rev?*%
%TF.SameCoordinates,Original*%
%TF.FileFunction,Soldermask,Bot*%
%TF.FilePolarity,Negative*%
%FSLAX46Y46*%
G04 Gerber Fmt 4.6, Leading zero omitted, Abs format (unit mm)*
G04 Created by KiCad (PCBNEW (6.0.5)) date 2022-06-30 03:28:59*
%MOMM*%
%LPD*%
G01*
G04 APERTURE LIST*
G04 Aperture macros list*
%AMRoundRect*
0 Rectangle with rounded corners*
0 $1 Rounding radius*
0 $2 $3 $4 $5 $6 $7 $8 $9 X,Y pos of 4 corners*
0 Add a 4 corners polygon primitive as box body*
4,1,4,$2,$3,$4,$5,$6,$7,$8,$9,$2,$3,0*
0 Add four circle primitives for the rounded corners*
1,1,$1+$1,$2,$3*
1,1,$1+$1,$4,$5*
1,1,$1+$1,$6,$7*
1,1,$1+$1,$8,$9*
0 Add four rect primitives between the rounded corners*
20,1,$1+$1,$2,$3,$4,$5,0*
20,1,$1+$1,$4,$5,$6,$7,0*
20,1,$1+$1,$6,$7,$8,$9,0*
20,1,$1+$1,$8,$9,$2,$3,0*%
G04 Aperture macros list end*
%ADD10C,1.500000*%
%ADD11C,2.200000*%
%ADD12C,0.800000*%
%ADD13C,5.400000*%
%ADD14C,2.500000*%
%ADD15RoundRect,0.200000X0.200000X0.275000X-0.200000X0.275000X-0.200000X-0.275000X0.200000X-0.275000X0*%
%ADD16RoundRect,0.200000X-0.275000X0.200000X-0.275000X-0.200000X0.275000X-0.200000X0.275000X0.200000X0*%
%ADD17RoundRect,0.250000X0.450000X-0.262500X0.450000X0.262500X-0.450000X0.262500X-0.450000X-0.262500X0*%
%ADD18RoundRect,0.250000X0.262500X0.450000X-0.262500X0.450000X-0.262500X-0.450000X0.262500X-0.450000X0*%
%ADD19RoundRect,0.200000X0.275000X-0.200000X0.275000X0.200000X-0.275000X0.200000X-0.275000X-0.200000X0*%
%ADD20RoundRect,0.200100X-0.949900X-0.949900X0.949900X-0.949900X0.949900X0.949900X-0.949900X0.949900X0*%
%ADD21RoundRect,0.150000X0.587500X0.150000X-0.587500X0.150000X-0.587500X-0.150000X0.587500X-0.150000X0*%
%ADD22RoundRect,0.150000X-0.512500X-0.150000X0.512500X-0.150000X0.512500X0.150000X-0.512500X0.150000X0*%
%ADD23RoundRect,0.200000X-0.200000X-0.275000X0.200000X-0.275000X0.200000X0.275000X-0.200000X0.275000X0*%
%ADD24RoundRect,0.243750X-0.243750X-0.456250X0.243750X-0.456250X0.243750X0.456250X-0.243750X0.456250X0*%
%ADD25RoundRect,0.200100X0.949900X-0.949900X0.949900X0.949900X-0.949900X0.949900X-0.949900X-0.949900X0*%
%ADD26RoundRect,0.250000X0.312500X1.450000X-0.312500X1.450000X-0.312500X-1.450000X0.312500X-1.450000X0*%
%ADD27RoundRect,0.150000X-0.150000X0.587500X-0.150000X-0.587500X0.150000X-0.587500X0.150000X0.587500X0*%
%ADD28R,1.000000X0.400000*%
%ADD29RoundRect,0.225000X-0.250000X0.225000X-0.250000X-0.225000X0.250000X-0.225000X0.250000X0.225000X0*%
%ADD30RoundRect,0.250000X-0.262500X-0.450000X0.262500X-0.450000X0.262500X0.450000X-0.262500X0.450000X0*%
%ADD31RoundRect,0.243750X0.243750X0.456250X-0.243750X0.456250X-0.243750X-0.456250X0.243750X-0.456250X0*%
%ADD32R,1.600000X1.600000*%
%ADD33C,1.600000*%
%ADD34RoundRect,0.100000X0.637500X0.100000X-0.637500X0.100000X-0.637500X-0.100000X0.637500X-0.100000X0*%
%ADD35RoundRect,0.150000X-0.587500X-0.150000X0.587500X-0.150000X0.587500X0.150000X-0.587500X0.150000X0*%
%ADD36R,1.000000X3.000000*%
%ADD37RoundRect,0.250000X0.600000X-0.600000X0.600000X0.600000X-0.600000X0.600000X-0.600000X-0.600000X0*%
%ADD38C,1.700000*%
%ADD39RoundRect,0.150000X0.150000X-0.587500X0.150000X0.587500X-0.150000X0.587500X-0.150000X-0.587500X0*%
%ADD40RoundRect,0.225000X0.250000X-0.225000X0.250000X0.225000X-0.250000X0.225000X-0.250000X-0.225000X0*%
%ADD41RoundRect,0.243750X-0.456250X0.243750X-0.456250X-0.243750X0.456250X-0.243750X0.456250X0.243750X0*%
%ADD42C,1.440000*%
%ADD43RoundRect,0.250000X0.600000X0.600000X-0.600000X0.600000X-0.600000X-0.600000X0.600000X-0.600000X0*%
G04 APERTURE END LIST*
D10*
%TO.C,TP82*%
X122555000Y-57341000D03*
%TD*%
%TO.C,TP29*%
X142392400Y-87274400D03*
%TD*%
%TO.C,TP51*%
X103415800Y-113284000D03*
%TD*%
%TO.C,TP3*%
X91033600Y-84175600D03*
%TD*%
%TO.C,TP48*%
X113805000Y-95021400D03*
%TD*%
%TO.C,TP97*%
X65430400Y-45466000D03*
%TD*%
%TO.C,TP63*%
X134239000Y-94107000D03*
%TD*%
%TO.C,TP70*%
X131470400Y-50952400D03*
%TD*%
D11*
%TO.C,H7*%
X142833600Y-55269409D03*
%TD*%
D10*
%TO.C,TP9*%
X151892000Y-93980000D03*
%TD*%
%TO.C,TP47*%
X141462000Y-105790009D03*
%TD*%
%TO.C,TP24*%
X148488400Y-102666800D03*
%TD*%
%TO.C,TP32*%
X142341600Y-85191600D03*
%TD*%
%TO.C,TP18*%
X137922000Y-83566000D03*
%TD*%
%TO.C,TP96*%
X67614800Y-45415200D03*
%TD*%
%TO.C,TP58*%
X102463600Y-129692400D03*
%TD*%
%TO.C,TP69*%
X122047000Y-94107000D03*
%TD*%
%TO.C,TP35*%
X68326000Y-77520800D03*
%TD*%
%TO.C,TP75*%
X111887000Y-130048000D03*
%TD*%
%TO.C,TP40*%
X156210000Y-57404000D03*
%TD*%
%TO.C,TP17*%
X137922000Y-86360000D03*
%TD*%
%TO.C,TP86*%
X91059000Y-69583000D03*
%TD*%
%TO.C,TP14*%
X62230000Y-51816000D03*
%TD*%
%TO.C,TP41*%
X154178000Y-57404000D03*
%TD*%
%TO.C,TP10*%
X149860000Y-94107000D03*
%TD*%
%TO.C,TP85*%
X96631000Y-69569609D03*
%TD*%
%TO.C,TP34*%
X76200000Y-64617600D03*
%TD*%
%TO.C,TP67*%
X126111000Y-94107000D03*
%TD*%
%TO.C,TP88*%
X96914000Y-93472000D03*
%TD*%
%TO.C,TP11*%
X147828000Y-94107000D03*
%TD*%
%TO.C,TP36*%
X68580000Y-72566809D03*
%TD*%
%TO.C,TP66*%
X128143000Y-94107000D03*
%TD*%
%TO.C,TP27*%
X120954800Y-89662000D03*
%TD*%
%TO.C,TP59*%
X127660400Y-130556000D03*
%TD*%
%TO.C,TP42*%
X152146000Y-57404000D03*
%TD*%
%TO.C,TP91*%
X110556000Y-113233200D03*
%TD*%
%TO.C,TP15*%
X66557400Y-51078409D03*
%TD*%
%TO.C,TP60*%
X133451600Y-131724400D03*
%TD*%
%TO.C,TP7*%
X155956000Y-93980000D03*
%TD*%
%TO.C,TP2*%
X95462600Y-106018609D03*
%TD*%
D12*
%TO.C,H3*%
X138522109Y-96866109D03*
X141979000Y-98298000D03*
D13*
X139954000Y-98298000D03*
D12*
X141385891Y-96866109D03*
X139954000Y-96273000D03*
X139954000Y-100323000D03*
X138522109Y-99729891D03*
X137929000Y-98298000D03*
X141385891Y-99729891D03*
%TD*%
D10*
%TO.C,TP76*%
X134747000Y-57341000D03*
%TD*%
%TO.C,TP92*%
X97523000Y-113385600D03*
%TD*%
%TO.C,TP37*%
X74859007Y-109092009D03*
%TD*%
%TO.C,TP64*%
X132207000Y-94107000D03*
%TD*%
%TO.C,TP6*%
X157988000Y-93980000D03*
%TD*%
%TO.C,TP79*%
X128651000Y-57341000D03*
%TD*%
%TO.C,TP22*%
X157022800Y-102514400D03*
%TD*%
%TO.C,TP100*%
X89814400Y-55016400D03*
%TD*%
%TO.C,TP26*%
X120904000Y-83566000D03*
%TD*%
%TO.C,TP13*%
X143764000Y-94107000D03*
%TD*%
%TO.C,TP44*%
X148082000Y-57404000D03*
%TD*%
%TO.C,TP93*%
X83794600Y-113639600D03*
%TD*%
%TO.C,TP28*%
X120954800Y-87630000D03*
%TD*%
%TO.C,TP65*%
X130175000Y-94107000D03*
%TD*%
%TO.C,TP12*%
X145796000Y-94107000D03*
%TD*%
%TO.C,TP57*%
X138414000Y-104977209D03*
%TD*%
%TO.C,TP53*%
X136499600Y-116789200D03*
%TD*%
%TO.C,TP54*%
X103581200Y-95097600D03*
%TD*%
%TO.C,TP38*%
X62230000Y-45466000D03*
%TD*%
%TO.C,TP39*%
X158242000Y-57404000D03*
%TD*%
%TO.C,TP49*%
X138414000Y-107618809D03*
%TD*%
%TO.C,TP16*%
X70840600Y-58547000D03*
%TD*%
%TO.C,TP19*%
X137972800Y-89306400D03*
%TD*%
%TO.C,TP68*%
X124079000Y-94107000D03*
%TD*%
%TO.C,TP46*%
X144205200Y-58622209D03*
%TD*%
%TO.C,TP56*%
X107950000Y-51663600D03*
%TD*%
%TO.C,TP99*%
X91948000Y-56845200D03*
%TD*%
%TO.C,TP8*%
X153924000Y-93980000D03*
%TD*%
%TO.C,TP74*%
X131419600Y-132283200D03*
%TD*%
%TO.C,TP95*%
X76107800Y-93471009D03*
%TD*%
D14*
%TO.C,H2*%
X73507600Y-115874800D03*
%TD*%
D10*
%TO.C,TP72*%
X109829600Y-123393200D03*
%TD*%
%TO.C,TP87*%
X102362000Y-69596000D03*
%TD*%
%TO.C,TP33*%
X81280000Y-79248000D03*
%TD*%
%TO.C,TP84*%
X107950000Y-69596000D03*
%TD*%
%TO.C,TP98*%
X92913200Y-54965600D03*
%TD*%
%TO.C,TP77*%
X132715000Y-57341000D03*
%TD*%
%TO.C,TP78*%
X130683000Y-57341000D03*
%TD*%
D12*
%TO.C,H6*%
X79086109Y-58766109D03*
X81949891Y-61629891D03*
X80518000Y-58173000D03*
X79086109Y-61629891D03*
X81949891Y-58766109D03*
X78493000Y-60198000D03*
X80518000Y-62223000D03*
D13*
X80518000Y-60198000D03*
D12*
X82543000Y-60198000D03*
%TD*%
D10*
%TO.C,TP83*%
X120523000Y-57341000D03*
%TD*%
%TO.C,TP80*%
X126619000Y-57341000D03*
%TD*%
%TO.C,TP25*%
X120954800Y-85598000D03*
%TD*%
%TO.C,TP43*%
X150114000Y-57404000D03*
%TD*%
%TO.C,TP4*%
X105410000Y-51663600D03*
%TD*%
%TO.C,TP94*%
X74015600Y-93522800D03*
%TD*%
%TO.C,TP31*%
X142341600Y-83108800D03*
%TD*%
%TO.C,TP62*%
X136271000Y-94107000D03*
%TD*%
%TO.C,TP30*%
X142443200Y-89458800D03*
%TD*%
%TO.C,TP21*%
X154990800Y-102565200D03*
%TD*%
%TO.C,TP61*%
X135229600Y-133451600D03*
%TD*%
%TO.C,TP89*%
X108217000Y-95021400D03*
%TD*%
%TO.C,TP50*%
X116194800Y-113284000D03*
%TD*%
%TO.C,TP71*%
X118059200Y-122936000D03*
%TD*%
%TO.C,TP73*%
X121869200Y-129641600D03*
%TD*%
%TO.C,TP52*%
X89484200Y-113538000D03*
%TD*%
D12*
%TO.C,H1*%
X139954000Y-62223000D03*
D13*
X139954000Y-60198000D03*
D12*
X141979000Y-60198000D03*
X137929000Y-60198000D03*
X141385891Y-58766109D03*
X139954000Y-58173000D03*
X141385891Y-61629891D03*
X138522109Y-58766109D03*
X138522109Y-61629891D03*
%TD*%
%TO.C,H5*%
X80518000Y-100323000D03*
X79086109Y-99729891D03*
X81949891Y-99729891D03*
X78493000Y-98298000D03*
X82543000Y-98298000D03*
X79086109Y-96866109D03*
X80518000Y-96273000D03*
D13*
X80518000Y-98298000D03*
D12*
X81949891Y-96866109D03*
%TD*%
D10*
%TO.C,TP55*%
X102463600Y-84074000D03*
%TD*%
%TO.C,TP90*%
X83058000Y-91236800D03*
%TD*%
%TO.C,TP45*%
X146050000Y-57404000D03*
%TD*%
%TO.C,TP81*%
X124587000Y-57341000D03*
%TD*%
D14*
%TO.C,H4*%
X80467200Y-75995809D03*
%TD*%
D10*
%TO.C,TP23*%
X146202400Y-102717600D03*
%TD*%
%TO.C,TP5*%
X136601200Y-106629200D03*
%TD*%
%TO.C,TP1*%
X91795600Y-114401600D03*
%TD*%
%TO.C,TP20*%
X137922000Y-91948000D03*
%TD*%
D15*
%TO.C,R114*%
X89582000Y-63168809D03*
X87932000Y-63168809D03*
%TD*%
D16*
%TO.C,R60*%
X157832800Y-117969809D03*
X157832800Y-119619809D03*
%TD*%
D17*
%TO.C,R98*%
X111464600Y-46021909D03*
X111464600Y-44196909D03*
%TD*%
D18*
%TO.C,R123*%
X119336700Y-74040009D03*
X117511700Y-74040009D03*
%TD*%
D19*
%TO.C,R128*%
X127517400Y-76021209D03*
X127517400Y-74371209D03*
%TD*%
D20*
%TO.C,J1*%
X77936600Y-129462809D03*
D14*
X75396600Y-132002809D03*
X80476600Y-132002809D03*
X80476600Y-126922809D03*
X75396600Y-126922809D03*
%TD*%
D21*
%TO.C,Q8*%
X90151700Y-59501009D03*
X90151700Y-61401009D03*
X88276700Y-60451009D03*
%TD*%
D22*
%TO.C,U3*%
X110301700Y-74278809D03*
X110301700Y-73328809D03*
X110301700Y-72378809D03*
X112576700Y-72378809D03*
X112576700Y-74278809D03*
%TD*%
D23*
%TO.C,R39*%
X87842600Y-132002809D03*
X89492600Y-132002809D03*
%TD*%
%TO.C,R116*%
X91107000Y-63143409D03*
X92757000Y-63143409D03*
%TD*%
D24*
%TO.C,D5*%
X131151900Y-60857409D03*
X133026900Y-60857409D03*
%TD*%
D19*
%TO.C,R59*%
X141221200Y-122769409D03*
X141221200Y-121119409D03*
%TD*%
D25*
%TO.C,J7*%
X154503000Y-82015609D03*
D14*
X157043000Y-79475609D03*
X157043000Y-84555609D03*
X151963000Y-79475609D03*
X151963000Y-84555609D03*
%TD*%
D18*
%TO.C,R124*%
X119336700Y-79983609D03*
X117511700Y-79983609D03*
%TD*%
D26*
%TO.C,D3*%
X128588100Y-66216809D03*
X124313100Y-66216809D03*
%TD*%
D27*
%TO.C,Q10*%
X125754600Y-70765709D03*
X127654600Y-70765709D03*
X126704600Y-72640709D03*
%TD*%
D28*
%TO.C,U1*%
X121015600Y-100325009D03*
X121015600Y-100975009D03*
X121015600Y-101625009D03*
X121015600Y-102275009D03*
X121015600Y-102925009D03*
X121015600Y-103575009D03*
X121015600Y-104225009D03*
X121015600Y-104875009D03*
X121015600Y-105525009D03*
X121015600Y-106175009D03*
X115215600Y-106175009D03*
X115215600Y-105525009D03*
X115215600Y-104875009D03*
X115215600Y-104225009D03*
X115215600Y-103575009D03*
X115215600Y-102925009D03*
X115215600Y-102275009D03*
X115215600Y-101625009D03*
X115215600Y-100975009D03*
X115215600Y-100325009D03*
%TD*%
D27*
%TO.C,Q2*%
X87756200Y-128271309D03*
X89656200Y-128271309D03*
X88706200Y-130146309D03*
%TD*%
D29*
%TO.C,C8*%
X114510700Y-72757009D03*
X114510700Y-74307009D03*
%TD*%
D23*
%TO.C,R108*%
X111347000Y-100862409D03*
X112997000Y-100862409D03*
%TD*%
D30*
%TO.C,R90*%
X123097800Y-105637609D03*
X124922800Y-105637609D03*
%TD*%
D31*
%TO.C,D2*%
X155163500Y-117829609D03*
X153288500Y-117829609D03*
%TD*%
D32*
%TO.C,BZ1*%
X99748600Y-59765209D03*
D33*
X95748600Y-59765209D03*
%TD*%
D16*
%TO.C,R132*%
X124390900Y-78432209D03*
X124390900Y-80082209D03*
%TD*%
D30*
%TO.C,R121*%
X104913300Y-73938409D03*
X106738300Y-73938409D03*
%TD*%
D34*
%TO.C,U2*%
X114985600Y-75879809D03*
X114985600Y-76529809D03*
X114985600Y-77179809D03*
X114985600Y-77829809D03*
X114985600Y-78479809D03*
X114985600Y-79129809D03*
X114985600Y-79779809D03*
X114985600Y-80429809D03*
X109260600Y-80429809D03*
X109260600Y-79779809D03*
X109260600Y-79129809D03*
X109260600Y-78479809D03*
X109260600Y-77829809D03*
X109260600Y-77179809D03*
X109260600Y-76529809D03*
X109260600Y-75879809D03*
%TD*%
D35*
%TO.C,Q6*%
X153491700Y-121573609D03*
X153491700Y-119673609D03*
X155366700Y-120623609D03*
%TD*%
D25*
%TO.C,J6*%
X154452200Y-69518809D03*
D14*
X156992200Y-66978809D03*
X151912200Y-72058809D03*
X156992200Y-72058809D03*
X151912200Y-66978809D03*
%TD*%
D24*
%TO.C,D4*%
X131162800Y-63016409D03*
X133037800Y-63016409D03*
%TD*%
D27*
%TO.C,Q3*%
X84251000Y-124308909D03*
X86151000Y-124308909D03*
X85201000Y-126183909D03*
%TD*%
D36*
%TO.C,K1*%
X132699000Y-65958009D03*
X135239000Y-65958009D03*
X137779000Y-65958009D03*
X140319000Y-65958009D03*
X142859000Y-65958009D03*
X142859000Y-75518009D03*
X140319000Y-75518009D03*
X137779000Y-75518009D03*
X135239000Y-75518009D03*
X132699000Y-75518009D03*
%TD*%
D15*
%TO.C,R77*%
X145716000Y-124078009D03*
X144066000Y-124078009D03*
%TD*%
%TO.C,R131*%
X136165600Y-60857409D03*
X134515600Y-60857409D03*
%TD*%
D37*
%TO.C,J4*%
X149437600Y-40672309D03*
D38*
X149437600Y-38132309D03*
X146897600Y-40672309D03*
X146897600Y-38132309D03*
X144357600Y-40672309D03*
X144357600Y-38132309D03*
X141817600Y-40672309D03*
X141817600Y-38132309D03*
X139277600Y-40672309D03*
X139277600Y-38132309D03*
X136737600Y-40672309D03*
X136737600Y-38132309D03*
X134197600Y-40672309D03*
X134197600Y-38132309D03*
X131657600Y-40672309D03*
X131657600Y-38132309D03*
X129117600Y-40672309D03*
X129117600Y-38132309D03*
X126577600Y-40672309D03*
X126577600Y-38132309D03*
X124037600Y-40672309D03*
X124037600Y-38132309D03*
X121497600Y-40672309D03*
X121497600Y-38132309D03*
X118957600Y-40672309D03*
X118957600Y-38132309D03*
X116417600Y-40672309D03*
X116417600Y-38132309D03*
X113877600Y-40672309D03*
X113877600Y-38132309D03*
X111337600Y-40672309D03*
X111337600Y-38132309D03*
X108797600Y-40672309D03*
X108797600Y-38132309D03*
X106257600Y-40672309D03*
X106257600Y-38132309D03*
X103717600Y-40672309D03*
X103717600Y-38132309D03*
X101177600Y-40672309D03*
X101177600Y-38132309D03*
X98637600Y-40672309D03*
X98637600Y-38132309D03*
X96097600Y-40672309D03*
X96097600Y-38132309D03*
X93557600Y-40672309D03*
X93557600Y-38132309D03*
X91017600Y-40672309D03*
X91017600Y-38132309D03*
X88477600Y-40672309D03*
X88477600Y-38132309D03*
X85937600Y-40672309D03*
X85937600Y-38132309D03*
X83397600Y-40672309D03*
X83397600Y-38132309D03*
X80857600Y-40672309D03*
X80857600Y-38132309D03*
X78317600Y-40672309D03*
X78317600Y-38132309D03*
X75777600Y-40672309D03*
X75777600Y-38132309D03*
X73237600Y-40672309D03*
X73237600Y-38132309D03*
X70697600Y-40672309D03*
X70697600Y-38132309D03*
%TD*%
D39*
%TO.C,Q9*%
X122574600Y-67205109D03*
X120674600Y-67205109D03*
X121624600Y-65330109D03*
%TD*%
D16*
%TO.C,R133*%
X122765300Y-78381409D03*
X122765300Y-80031409D03*
%TD*%
D40*
%TO.C,C1*%
X148091400Y-124853009D03*
X148091400Y-123303009D03*
%TD*%
D30*
%TO.C,R119*%
X104913300Y-78002409D03*
X106738300Y-78002409D03*
%TD*%
D23*
%TO.C,R107*%
X111385600Y-102437209D03*
X113035600Y-102437209D03*
%TD*%
D15*
%TO.C,R130*%
X136153400Y-63016409D03*
X134503400Y-63016409D03*
%TD*%
D35*
%TO.C,Q11*%
X126298200Y-80258009D03*
X126298200Y-78358009D03*
X128173200Y-79308009D03*
%TD*%
D27*
%TO.C,Q5*%
X137274000Y-119482909D03*
X139174000Y-119482909D03*
X138224000Y-121357909D03*
%TD*%
D23*
%TO.C,R67*%
X137157200Y-123620809D03*
X138807200Y-123620809D03*
%TD*%
D19*
%TO.C,R115*%
X92160600Y-61199809D03*
X92160600Y-59549809D03*
%TD*%
D21*
%TO.C,Q4*%
X85935300Y-128055609D03*
X85935300Y-129955609D03*
X84060300Y-129005609D03*
%TD*%
D41*
%TO.C,D1*%
X141068800Y-117603309D03*
X141068800Y-119478309D03*
%TD*%
D23*
%TO.C,R23*%
X87728800Y-122300009D03*
X89378800Y-122300009D03*
%TD*%
D15*
%TO.C,R118*%
X122449600Y-70636409D03*
X120799600Y-70636409D03*
%TD*%
D23*
%TO.C,R68*%
X153604200Y-123570009D03*
X155254200Y-123570009D03*
%TD*%
D27*
%TO.C,Q1*%
X87756200Y-124308909D03*
X89656200Y-124308909D03*
X88706200Y-126183909D03*
%TD*%
D42*
%TO.C,RV1*%
X144726400Y-119506009D03*
X147266400Y-119506009D03*
X149806400Y-119506009D03*
%TD*%
D18*
%TO.C,R125*%
X119336700Y-76021209D03*
X117511700Y-76021209D03*
%TD*%
D30*
%TO.C,R122*%
X104913300Y-79983609D03*
X106738300Y-79983609D03*
%TD*%
D19*
%TO.C,R129*%
X125841000Y-75982609D03*
X125841000Y-74332609D03*
%TD*%
D23*
%TO.C,R40*%
X83868000Y-132002809D03*
X85518000Y-132002809D03*
%TD*%
D18*
%TO.C,R126*%
X119336700Y-78002409D03*
X117511700Y-78002409D03*
%TD*%
D23*
%TO.C,R30*%
X84528400Y-122198409D03*
X86178400Y-122198409D03*
%TD*%
D30*
%TO.C,R89*%
X123097800Y-103656409D03*
X124922800Y-103656409D03*
%TD*%
%TO.C,R120*%
X104913300Y-75970409D03*
X106738300Y-75970409D03*
%TD*%
%TO.C,R88*%
X123097800Y-101675209D03*
X124922800Y-101675209D03*
%TD*%
D23*
%TO.C,R106*%
X111359200Y-104012009D03*
X113009200Y-104012009D03*
%TD*%
D20*
%TO.C,J2*%
X142503400Y-129259609D03*
D14*
X139963400Y-126719609D03*
X139963400Y-131799609D03*
X145043400Y-131799609D03*
X145043400Y-126719609D03*
%TD*%
D15*
%TO.C,R127*%
X122398800Y-69010809D03*
X120748800Y-69010809D03*
%TD*%
D16*
%TO.C,R117*%
X108492800Y-72783209D03*
X108492800Y-74433209D03*
%TD*%
D43*
%TO.C,J5*%
X65727100Y-59409609D03*
D38*
X63187100Y-59409609D03*
X65727100Y-61949609D03*
X63187100Y-61949609D03*
X65727100Y-64489609D03*
X63187100Y-64489609D03*
X65727100Y-67029609D03*
X63187100Y-67029609D03*
X65727100Y-69569609D03*
X63187100Y-69569609D03*
X65727100Y-72109609D03*
X63187100Y-72109609D03*
X65727100Y-74649609D03*
X63187100Y-74649609D03*
X65727100Y-77189609D03*
X63187100Y-77189609D03*
X65727100Y-79729609D03*
X63187100Y-79729609D03*
X65727100Y-82269609D03*
X63187100Y-82269609D03*
%TD*%
D23*
%TO.C,R105*%
X111347000Y-105586809D03*
X112997000Y-105586809D03*
%TD*%
M02*
