M48
; DRILL file {KiCad (6.0.5)} date Thu Jun 30 03:29:01 2022
; FORMAT={-:-/ absolute / inch / decimal}
; #@! TF.CreationDate,2022-06-30T03:29:01+08:00
; #@! TF.GenerationSoftware,Kicad,Pcbnew,(6.0.5)
; #@! TF.FileFunction,Plated,1,2,PTH
FMAT,2
INCH
; #@! TA.AperFunction,Plated,PTH,ViaDrill
T1C0.0157
; #@! TA.AperFunction,Plated,PTH,ComponentDrill
T2C0.0197
; #@! TA.AperFunction,Plated,PTH,ComponentDrill
T3C0.0315
; #@! TA.AperFunction,Plated,PTH,ComponentDrill
T4C0.0354
; #@! TA.AperFunction,Plated,PTH,ComponentDrill
T5C0.0394
; #@! TA.AperFunction,Plated,PTH,ComponentDrill
T6C0.0591
; #@! TA.AperFunction,Plated,PTH,ComponentDrill
T7C0.0669
; #@! TA.AperFunction,Plated,PTH,ComponentDrill
T8C0.1063
%
G90
G05
T1
X2.5163Y-4.4969
X2.5484Y-3.418
X2.5496Y-4.2992
X2.5537Y-4.4173
X2.5551Y-4.4566
X2.5932Y-1.555
X2.6712Y-3.757
X2.6792Y-5.097
X2.6843Y-4.3779
X2.6864Y-4.33
X2.6882Y-3.524
X2.7094Y-4.241
X2.7682Y-4.899
X2.8053Y-3.9879
X2.8874Y-4.022
X2.8894Y-4.167
X2.8899Y-4.0645
X2.8942Y-2.014
X2.9294Y-3.949
X2.9672Y-4.754
X3.0172Y-2.155
X3.0202Y-1.826
X3.0262Y-2.723
X3.0462Y-3.311
X3.0812Y-4.434
X3.0914Y-4.147
X3.1182Y-4.629
X3.2062Y-2.735
X3.2542Y-4.169
X3.2694Y-4.968
X3.3504Y-4.847
X3.3824Y-5.013
X3.3884Y-4.967
X3.4564Y-4.759
X3.4924Y-4.853
X3.5134Y-2.545
X3.5392Y-4.166
X3.5454Y-3.931
X3.5632Y-1.856
X3.6322Y-3.619
X3.6354Y-5.168
X3.6522Y-2.948
X3.6984Y-4.231
X3.7442Y-1.856
X3.7992Y-3.058
X3.8202Y-5.011
X3.8912Y-2.962
X3.9032Y-4.709
X3.9232Y-1.945
X3.9252Y-2.253
X4.0472Y-4.166
X4.0572Y-4.729
X4.0672Y-2.379
X4.1324Y-2.475
X4.1584Y-3.847
X4.1672Y-5.046
X4.1754Y-2.429
X4.1974Y-3.888
X4.2144Y-2.385
X4.2544Y-2.342
X4.2944Y-3.252
X4.3004Y-4.025
X4.3064Y-4.161
X4.3284Y-2.72
X4.3374Y-3.297
X4.3474Y-4.033
X4.3674Y-3.091
X4.3674Y-3.132
X4.3684Y-3.174
X4.3694Y-2.887
X4.3824Y-3.925
X4.3884Y-1.859
X4.4204Y-3.025
X4.4322Y-2.8957
X4.4752Y-4.683
X4.5424Y-3.197
X4.5454Y-3.338
X4.5749Y-4.1545
X4.5844Y-3.37
X4.6034Y-4.089
X4.6092Y-5.06
X4.6114Y-4.188
X4.6284Y-3.324
X4.6314Y-4.049
X4.6344Y-4.008
X4.6494Y-4.227
X4.6614Y-3.45
X4.6974Y-4.221
X4.7094Y-2.854
X4.7704Y-1.671
X4.8064Y-4.548
X4.8084Y-1.79
X4.8164Y-2.512
X4.8204Y-2.831
X4.8544Y-4.479
X4.8704Y-2.732
X4.8754Y-3.351
X4.9072Y-1.914
X4.9182Y-4.2148
X4.9182Y-4.9901
X4.9184Y-2.687
X4.9304Y-2.475
X4.9764Y-2.429
X4.9884Y-2.385
X5.0214Y-2.342
X5.0258Y-2.7256
X5.0362Y-1.911
X5.0372Y-3.304
X5.0742Y-4.709
X5.0772Y-3.88
X5.0772Y-4.303
X5.1022Y-4.08
X5.1512Y-4.82
X5.1624Y-2.808
X5.2344Y-2.755
X5.4104Y-1.668
X5.4244Y-2.674
X5.4794Y-2.864
X5.4964Y-4.633
X5.6642Y-1.897
X5.7752Y-1.734
X5.7812Y-4.36
X5.8262Y-2.99
X5.8552Y-2.49
X5.8672Y-4.223
X6.0292Y-1.731
X6.0352Y-4.214
X6.0442Y-4.363
X6.0552Y-1.883
X6.0562Y-1.573
T2
X3.0903Y-2.37
X3.0903Y-3.87
X3.1136Y-2.3136
X3.1136Y-2.4264
X3.1136Y-3.8136
X3.1136Y-3.9264
X3.17Y-2.2903
X3.17Y-2.4497
X3.17Y-3.7903
X3.17Y-3.9497
X3.2264Y-2.3136
X3.2264Y-2.4264
X3.2264Y-3.8136
X3.2264Y-3.9264
X3.2497Y-2.37
X3.2497Y-3.87
X5.4303Y-2.37
X5.4303Y-3.87
X5.4536Y-2.3136
X5.4536Y-2.4264
X5.4536Y-3.8136
X5.4536Y-3.9264
X5.51Y-2.2903
X5.51Y-2.4497
X5.51Y-3.7903
X5.51Y-3.9497
X5.5664Y-2.3136
X5.5664Y-2.4264
X5.5664Y-3.8136
X5.5664Y-3.9264
X5.5897Y-2.37
X5.5897Y-3.87
T3
X5.6979Y-4.705
X5.7979Y-4.705
X5.8979Y-4.705
T4
X2.45Y-1.79
X2.45Y-2.04
X2.576Y-1.79
X2.6204Y-2.011
X2.662Y-1.788
X2.69Y-3.052
X2.7Y-2.857
X2.789Y-2.305
X2.914Y-3.682
X2.9472Y-4.295
X2.9964Y-3.68
X3.0Y-2.544
X3.2Y-3.12
X3.27Y-3.592
X3.299Y-4.474
X3.523Y-4.47
X3.536Y-2.166
X3.584Y-3.314
X3.585Y-2.7395
X3.614Y-4.504
X3.62Y-2.238
X3.658Y-2.164
X3.7584Y-4.174
X3.7696Y-2.353
X3.8044Y-2.739
X3.8155Y-3.68
X3.8395Y-4.464
X3.9271Y-2.353
X4.03Y-2.74
X4.034Y-3.31
X4.034Y-5.106
X4.0715Y-4.46
X4.078Y-3.744
X4.15Y-2.034
X4.25Y-2.034
X4.25Y-2.74
X4.2605Y-3.741
X4.324Y-4.858
X4.3526Y-4.458
X4.405Y-5.12
X4.4805Y-3.741
X4.5746Y-4.46
X4.648Y-4.84
X4.745Y-2.2575
X4.76Y-3.29
X4.762Y-3.37
X4.762Y-3.45
X4.762Y-3.53
X4.798Y-5.104
X4.805Y-3.705
X4.825Y-2.2575
X4.885Y-3.705
X4.905Y-2.2575
X4.965Y-3.705
X4.985Y-2.2575
X5.026Y-5.14
X5.045Y-3.705
X5.065Y-2.2575
X5.125Y-3.705
X5.145Y-2.2575
X5.174Y-5.208
X5.176Y-2.006
X5.205Y-3.705
X5.225Y-2.2575
X5.254Y-5.186
X5.285Y-3.705
X5.305Y-2.2575
X5.324Y-5.254
X5.365Y-3.705
X5.374Y-4.598
X5.378Y-4.198
X5.43Y-3.29
X5.43Y-3.4
X5.43Y-3.62
X5.432Y-3.516
X5.4494Y-4.133
X5.4494Y-4.237
X5.5694Y-4.165
X5.604Y-3.272
X5.604Y-3.354
X5.606Y-3.436
X5.608Y-3.522
X5.66Y-3.705
X5.6774Y-2.308
X5.74Y-3.705
X5.75Y-2.26
X5.756Y-4.044
X5.82Y-3.705
X5.83Y-2.26
X5.846Y-4.042
X5.9Y-3.705
X5.91Y-2.26
X5.98Y-3.7
X5.99Y-2.26
X6.06Y-3.7
X6.07Y-2.26
X6.102Y-4.038
X6.14Y-3.7
X6.15Y-2.26
X6.182Y-4.036
X6.22Y-3.7
X6.23Y-2.26
T5
X2.4877Y-2.339
X2.4877Y-2.439
X2.4877Y-2.539
X2.4877Y-2.639
X2.4877Y-2.739
X2.4877Y-2.839
X2.4877Y-2.939
X2.4877Y-3.039
X2.4877Y-3.139
X2.4877Y-3.239
X2.5877Y-2.339
X2.5877Y-2.439
X2.5877Y-2.539
X2.5877Y-2.639
X2.5877Y-2.739
X2.5877Y-2.839
X2.5877Y-2.939
X2.5877Y-3.039
X2.5877Y-3.139
X2.5877Y-3.239
X2.7834Y-1.5013
X2.7834Y-1.6013
X2.8834Y-1.5013
X2.8834Y-1.6013
X2.9834Y-1.5013
X2.9834Y-1.6013
X3.0834Y-1.5013
X3.0834Y-1.6013
X3.1834Y-1.5013
X3.1834Y-1.6013
X3.2834Y-1.5013
X3.2834Y-1.6013
X3.3834Y-1.5013
X3.3834Y-1.6013
X3.4834Y-1.5013
X3.4834Y-1.6013
X3.5834Y-1.5013
X3.5834Y-1.6013
X3.6834Y-1.5013
X3.6834Y-1.6013
X3.7834Y-1.5013
X3.7834Y-1.6013
X3.8834Y-1.5013
X3.8834Y-1.6013
X3.9834Y-1.5013
X3.9834Y-1.6013
X4.0834Y-1.5013
X4.0834Y-1.6013
X4.1834Y-1.5013
X4.1834Y-1.6013
X4.2834Y-1.5013
X4.2834Y-1.6013
X4.3834Y-1.5013
X4.3834Y-1.6013
X4.4834Y-1.5013
X4.4834Y-1.6013
X4.5834Y-1.5013
X4.5834Y-1.6013
X4.6834Y-1.5013
X4.6834Y-1.6013
X4.7834Y-1.5013
X4.7834Y-1.6013
X4.8834Y-1.5013
X4.8834Y-1.6013
X4.9834Y-1.5013
X4.9834Y-1.6013
X5.0834Y-1.5013
X5.0834Y-1.6013
X5.1834Y-1.5013
X5.1834Y-1.6013
X5.2834Y-1.5013
X5.2834Y-1.6013
X5.3834Y-1.5013
X5.3834Y-1.6013
X5.4834Y-1.5013
X5.4834Y-1.6013
X5.5834Y-1.5013
X5.5834Y-1.6013
X5.6834Y-1.5013
X5.6834Y-1.6013
X5.7834Y-1.5013
X5.7834Y-1.6013
X5.8834Y-1.5013
X5.8834Y-1.6013
T6
X3.0684Y-5.097
X5.6104Y-5.089
X6.0808Y-2.737
X6.0828Y-3.229
T7
X2.9684Y-4.997
X2.9684Y-5.197
X3.1684Y-4.997
X3.1684Y-5.197
X5.5104Y-4.989
X5.5104Y-5.189
X5.7104Y-4.989
X5.7104Y-5.189
X5.9808Y-2.637
X5.9808Y-2.837
X5.9828Y-3.129
X5.9828Y-3.329
X6.1808Y-2.637
X6.1808Y-2.837
X6.1828Y-3.129
X6.1828Y-3.329
T8
X3.17Y-2.37
X3.17Y-3.87
X5.51Y-2.37
X5.51Y-3.87
T0
M30
