%TF.GenerationSoftware,KiCad,Pcbnew,(6.0.5)*%
%TF.CreationDate,2022-06-30T03:28:59+08:00*%
%TF.ProjectId,lkt100a1_bclamp,6c6b7431-3030-4613-915f-62636c616d70,rev?*%
%TF.SameCoordinates,Original*%
%TF.FileFunction,Paste,Bot*%
%TF.FilePolarity,Positive*%
%FSLAX46Y46*%
G04 Gerber Fmt 4.6, Leading zero omitted, Abs format (unit mm)*
G04 Created by KiCad (PCBNEW (6.0.5)) date 2022-06-30 03:28:59*
%MOMM*%
%LPD*%
G01*
G04 APERTURE LIST*
G04 Aperture macros list*
%AMRoundRect*
0 Rectangle with rounded corners*
0 $1 Rounding radius*
0 $2 $3 $4 $5 $6 $7 $8 $9 X,Y pos of 4 corners*
0 Add a 4 corners polygon primitive as box body*
4,1,4,$2,$3,$4,$5,$6,$7,$8,$9,$2,$3,0*
0 Add four circle primitives for the rounded corners*
1,1,$1+$1,$2,$3*
1,1,$1+$1,$4,$5*
1,1,$1+$1,$6,$7*
1,1,$1+$1,$8,$9*
0 Add four rect primitives between the rounded corners*
20,1,$1+$1,$2,$3,$4,$5,0*
20,1,$1+$1,$4,$5,$6,$7,0*
20,1,$1+$1,$6,$7,$8,$9,0*
20,1,$1+$1,$8,$9,$2,$3,0*%
G04 Aperture macros list end*
%ADD10RoundRect,0.200000X0.200000X0.275000X-0.200000X0.275000X-0.200000X-0.275000X0.200000X-0.275000X0*%
%ADD11RoundRect,0.200000X-0.275000X0.200000X-0.275000X-0.200000X0.275000X-0.200000X0.275000X0.200000X0*%
%ADD12RoundRect,0.250000X0.450000X-0.262500X0.450000X0.262500X-0.450000X0.262500X-0.450000X-0.262500X0*%
%ADD13RoundRect,0.250000X0.262500X0.450000X-0.262500X0.450000X-0.262500X-0.450000X0.262500X-0.450000X0*%
%ADD14RoundRect,0.200000X0.275000X-0.200000X0.275000X0.200000X-0.275000X0.200000X-0.275000X-0.200000X0*%
%ADD15RoundRect,0.150000X0.587500X0.150000X-0.587500X0.150000X-0.587500X-0.150000X0.587500X-0.150000X0*%
%ADD16RoundRect,0.150000X-0.512500X-0.150000X0.512500X-0.150000X0.512500X0.150000X-0.512500X0.150000X0*%
%ADD17RoundRect,0.200000X-0.200000X-0.275000X0.200000X-0.275000X0.200000X0.275000X-0.200000X0.275000X0*%
%ADD18RoundRect,0.243750X-0.243750X-0.456250X0.243750X-0.456250X0.243750X0.456250X-0.243750X0.456250X0*%
%ADD19RoundRect,0.250000X0.312500X1.450000X-0.312500X1.450000X-0.312500X-1.450000X0.312500X-1.450000X0*%
%ADD20RoundRect,0.150000X-0.150000X0.587500X-0.150000X-0.587500X0.150000X-0.587500X0.150000X0.587500X0*%
%ADD21R,1.000000X0.400000*%
%ADD22RoundRect,0.225000X-0.250000X0.225000X-0.250000X-0.225000X0.250000X-0.225000X0.250000X0.225000X0*%
%ADD23RoundRect,0.250000X-0.262500X-0.450000X0.262500X-0.450000X0.262500X0.450000X-0.262500X0.450000X0*%
%ADD24RoundRect,0.243750X0.243750X0.456250X-0.243750X0.456250X-0.243750X-0.456250X0.243750X-0.456250X0*%
%ADD25RoundRect,0.100000X0.637500X0.100000X-0.637500X0.100000X-0.637500X-0.100000X0.637500X-0.100000X0*%
%ADD26RoundRect,0.150000X-0.587500X-0.150000X0.587500X-0.150000X0.587500X0.150000X-0.587500X0.150000X0*%
%ADD27R,1.000000X3.000000*%
%ADD28RoundRect,0.150000X0.150000X-0.587500X0.150000X0.587500X-0.150000X0.587500X-0.150000X-0.587500X0*%
%ADD29RoundRect,0.225000X0.250000X-0.225000X0.250000X0.225000X-0.250000X0.225000X-0.250000X-0.225000X0*%
%ADD30RoundRect,0.243750X-0.456250X0.243750X-0.456250X-0.243750X0.456250X-0.243750X0.456250X0.243750X0*%
G04 APERTURE END LIST*
D10*
%TO.C,R114*%
X89582000Y-63168809D03*
X87932000Y-63168809D03*
%TD*%
D11*
%TO.C,R60*%
X157832800Y-117969809D03*
X157832800Y-119619809D03*
%TD*%
D12*
%TO.C,R98*%
X111464600Y-46021909D03*
X111464600Y-44196909D03*
%TD*%
D13*
%TO.C,R123*%
X119336700Y-74040009D03*
X117511700Y-74040009D03*
%TD*%
D14*
%TO.C,R128*%
X127517400Y-76021209D03*
X127517400Y-74371209D03*
%TD*%
D15*
%TO.C,Q8*%
X90151700Y-59501009D03*
X90151700Y-61401009D03*
X88276700Y-60451009D03*
%TD*%
D16*
%TO.C,U3*%
X110301700Y-74278809D03*
X110301700Y-73328809D03*
X110301700Y-72378809D03*
X112576700Y-72378809D03*
X112576700Y-74278809D03*
%TD*%
D17*
%TO.C,R39*%
X87842600Y-132002809D03*
X89492600Y-132002809D03*
%TD*%
%TO.C,R116*%
X91107000Y-63143409D03*
X92757000Y-63143409D03*
%TD*%
D18*
%TO.C,D5*%
X131151900Y-60857409D03*
X133026900Y-60857409D03*
%TD*%
D14*
%TO.C,R59*%
X141221200Y-122769409D03*
X141221200Y-121119409D03*
%TD*%
D13*
%TO.C,R124*%
X119336700Y-79983609D03*
X117511700Y-79983609D03*
%TD*%
D19*
%TO.C,D3*%
X128588100Y-66216809D03*
X124313100Y-66216809D03*
%TD*%
D20*
%TO.C,Q10*%
X125754600Y-70765709D03*
X127654600Y-70765709D03*
X126704600Y-72640709D03*
%TD*%
D21*
%TO.C,U1*%
X121015600Y-100325009D03*
X121015600Y-100975009D03*
X121015600Y-101625009D03*
X121015600Y-102275009D03*
X121015600Y-102925009D03*
X121015600Y-103575009D03*
X121015600Y-104225009D03*
X121015600Y-104875009D03*
X121015600Y-105525009D03*
X121015600Y-106175009D03*
X115215600Y-106175009D03*
X115215600Y-105525009D03*
X115215600Y-104875009D03*
X115215600Y-104225009D03*
X115215600Y-103575009D03*
X115215600Y-102925009D03*
X115215600Y-102275009D03*
X115215600Y-101625009D03*
X115215600Y-100975009D03*
X115215600Y-100325009D03*
%TD*%
D20*
%TO.C,Q2*%
X87756200Y-128271309D03*
X89656200Y-128271309D03*
X88706200Y-130146309D03*
%TD*%
D22*
%TO.C,C8*%
X114510700Y-72757009D03*
X114510700Y-74307009D03*
%TD*%
D17*
%TO.C,R108*%
X111347000Y-100862409D03*
X112997000Y-100862409D03*
%TD*%
D23*
%TO.C,R90*%
X123097800Y-105637609D03*
X124922800Y-105637609D03*
%TD*%
D24*
%TO.C,D2*%
X155163500Y-117829609D03*
X153288500Y-117829609D03*
%TD*%
D11*
%TO.C,R132*%
X124390900Y-78432209D03*
X124390900Y-80082209D03*
%TD*%
D23*
%TO.C,R121*%
X104913300Y-73938409D03*
X106738300Y-73938409D03*
%TD*%
D25*
%TO.C,U2*%
X114985600Y-75879809D03*
X114985600Y-76529809D03*
X114985600Y-77179809D03*
X114985600Y-77829809D03*
X114985600Y-78479809D03*
X114985600Y-79129809D03*
X114985600Y-79779809D03*
X114985600Y-80429809D03*
X109260600Y-80429809D03*
X109260600Y-79779809D03*
X109260600Y-79129809D03*
X109260600Y-78479809D03*
X109260600Y-77829809D03*
X109260600Y-77179809D03*
X109260600Y-76529809D03*
X109260600Y-75879809D03*
%TD*%
D26*
%TO.C,Q6*%
X153491700Y-121573609D03*
X153491700Y-119673609D03*
X155366700Y-120623609D03*
%TD*%
D18*
%TO.C,D4*%
X131162800Y-63016409D03*
X133037800Y-63016409D03*
%TD*%
D20*
%TO.C,Q3*%
X84251000Y-124308909D03*
X86151000Y-124308909D03*
X85201000Y-126183909D03*
%TD*%
D27*
%TO.C,K1*%
X132699000Y-65958009D03*
X135239000Y-65958009D03*
X137779000Y-65958009D03*
X140319000Y-65958009D03*
X142859000Y-65958009D03*
X142859000Y-75518009D03*
X140319000Y-75518009D03*
X137779000Y-75518009D03*
X135239000Y-75518009D03*
X132699000Y-75518009D03*
%TD*%
D10*
%TO.C,R77*%
X145716000Y-124078009D03*
X144066000Y-124078009D03*
%TD*%
%TO.C,R131*%
X136165600Y-60857409D03*
X134515600Y-60857409D03*
%TD*%
D28*
%TO.C,Q9*%
X122574600Y-67205109D03*
X120674600Y-67205109D03*
X121624600Y-65330109D03*
%TD*%
D11*
%TO.C,R133*%
X122765300Y-78381409D03*
X122765300Y-80031409D03*
%TD*%
D29*
%TO.C,C1*%
X148091400Y-124853009D03*
X148091400Y-123303009D03*
%TD*%
D23*
%TO.C,R119*%
X104913300Y-78002409D03*
X106738300Y-78002409D03*
%TD*%
D17*
%TO.C,R107*%
X111385600Y-102437209D03*
X113035600Y-102437209D03*
%TD*%
D10*
%TO.C,R130*%
X136153400Y-63016409D03*
X134503400Y-63016409D03*
%TD*%
D26*
%TO.C,Q11*%
X126298200Y-80258009D03*
X126298200Y-78358009D03*
X128173200Y-79308009D03*
%TD*%
D20*
%TO.C,Q5*%
X137274000Y-119482909D03*
X139174000Y-119482909D03*
X138224000Y-121357909D03*
%TD*%
D17*
%TO.C,R67*%
X137157200Y-123620809D03*
X138807200Y-123620809D03*
%TD*%
D14*
%TO.C,R115*%
X92160600Y-61199809D03*
X92160600Y-59549809D03*
%TD*%
D15*
%TO.C,Q4*%
X85935300Y-128055609D03*
X85935300Y-129955609D03*
X84060300Y-129005609D03*
%TD*%
D30*
%TO.C,D1*%
X141068800Y-117603309D03*
X141068800Y-119478309D03*
%TD*%
D17*
%TO.C,R23*%
X87728800Y-122300009D03*
X89378800Y-122300009D03*
%TD*%
D10*
%TO.C,R118*%
X122449600Y-70636409D03*
X120799600Y-70636409D03*
%TD*%
D17*
%TO.C,R68*%
X153604200Y-123570009D03*
X155254200Y-123570009D03*
%TD*%
D20*
%TO.C,Q1*%
X87756200Y-124308909D03*
X89656200Y-124308909D03*
X88706200Y-126183909D03*
%TD*%
D13*
%TO.C,R125*%
X119336700Y-76021209D03*
X117511700Y-76021209D03*
%TD*%
D23*
%TO.C,R122*%
X104913300Y-79983609D03*
X106738300Y-79983609D03*
%TD*%
D14*
%TO.C,R129*%
X125841000Y-75982609D03*
X125841000Y-74332609D03*
%TD*%
D17*
%TO.C,R40*%
X83868000Y-132002809D03*
X85518000Y-132002809D03*
%TD*%
D13*
%TO.C,R126*%
X119336700Y-78002409D03*
X117511700Y-78002409D03*
%TD*%
D17*
%TO.C,R30*%
X84528400Y-122198409D03*
X86178400Y-122198409D03*
%TD*%
D23*
%TO.C,R89*%
X123097800Y-103656409D03*
X124922800Y-103656409D03*
%TD*%
%TO.C,R120*%
X104913300Y-75970409D03*
X106738300Y-75970409D03*
%TD*%
%TO.C,R88*%
X123097800Y-101675209D03*
X124922800Y-101675209D03*
%TD*%
D17*
%TO.C,R106*%
X111359200Y-104012009D03*
X113009200Y-104012009D03*
%TD*%
D10*
%TO.C,R127*%
X122398800Y-69010809D03*
X120748800Y-69010809D03*
%TD*%
D11*
%TO.C,R117*%
X108492800Y-72783209D03*
X108492800Y-74433209D03*
%TD*%
D17*
%TO.C,R105*%
X111347000Y-105586809D03*
X112997000Y-105586809D03*
%TD*%
M02*
