%TF.GenerationSoftware,KiCad,Pcbnew,(6.0.5)*%
%TF.CreationDate,2022-06-30T03:28:59+08:00*%
%TF.ProjectId,lkt100a1_bclamp,6c6b7431-3030-4613-915f-62636c616d70,rev?*%
%TF.SameCoordinates,Original*%
%TF.FileFunction,Paste,Top*%
%TF.FilePolarity,Positive*%
%FSLAX46Y46*%
G04 Gerber Fmt 4.6, Leading zero omitted, Abs format (unit mm)*
G04 Created by KiCad (PCBNEW (6.0.5)) date 2022-06-30 03:28:59*
%MOMM*%
%LPD*%
G01*
G04 APERTURE LIST*
G04 Aperture macros list*
%AMRoundRect*
0 Rectangle with rounded corners*
0 $1 Rounding radius*
0 $2 $3 $4 $5 $6 $7 $8 $9 X,Y pos of 4 corners*
0 Add a 4 corners polygon primitive as box body*
4,1,4,$2,$3,$4,$5,$6,$7,$8,$9,$2,$3,0*
0 Add four circle primitives for the rounded corners*
1,1,$1+$1,$2,$3*
1,1,$1+$1,$4,$5*
1,1,$1+$1,$6,$7*
1,1,$1+$1,$8,$9*
0 Add four rect primitives between the rounded corners*
20,1,$1+$1,$2,$3,$4,$5,0*
20,1,$1+$1,$4,$5,$6,$7,0*
20,1,$1+$1,$6,$7,$8,$9,0*
20,1,$1+$1,$8,$9,$2,$3,0*%
G04 Aperture macros list end*
%ADD10RoundRect,0.250000X-0.450000X0.262500X-0.450000X-0.262500X0.450000X-0.262500X0.450000X0.262500X0*%
%ADD11RoundRect,0.250000X0.262500X0.450000X-0.262500X0.450000X-0.262500X-0.450000X0.262500X-0.450000X0*%
%ADD12RoundRect,0.250000X0.450000X-0.262500X0.450000X0.262500X-0.450000X0.262500X-0.450000X-0.262500X0*%
%ADD13RoundRect,0.250000X-0.262500X-0.450000X0.262500X-0.450000X0.262500X0.450000X-0.262500X0.450000X0*%
%ADD14RoundRect,0.225000X0.250000X-0.225000X0.250000X0.225000X-0.250000X0.225000X-0.250000X-0.225000X0*%
%ADD15RoundRect,0.200000X-0.275000X0.200000X-0.275000X-0.200000X0.275000X-0.200000X0.275000X0.200000X0*%
%ADD16RoundRect,0.150000X0.150000X-0.587500X0.150000X0.587500X-0.150000X0.587500X-0.150000X-0.587500X0*%
%ADD17RoundRect,0.250000X-0.250000X-0.475000X0.250000X-0.475000X0.250000X0.475000X-0.250000X0.475000X0*%
%ADD18RoundRect,0.225000X-0.225000X-0.250000X0.225000X-0.250000X0.225000X0.250000X-0.225000X0.250000X0*%
%ADD19R,2.000000X0.610000*%
%ADD20R,3.600000X2.680000*%
%ADD21RoundRect,0.200000X0.200000X0.275000X-0.200000X0.275000X-0.200000X-0.275000X0.200000X-0.275000X0*%
G04 APERTURE END LIST*
D10*
%TO.C,R18*%
X95615000Y-101931109D03*
X95615000Y-103756109D03*
%TD*%
%TO.C,R37*%
X146110200Y-53467909D03*
X146110200Y-55292909D03*
%TD*%
%TO.C,R97*%
X89773000Y-51131109D03*
X89773000Y-52956109D03*
%TD*%
D11*
%TO.C,R26*%
X72346700Y-77596009D03*
X70521700Y-77596009D03*
%TD*%
D12*
%TO.C,R70*%
X132648200Y-55291009D03*
X132648200Y-53466009D03*
%TD*%
D10*
%TO.C,R55*%
X127974600Y-90221709D03*
X127974600Y-92046709D03*
%TD*%
D13*
%TO.C,R8*%
X139812900Y-94004409D03*
X141637900Y-94004409D03*
%TD*%
D10*
%TO.C,R64*%
X121878600Y-125705509D03*
X121878600Y-127530509D03*
%TD*%
%TO.C,R1*%
X157997400Y-90094709D03*
X157997400Y-91919709D03*
%TD*%
%TO.C,R33*%
X154136600Y-53467909D03*
X154136600Y-55292909D03*
%TD*%
%TO.C,R52*%
X133715000Y-86665709D03*
X133715000Y-88490709D03*
%TD*%
%TO.C,R6*%
X147837400Y-90196309D03*
X147837400Y-92021309D03*
%TD*%
%TO.C,R10*%
X137829800Y-79274309D03*
X137829800Y-81099309D03*
%TD*%
D12*
%TO.C,R83*%
X83829400Y-111528509D03*
X83829400Y-109703509D03*
%TD*%
D10*
%TO.C,R11*%
X133765800Y-79248909D03*
X133765800Y-81073909D03*
%TD*%
%TO.C,R50*%
X135797800Y-129464709D03*
X135797800Y-131289709D03*
%TD*%
%TO.C,R65*%
X131581400Y-128397909D03*
X131581400Y-130222909D03*
%TD*%
%TO.C,R22*%
X80730600Y-49149909D03*
X80730600Y-50974909D03*
%TD*%
%TO.C,R7*%
X145856200Y-90247109D03*
X145856200Y-92072109D03*
%TD*%
%TO.C,R91*%
X74025000Y-89383509D03*
X74025000Y-91208509D03*
%TD*%
%TO.C,R96*%
X95259400Y-55093509D03*
X95259400Y-56918509D03*
%TD*%
%TO.C,R86*%
X91093800Y-65661809D03*
X91093800Y-67486809D03*
%TD*%
D12*
%TO.C,R73*%
X126653800Y-55292909D03*
X126653800Y-53467909D03*
%TD*%
D10*
%TO.C,R56*%
X125688600Y-90296009D03*
X125688600Y-92121009D03*
%TD*%
%TO.C,R58*%
X122894600Y-90272509D03*
X122894600Y-92097509D03*
%TD*%
%TO.C,R92*%
X76107800Y-89332709D03*
X76107800Y-91157709D03*
%TD*%
%TO.C,R49*%
X133562600Y-127839109D03*
X133562600Y-129664109D03*
%TD*%
%TO.C,R5*%
X149869400Y-90196309D03*
X149869400Y-92021309D03*
%TD*%
%TO.C,R17*%
X91805000Y-110465509D03*
X91805000Y-112290509D03*
%TD*%
D12*
%TO.C,R110*%
X137550400Y-45336109D03*
X137550400Y-43511109D03*
%TD*%
D10*
%TO.C,R12*%
X131759200Y-79299709D03*
X131759200Y-81124709D03*
%TD*%
D12*
%TO.C,R111*%
X133511800Y-45336109D03*
X133511800Y-43511109D03*
%TD*%
D10*
%TO.C,R54*%
X130133600Y-90247109D03*
X130133600Y-92072109D03*
%TD*%
%TO.C,R43*%
X102523800Y-80137909D03*
X102523800Y-81962909D03*
%TD*%
D14*
%TO.C,C2*%
X72043800Y-112064409D03*
X72043800Y-110514409D03*
%TD*%
D10*
%TO.C,R34*%
X152104600Y-53467909D03*
X152104600Y-55292909D03*
%TD*%
D12*
%TO.C,R76*%
X120456200Y-55291009D03*
X120456200Y-53466009D03*
%TD*%
D10*
%TO.C,R2*%
X155965400Y-90094709D03*
X155965400Y-91919709D03*
%TD*%
D13*
%TO.C,R45*%
X136612500Y-102742009D03*
X138437500Y-102742009D03*
%TD*%
D11*
%TO.C,R94*%
X67012700Y-43179009D03*
X65187700Y-43179009D03*
%TD*%
D10*
%TO.C,R47*%
X102625400Y-125807109D03*
X102625400Y-127632109D03*
%TD*%
%TO.C,R66*%
X111921800Y-126164609D03*
X111921800Y-127989609D03*
%TD*%
D15*
%TO.C,R109*%
X75980800Y-101625409D03*
X75980800Y-103275409D03*
%TD*%
D16*
%TO.C,Q7*%
X70382600Y-101291909D03*
X72282600Y-101291909D03*
X71332600Y-99416909D03*
%TD*%
D14*
%TO.C,C3*%
X70443600Y-113296009D03*
X70443600Y-111746009D03*
%TD*%
D12*
%TO.C,R104*%
X123377200Y-45361509D03*
X123377200Y-43536509D03*
%TD*%
D11*
%TO.C,R29*%
X64091700Y-48386009D03*
X62266700Y-48386009D03*
%TD*%
D12*
%TO.C,R78*%
X96885000Y-91360909D03*
X96885000Y-89535909D03*
%TD*%
%TO.C,R113*%
X125409200Y-45386909D03*
X125409200Y-43561909D03*
%TD*%
D11*
%TO.C,R93*%
X71711700Y-45465009D03*
X69886700Y-45465009D03*
%TD*%
D10*
%TO.C,R53*%
X132292600Y-90170909D03*
X132292600Y-91995909D03*
%TD*%
D13*
%TO.C,R46*%
X82764500Y-48894009D03*
X84589500Y-48894009D03*
%TD*%
D14*
%TO.C,C4*%
X68868800Y-114083409D03*
X68868800Y-112533409D03*
%TD*%
D12*
%TO.C,R74*%
X124621800Y-55292909D03*
X124621800Y-53467909D03*
%TD*%
D10*
%TO.C,R28*%
X74990200Y-105182309D03*
X74990200Y-107007309D03*
%TD*%
D12*
%TO.C,R103*%
X127415800Y-45386909D03*
X127415800Y-43561909D03*
%TD*%
%TO.C,R82*%
X97596200Y-111325309D03*
X97596200Y-109500309D03*
%TD*%
D10*
%TO.C,R14*%
X157032200Y-98679909D03*
X157032200Y-100504909D03*
%TD*%
D17*
%TO.C,C5*%
X70077800Y-105840809D03*
X71977800Y-105840809D03*
%TD*%
D10*
%TO.C,R61*%
X131479800Y-46965509D03*
X131479800Y-48790509D03*
%TD*%
%TO.C,R44*%
X108010200Y-47727509D03*
X108010200Y-49552509D03*
%TD*%
%TO.C,R9*%
X135797800Y-79250809D03*
X135797800Y-81075809D03*
%TD*%
%TO.C,R31*%
X158251400Y-53518709D03*
X158251400Y-55343709D03*
%TD*%
D12*
%TO.C,R79*%
X108213400Y-92986509D03*
X108213400Y-91161509D03*
%TD*%
D10*
%TO.C,R19*%
X91093800Y-80239509D03*
X91093800Y-82064509D03*
%TD*%
%TO.C,R87*%
X102371400Y-65710709D03*
X102371400Y-67535709D03*
%TD*%
D11*
%TO.C,R24*%
X85249900Y-79272409D03*
X83424900Y-79272409D03*
%TD*%
D10*
%TO.C,R35*%
X150072600Y-53467909D03*
X150072600Y-55292909D03*
%TD*%
D12*
%TO.C,R72*%
X128635000Y-55292909D03*
X128635000Y-53467909D03*
%TD*%
D10*
%TO.C,R51*%
X135188200Y-90196309D03*
X135188200Y-92021309D03*
%TD*%
%TO.C,R3*%
X153933400Y-90094709D03*
X153933400Y-91919709D03*
%TD*%
D12*
%TO.C,R102*%
X131479800Y-45361509D03*
X131479800Y-43536509D03*
%TD*%
D10*
%TO.C,R36*%
X148091400Y-53467909D03*
X148091400Y-55292909D03*
%TD*%
%TO.C,R85*%
X96631000Y-65659909D03*
X96631000Y-67484909D03*
%TD*%
%TO.C,R62*%
X118170200Y-119050709D03*
X118170200Y-120875709D03*
%TD*%
%TO.C,R16*%
X148447000Y-98832309D03*
X148447000Y-100657309D03*
%TD*%
%TO.C,R42*%
X103641400Y-91110709D03*
X103641400Y-92935709D03*
%TD*%
%TO.C,R41*%
X136559800Y-112903909D03*
X136559800Y-114728909D03*
%TD*%
%TO.C,R13*%
X155000200Y-98679909D03*
X155000200Y-100504909D03*
%TD*%
%TO.C,R15*%
X146262600Y-98832309D03*
X146262600Y-100657309D03*
%TD*%
%TO.C,R95*%
X92871800Y-51080309D03*
X92871800Y-52905309D03*
%TD*%
%TO.C,R84*%
X107959400Y-65710709D03*
X107959400Y-67535709D03*
%TD*%
D12*
%TO.C,R69*%
X134680200Y-55292909D03*
X134680200Y-53467909D03*
%TD*%
%TO.C,R81*%
X110499400Y-111122109D03*
X110499400Y-109297109D03*
%TD*%
D18*
%TO.C,C6*%
X70100400Y-107720409D03*
X71650400Y-107720409D03*
%TD*%
D11*
%TO.C,R38*%
X146159100Y-61136809D03*
X144334100Y-61136809D03*
%TD*%
D10*
%TO.C,R57*%
X123936000Y-86970509D03*
X123936000Y-88795509D03*
%TD*%
D14*
%TO.C,C7*%
X74406000Y-103237609D03*
X74406000Y-101687609D03*
%TD*%
D13*
%TO.C,R21*%
X132700900Y-106704409D03*
X134525900Y-106704409D03*
%TD*%
D11*
%TO.C,R27*%
X72600700Y-72516009D03*
X70775700Y-72516009D03*
%TD*%
D10*
%TO.C,R20*%
X105368600Y-47727509D03*
X105368600Y-49552509D03*
%TD*%
D19*
%TO.C,J3*%
X66448200Y-104198809D03*
X66448200Y-105198809D03*
X66448200Y-106198809D03*
X66448200Y-107198809D03*
X66448200Y-108198809D03*
X66448200Y-109198809D03*
X66448200Y-110198809D03*
X66448200Y-111198809D03*
X66448200Y-112198809D03*
X66448200Y-113198809D03*
X66448200Y-114198809D03*
X66448200Y-115198809D03*
X66448200Y-116198809D03*
X66448200Y-117198809D03*
X66448200Y-118198809D03*
X66448200Y-119198809D03*
X66448200Y-120198809D03*
X66448200Y-121198809D03*
D20*
X63648200Y-101208809D03*
X63648200Y-124188809D03*
%TD*%
D12*
%TO.C,R101*%
X135518400Y-45336109D03*
X135518400Y-43511109D03*
%TD*%
D10*
%TO.C,R4*%
X151901400Y-90096609D03*
X151901400Y-91921609D03*
%TD*%
D12*
%TO.C,R71*%
X130616200Y-55292909D03*
X130616200Y-53467909D03*
%TD*%
D10*
%TO.C,R32*%
X156168600Y-53467909D03*
X156168600Y-55292909D03*
%TD*%
D12*
%TO.C,R80*%
X83118200Y-89176509D03*
X83118200Y-87351509D03*
%TD*%
D21*
%TO.C,R99*%
X72106800Y-103097609D03*
X70456800Y-103097609D03*
%TD*%
D10*
%TO.C,R63*%
X109940600Y-119507909D03*
X109940600Y-121332909D03*
%TD*%
D12*
%TO.C,R112*%
X129447800Y-45386909D03*
X129447800Y-43561909D03*
%TD*%
%TO.C,R75*%
X122539000Y-55292909D03*
X122539000Y-53467909D03*
%TD*%
D10*
%TO.C,R25*%
X76209400Y-60630709D03*
X76209400Y-62455709D03*
%TD*%
%TO.C,R48*%
X127720600Y-126619909D03*
X127720600Y-128444909D03*
%TD*%
D15*
%TO.C,R100*%
X68792600Y-99885009D03*
X68792600Y-101535009D03*
%TD*%
M02*
