%TF.GenerationSoftware,KiCad,Pcbnew,(6.0.5)*%
%TF.CreationDate,2022-06-26T15:42:30+08:00*%
%TF.ProjectId,lkt100a1,6c6b7431-3030-4613-912e-6b696361645f,rev?*%
%TF.SameCoordinates,Original*%
%TF.FileFunction,Paste,Bot*%
%TF.FilePolarity,Positive*%
%FSLAX46Y46*%
G04 Gerber Fmt 4.6, Leading zero omitted, Abs format (unit mm)*
G04 Created by KiCad (PCBNEW (6.0.5)) date 2022-06-26 15:42:30*
%MOMM*%
%LPD*%
G01*
G04 APERTURE LIST*
G04 Aperture macros list*
%AMRoundRect*
0 Rectangle with rounded corners*
0 $1 Rounding radius*
0 $2 $3 $4 $5 $6 $7 $8 $9 X,Y pos of 4 corners*
0 Add a 4 corners polygon primitive as box body*
4,1,4,$2,$3,$4,$5,$6,$7,$8,$9,$2,$3,0*
0 Add four circle primitives for the rounded corners*
1,1,$1+$1,$2,$3*
1,1,$1+$1,$4,$5*
1,1,$1+$1,$6,$7*
1,1,$1+$1,$8,$9*
0 Add four rect primitives between the rounded corners*
20,1,$1+$1,$2,$3,$4,$5,0*
20,1,$1+$1,$4,$5,$6,$7,0*
20,1,$1+$1,$6,$7,$8,$9,0*
20,1,$1+$1,$8,$9,$2,$3,0*%
%AMOutline4P*
0 Free polygon, 4 corners , with rotation*
0 The origin of the aperture is its center*
0 number of corners: always 4*
0 $1 to $8 corner X, Y*
0 $9 Rotation angle, in degrees counterclockwise*
0 create outline with 4 corners*
4,1,4,$1,$2,$3,$4,$5,$6,$7,$8,$1,$2,$9*%
%AMFreePoly0*
4,1,9,3.862500,-0.866500,0.737500,-0.866500,0.737500,-0.450000,-0.737500,-0.450000,-0.737500,0.450000,0.737500,0.450000,0.737500,0.866500,3.862500,0.866500,3.862500,-0.866500,3.862500,-0.866500,$1*%
G04 Aperture macros list end*
%ADD10RoundRect,0.200000X0.275000X-0.200000X0.275000X0.200000X-0.275000X0.200000X-0.275000X-0.200000X0*%
%ADD11RoundRect,0.200000X-0.275000X0.200000X-0.275000X-0.200000X0.275000X-0.200000X0.275000X0.200000X0*%
%ADD12RoundRect,0.200000X-0.200000X-0.275000X0.200000X-0.275000X0.200000X0.275000X-0.200000X0.275000X0*%
%ADD13RoundRect,0.250000X-0.262500X-0.450000X0.262500X-0.450000X0.262500X0.450000X-0.262500X0.450000X0*%
%ADD14R,0.900000X1.300000*%
%ADD15FreePoly0,270.000000*%
%ADD16RoundRect,0.150000X-0.150000X0.512500X-0.150000X-0.512500X0.150000X-0.512500X0.150000X0.512500X0*%
%ADD17RoundRect,0.243750X-0.243750X-0.456250X0.243750X-0.456250X0.243750X0.456250X-0.243750X0.456250X0*%
%ADD18RoundRect,0.150000X0.150000X-0.800000X0.150000X0.800000X-0.150000X0.800000X-0.150000X-0.800000X0*%
%ADD19RoundRect,0.250000X0.450000X-0.262500X0.450000X0.262500X-0.450000X0.262500X-0.450000X-0.262500X0*%
%ADD20Outline4P,-1.800000X-1.150000X1.800000X-0.550000X1.800000X0.550000X-1.800000X1.150000X270.000000*%
%ADD21Outline4P,-1.800000X-1.150000X1.800000X-0.550000X1.800000X0.550000X-1.800000X1.150000X90.000000*%
%ADD22RoundRect,0.225000X0.225000X0.250000X-0.225000X0.250000X-0.225000X-0.250000X0.225000X-0.250000X0*%
%ADD23RoundRect,0.200000X0.200000X0.275000X-0.200000X0.275000X-0.200000X-0.275000X0.200000X-0.275000X0*%
%ADD24RoundRect,0.225000X-0.250000X0.225000X-0.250000X-0.225000X0.250000X-0.225000X0.250000X0.225000X0*%
%ADD25RoundRect,0.075000X0.075000X-0.700000X0.075000X0.700000X-0.075000X0.700000X-0.075000X-0.700000X0*%
%ADD26RoundRect,0.075000X0.700000X-0.075000X0.700000X0.075000X-0.700000X0.075000X-0.700000X-0.075000X0*%
%ADD27RoundRect,0.225000X0.250000X-0.225000X0.250000X0.225000X-0.250000X0.225000X-0.250000X-0.225000X0*%
%ADD28R,1.400000X1.200000*%
%ADD29R,1.700000X1.300000*%
%ADD30R,1.300000X0.900000*%
%ADD31FreePoly0,180.000000*%
%ADD32RoundRect,0.225000X-0.225000X-0.250000X0.225000X-0.250000X0.225000X0.250000X-0.225000X0.250000X0*%
%ADD33R,1.300000X1.700000*%
G04 APERTURE END LIST*
D10*
%TO.C,R108*%
X144103600Y-62024809D03*
X144103600Y-60374809D03*
%TD*%
D11*
%TO.C,R51*%
X102756000Y-88710000D03*
X102756000Y-90360000D03*
%TD*%
%TO.C,R61*%
X103314200Y-109563400D03*
X103314200Y-111213400D03*
%TD*%
D12*
%TO.C,R99*%
X120637800Y-64820800D03*
X122287800Y-64820800D03*
%TD*%
D13*
%TO.C,R32*%
X75338300Y-87172800D03*
X77163300Y-87172800D03*
%TD*%
D10*
%TO.C,R114*%
X124587000Y-60706000D03*
X124587000Y-59056000D03*
%TD*%
D14*
%TO.C,U9*%
X72769600Y-69063600D03*
D15*
X74269600Y-69151100D03*
D14*
X75769600Y-69063600D03*
%TD*%
D16*
%TO.C,U20*%
X85892600Y-109423200D03*
X86842600Y-109423200D03*
X87792600Y-109423200D03*
X87792600Y-111698200D03*
X85892600Y-111698200D03*
%TD*%
D10*
%TO.C,R107*%
X146050000Y-60769000D03*
X146050000Y-59119000D03*
%TD*%
D17*
%TO.C,D27*%
X100878100Y-106680000D03*
X102753100Y-106680000D03*
%TD*%
D18*
%TO.C,U22*%
X134366000Y-91214000D03*
X133096000Y-91214000D03*
X131826000Y-91214000D03*
X130556000Y-91214000D03*
X129286000Y-91214000D03*
X128016000Y-91214000D03*
X126746000Y-91214000D03*
X125476000Y-91214000D03*
X124206000Y-91214000D03*
X122936000Y-91214000D03*
X122936000Y-82014000D03*
X124206000Y-82014000D03*
X125476000Y-82014000D03*
X126746000Y-82014000D03*
X128016000Y-82014000D03*
X129286000Y-82014000D03*
X130556000Y-82014000D03*
X131826000Y-82014000D03*
X133096000Y-82014000D03*
X134366000Y-82014000D03*
%TD*%
D12*
%TO.C,R100*%
X133892000Y-64770000D03*
X135542000Y-64770000D03*
%TD*%
D17*
%TO.C,D18*%
X97119500Y-86131400D03*
X98994500Y-86131400D03*
%TD*%
D19*
%TO.C,R23*%
X68580000Y-67354500D03*
X68580000Y-65529500D03*
%TD*%
D17*
%TO.C,D32*%
X102567500Y-63690000D03*
X104442500Y-63690000D03*
%TD*%
D10*
%TO.C,R115*%
X122555000Y-60706000D03*
X122555000Y-59056000D03*
%TD*%
D12*
%TO.C,R80*%
X133892000Y-74930000D03*
X135542000Y-74930000D03*
%TD*%
D16*
%TO.C,U18*%
X112654000Y-109200100D03*
X113604000Y-109200100D03*
X114554000Y-109200100D03*
X114554000Y-111475100D03*
X112654000Y-111475100D03*
%TD*%
D11*
%TO.C,R54*%
X107950000Y-74359000D03*
X107950000Y-76009000D03*
%TD*%
D12*
%TO.C,R22*%
X99188000Y-96774000D03*
X100838000Y-96774000D03*
%TD*%
D20*
%TO.C,D10*%
X63754000Y-78634000D03*
D21*
X63754000Y-84434000D03*
%TD*%
D10*
%TO.C,R111*%
X130683000Y-60706000D03*
X130683000Y-59056000D03*
%TD*%
D19*
%TO.C,R19*%
X68326000Y-85748500D03*
X68326000Y-83923500D03*
%TD*%
D16*
%TO.C,U17*%
X92903000Y-66463500D03*
X93853000Y-66463500D03*
X94803000Y-66463500D03*
X94803000Y-68738500D03*
X92903000Y-68738500D03*
%TD*%
D12*
%TO.C,R79*%
X120637800Y-74980800D03*
X122287800Y-74980800D03*
%TD*%
D10*
%TO.C,R104*%
X152146000Y-60769000D03*
X152146000Y-59119000D03*
%TD*%
D12*
%TO.C,R72*%
X133892000Y-78994000D03*
X135542000Y-78994000D03*
%TD*%
D22*
%TO.C,C53*%
X87617600Y-113538000D03*
X86067600Y-113538000D03*
%TD*%
D23*
%TO.C,R28*%
X97726000Y-96774000D03*
X96076000Y-96774000D03*
%TD*%
D12*
%TO.C,R89*%
X141860000Y-74930000D03*
X143510000Y-74930000D03*
%TD*%
D24*
%TO.C,C50*%
X91059000Y-66268000D03*
X91059000Y-67818000D03*
%TD*%
D11*
%TO.C,R53*%
X91249800Y-91021400D03*
X91249800Y-92671400D03*
%TD*%
D12*
%TO.C,R71*%
X120637800Y-79044800D03*
X122287800Y-79044800D03*
%TD*%
D10*
%TO.C,R57*%
X96520000Y-72948000D03*
X96520000Y-71298000D03*
%TD*%
D16*
%TO.C,U15*%
X87505800Y-90912100D03*
X88455800Y-90912100D03*
X89405800Y-90912100D03*
X89405800Y-93187100D03*
X87505800Y-93187100D03*
%TD*%
D10*
%TO.C,R116*%
X120523000Y-60706000D03*
X120523000Y-59056000D03*
%TD*%
D17*
%TO.C,D29*%
X87149700Y-106781600D03*
X89024700Y-106781600D03*
%TD*%
D10*
%TO.C,R59*%
X94361000Y-72948000D03*
X94361000Y-71298000D03*
%TD*%
D11*
%TO.C,R62*%
X89484200Y-109715800D03*
X89484200Y-111365800D03*
%TD*%
D25*
%TO.C,U24*%
X151164800Y-128624000D03*
X150664800Y-128624000D03*
X150164800Y-128624000D03*
X149664800Y-128624000D03*
X149164800Y-128624000D03*
X148664800Y-128624000D03*
X148164800Y-128624000D03*
X147664800Y-128624000D03*
X147164800Y-128624000D03*
X146664800Y-128624000D03*
X146164800Y-128624000D03*
X145664800Y-128624000D03*
X145164800Y-128624000D03*
X144664800Y-128624000D03*
X144164800Y-128624000D03*
X143664800Y-128624000D03*
D26*
X141739800Y-126699000D03*
X141739800Y-126199000D03*
X141739800Y-125699000D03*
X141739800Y-125199000D03*
X141739800Y-124699000D03*
X141739800Y-124199000D03*
X141739800Y-123699000D03*
X141739800Y-123199000D03*
X141739800Y-122699000D03*
X141739800Y-122199000D03*
X141739800Y-121699000D03*
X141739800Y-121199000D03*
X141739800Y-120699000D03*
X141739800Y-120199000D03*
X141739800Y-119699000D03*
X141739800Y-119199000D03*
D25*
X143664800Y-117274000D03*
X144164800Y-117274000D03*
X144664800Y-117274000D03*
X145164800Y-117274000D03*
X145664800Y-117274000D03*
X146164800Y-117274000D03*
X146664800Y-117274000D03*
X147164800Y-117274000D03*
X147664800Y-117274000D03*
X148164800Y-117274000D03*
X148664800Y-117274000D03*
X149164800Y-117274000D03*
X149664800Y-117274000D03*
X150164800Y-117274000D03*
X150664800Y-117274000D03*
X151164800Y-117274000D03*
D26*
X153089800Y-119199000D03*
X153089800Y-119699000D03*
X153089800Y-120199000D03*
X153089800Y-120699000D03*
X153089800Y-121199000D03*
X153089800Y-121699000D03*
X153089800Y-122199000D03*
X153089800Y-122699000D03*
X153089800Y-123199000D03*
X153089800Y-123699000D03*
X153089800Y-124199000D03*
X153089800Y-124699000D03*
X153089800Y-125199000D03*
X153089800Y-125699000D03*
X153089800Y-126199000D03*
X153089800Y-126699000D03*
%TD*%
D19*
%TO.C,R18*%
X68326000Y-81684500D03*
X68326000Y-79859500D03*
%TD*%
D10*
%TO.C,R112*%
X128651000Y-60706000D03*
X128651000Y-59056000D03*
%TD*%
D16*
%TO.C,U13*%
X99012000Y-89337300D03*
X99962000Y-89337300D03*
X100912000Y-89337300D03*
X100912000Y-91612300D03*
X99012000Y-91612300D03*
%TD*%
D22*
%TO.C,C41*%
X74028600Y-64871600D03*
X72478600Y-64871600D03*
%TD*%
D19*
%TO.C,R24*%
X68580000Y-70761509D03*
X68580000Y-68936509D03*
%TD*%
D17*
%TO.C,D20*%
X108143100Y-88068300D03*
X110018100Y-88068300D03*
%TD*%
%TO.C,D22*%
X85308500Y-87655400D03*
X87183500Y-87655400D03*
%TD*%
D27*
%TO.C,C47*%
X105918000Y-75959000D03*
X105918000Y-74409000D03*
%TD*%
D16*
%TO.C,U16*%
X104206000Y-66553500D03*
X105156000Y-66553500D03*
X106106000Y-66553500D03*
X106106000Y-68828500D03*
X104206000Y-68828500D03*
%TD*%
D21*
%TO.C,D2*%
X67564000Y-58526000D03*
D20*
X67564000Y-52726000D03*
%TD*%
D17*
%TO.C,D28*%
X83593700Y-106781600D03*
X85468700Y-106781600D03*
%TD*%
D12*
%TO.C,R87*%
X120637800Y-70916800D03*
X122287800Y-70916800D03*
%TD*%
%TO.C,R64*%
X91123000Y-72123000D03*
X92773000Y-72123000D03*
%TD*%
%TO.C,R69*%
X141860000Y-64770000D03*
X143510000Y-64770000D03*
%TD*%
%TO.C,R84*%
X133892000Y-72898000D03*
X135542000Y-72898000D03*
%TD*%
D22*
%TO.C,C44*%
X89230800Y-94996000D03*
X87680800Y-94996000D03*
%TD*%
D12*
%TO.C,R92*%
X133892000Y-68834000D03*
X135542000Y-68834000D03*
%TD*%
D16*
%TO.C,U14*%
X110315000Y-90632700D03*
X111265000Y-90632700D03*
X112215000Y-90632700D03*
X112215000Y-92907700D03*
X110315000Y-92907700D03*
%TD*%
D11*
%TO.C,R60*%
X116194800Y-109563400D03*
X116194800Y-111213400D03*
%TD*%
D17*
%TO.C,D26*%
X97322100Y-106680000D03*
X99197100Y-106680000D03*
%TD*%
D12*
%TO.C,R76*%
X133892000Y-76962000D03*
X135542000Y-76962000D03*
%TD*%
%TO.C,R75*%
X120637800Y-77012800D03*
X122287800Y-77012800D03*
%TD*%
%TO.C,R91*%
X120637800Y-68884800D03*
X122287800Y-68884800D03*
%TD*%
D27*
%TO.C,C59*%
X145429600Y-132523600D03*
X145429600Y-130973600D03*
%TD*%
D22*
%TO.C,C43*%
X111989200Y-94818200D03*
X110439200Y-94818200D03*
%TD*%
%TO.C,C51*%
X114379000Y-113284000D03*
X112829000Y-113284000D03*
%TD*%
D10*
%TO.C,R105*%
X150114000Y-60769000D03*
X150114000Y-59119000D03*
%TD*%
D12*
%TO.C,R90*%
X156068500Y-74930000D03*
X157718500Y-74930000D03*
%TD*%
D18*
%TO.C,U21*%
X155829000Y-91214000D03*
X154559000Y-91214000D03*
X153289000Y-91214000D03*
X152019000Y-91214000D03*
X150749000Y-91214000D03*
X149479000Y-91214000D03*
X148209000Y-91214000D03*
X146939000Y-91214000D03*
X145669000Y-91214000D03*
X144399000Y-91214000D03*
X144399000Y-82014000D03*
X145669000Y-82014000D03*
X146939000Y-82014000D03*
X148209000Y-82014000D03*
X149479000Y-82014000D03*
X150749000Y-82014000D03*
X152019000Y-82014000D03*
X153289000Y-82014000D03*
X154559000Y-82014000D03*
X155829000Y-82014000D03*
%TD*%
D12*
%TO.C,R77*%
X141860000Y-68834000D03*
X143510000Y-68834000D03*
%TD*%
D17*
%TO.C,D30*%
X91137500Y-63627000D03*
X93012500Y-63627000D03*
%TD*%
D10*
%TO.C,R110*%
X132715000Y-60706000D03*
X132715000Y-59056000D03*
%TD*%
D12*
%TO.C,R82*%
X156147000Y-70866000D03*
X157797000Y-70866000D03*
%TD*%
%TO.C,R73*%
X141860000Y-66802000D03*
X143510000Y-66802000D03*
%TD*%
%TO.C,R95*%
X120637800Y-66852800D03*
X122287800Y-66852800D03*
%TD*%
%TO.C,R88*%
X133892000Y-70866000D03*
X135542000Y-70866000D03*
%TD*%
D10*
%TO.C,R113*%
X126619000Y-60706000D03*
X126619000Y-59056000D03*
%TD*%
%TO.C,R101*%
X158242000Y-60769000D03*
X158242000Y-59119000D03*
%TD*%
%TO.C,R103*%
X154178000Y-60769000D03*
X154178000Y-59119000D03*
%TD*%
D16*
%TO.C,U19*%
X99621000Y-109301700D03*
X100571000Y-109301700D03*
X101521000Y-109301700D03*
X101521000Y-111576700D03*
X99621000Y-111576700D03*
%TD*%
D12*
%TO.C,R94*%
X156068500Y-76962000D03*
X157718500Y-76962000D03*
%TD*%
%TO.C,R83*%
X120637800Y-72948800D03*
X122287800Y-72948800D03*
%TD*%
%TO.C,R86*%
X156084000Y-72898000D03*
X157734000Y-72898000D03*
%TD*%
D11*
%TO.C,R55*%
X94361000Y-74346000D03*
X94361000Y-75996000D03*
%TD*%
D10*
%TO.C,R102*%
X156210000Y-60769000D03*
X156210000Y-59119000D03*
%TD*%
D22*
%TO.C,C42*%
X100737000Y-93472000D03*
X99187000Y-93472000D03*
%TD*%
D10*
%TO.C,R58*%
X105918000Y-72961000D03*
X105918000Y-71311000D03*
%TD*%
D17*
%TO.C,D24*%
X110695500Y-106801500D03*
X112570500Y-106801500D03*
%TD*%
%TO.C,D21*%
X111699100Y-88068300D03*
X113574100Y-88068300D03*
%TD*%
%TO.C,D31*%
X94566500Y-63627000D03*
X96441500Y-63627000D03*
%TD*%
%TO.C,D19*%
X100675500Y-86131400D03*
X102550500Y-86131400D03*
%TD*%
D28*
%TO.C,Y1*%
X147236000Y-131077600D03*
X149436000Y-131077600D03*
X149436000Y-132777600D03*
X147236000Y-132777600D03*
%TD*%
D24*
%TO.C,C46*%
X96520000Y-66268000D03*
X96520000Y-67818000D03*
%TD*%
D29*
%TO.C,D16*%
X80619600Y-81409600D03*
X80619600Y-84909600D03*
%TD*%
D10*
%TO.C,R106*%
X148082000Y-60769000D03*
X148082000Y-59119000D03*
%TD*%
D17*
%TO.C,D33*%
X105996500Y-63690000D03*
X107871500Y-63690000D03*
%TD*%
D12*
%TO.C,R70*%
X156147000Y-64770000D03*
X157797000Y-64770000D03*
%TD*%
D10*
%TO.C,R109*%
X134747000Y-60706000D03*
X134747000Y-59056000D03*
%TD*%
D24*
%TO.C,C58*%
X151220800Y-131329200D03*
X151220800Y-132879200D03*
%TD*%
D17*
%TO.C,D23*%
X88864500Y-87655400D03*
X90739500Y-87655400D03*
%TD*%
D22*
%TO.C,C57*%
X153937000Y-116890800D03*
X152387000Y-116890800D03*
%TD*%
D20*
%TO.C,D9*%
X64198500Y-66230500D03*
D21*
X64198500Y-72030500D03*
%TD*%
D12*
%TO.C,R97*%
X141860000Y-78994000D03*
X143510000Y-78994000D03*
%TD*%
D30*
%TO.C,U8*%
X78358000Y-81545000D03*
D31*
X78270500Y-83045000D03*
D30*
X78358000Y-84545000D03*
%TD*%
D32*
%TO.C,C40*%
X76745800Y-79552800D03*
X78295800Y-79552800D03*
%TD*%
D12*
%TO.C,R96*%
X133892000Y-66802000D03*
X135542000Y-66802000D03*
%TD*%
%TO.C,R74*%
X156147000Y-66802000D03*
X157797000Y-66802000D03*
%TD*%
D24*
%TO.C,C45*%
X107950000Y-66281000D03*
X107950000Y-67831000D03*
%TD*%
D22*
%TO.C,C52*%
X101105000Y-113385600D03*
X99555000Y-113385600D03*
%TD*%
D27*
%TO.C,C48*%
X96520000Y-75946000D03*
X96520000Y-74396000D03*
%TD*%
D33*
%TO.C,D17*%
X76121200Y-66802000D03*
X72621200Y-66802000D03*
%TD*%
D12*
%TO.C,R85*%
X141860000Y-72898000D03*
X143510000Y-72898000D03*
%TD*%
%TO.C,R81*%
X141860000Y-70866000D03*
X143510000Y-70866000D03*
%TD*%
D24*
%TO.C,C49*%
X102489000Y-66281000D03*
X102489000Y-67831000D03*
%TD*%
D10*
%TO.C,R56*%
X107950000Y-72961000D03*
X107950000Y-71311000D03*
%TD*%
D12*
%TO.C,R78*%
X156147000Y-68834000D03*
X157797000Y-68834000D03*
%TD*%
%TO.C,R63*%
X102426000Y-71882000D03*
X104076000Y-71882000D03*
%TD*%
D11*
%TO.C,R52*%
X113805000Y-90945200D03*
X113805000Y-92595200D03*
%TD*%
D12*
%TO.C,R98*%
X156068500Y-78994000D03*
X157718500Y-78994000D03*
%TD*%
D17*
%TO.C,D25*%
X114124500Y-106801500D03*
X115999500Y-106801500D03*
%TD*%
D12*
%TO.C,R93*%
X141860000Y-76962000D03*
X143510000Y-76962000D03*
%TD*%
M02*
