M48
; DRILL file {KiCad (6.0.5)} date Sun Jun 26 15:42:33 2022
; FORMAT={-:-/ absolute / inch / decimal}
; #@! TF.CreationDate,2022-06-26T15:42:33+08:00
; #@! TF.GenerationSoftware,Kicad,Pcbnew,(6.0.5)
; #@! TF.FileFunction,Plated,1,2,PTH
FMAT,2
INCH
; #@! TA.AperFunction,Plated,PTH,ViaDrill
T1C0.0118
; #@! TA.AperFunction,Plated,PTH,ViaDrill
T2C0.0157
; #@! TA.AperFunction,Plated,PTH,ComponentDrill
T3C0.0197
; #@! TA.AperFunction,Plated,PTH,ComponentDrill
T4C0.0236
; #@! TA.AperFunction,Plated,PTH,ComponentDrill
T5C0.0276
; #@! TA.AperFunction,Plated,PTH,ComponentDrill
T6C0.0315
; #@! TA.AperFunction,Plated,PTH,ComponentDrill
T7C0.0374
; #@! TA.AperFunction,Plated,PTH,ComponentDrill
T8C0.0394
; #@! TA.AperFunction,Plated,PTH,ComponentDrill
T9C0.0512
; #@! TA.AperFunction,Plated,PTH,ComponentDrill
T10C0.1063
%
G90
G05
T1
X3.01Y-4.294
X4.5324Y-4.331
X5.368Y-5.178
X5.408Y-4.746
X5.532Y-5.046
X5.552Y-4.346
X5.582Y-4.37
X5.602Y-5.22
X5.612Y-4.442
X5.63Y-4.786
X5.63Y-4.944
X5.63Y-4.986
X5.634Y-4.696
X5.634Y-4.73
X5.682Y-5.182
X5.688Y-4.944
X5.692Y-4.846
X5.718Y-4.916
X5.726Y-4.29
X5.738Y-4.896
X5.744Y-4.366
X5.744Y-4.852
X5.754Y-4.674
X5.76Y-4.724
X5.766Y-4.944
X5.768Y-4.904
X5.772Y-4.39
X5.774Y-4.818
X5.784Y-4.234
X5.788Y-4.966
X5.794Y-4.422
X5.804Y-4.09
X5.822Y-4.566
X5.824Y-4.276
X5.832Y-4.422
X5.832Y-4.956
X5.844Y-4.548
X5.85Y-5.134
X5.86Y-4.962
X5.875Y-4.549
X5.884Y-4.938
X5.8923Y-4.9977
X5.8985Y-4.1725
X5.908Y-4.548
X5.908Y-4.916
X5.916Y-5.012
X5.938Y-4.994
X5.944Y-4.946
X5.956Y-4.896
X5.964Y-4.34
X5.976Y-4.846
X5.978Y-4.914
X5.98Y-4.88
X5.998Y-4.38
X6.012Y-5.11
X6.018Y-5.046
X6.059Y-4.275
X6.074Y-4.366
X6.088Y-4.984
X6.0884Y-4.892
X6.094Y-5.058
X6.118Y-4.286
X6.124Y-4.15
X6.156Y-4.616
X6.168Y-4.698
X6.174Y-4.65
X6.202Y-4.698
X6.214Y-4.142
T2
X2.4165Y-3.1475
X2.45Y-1.848
X2.464Y-1.718
X2.4654Y-4.098
X2.4664Y-4.018
X2.4875Y-2.7217
X2.4974Y-5.203
X2.5264Y-1.544
X2.5574Y-2.101
X2.56Y-1.938
X2.5614Y-4.02
X2.5654Y-2.269
X2.5664Y-4.104
X2.568Y-3.26
X2.577Y-1.845
X2.59Y-3.492
X2.5925Y-2.5425
X2.605Y-2.85
X2.6204Y-5.207
X2.6234Y-3.242
X2.652Y-3.052
X2.662Y-1.846
X2.6675Y-2.4375
X2.7Y-2.925
X2.7084Y-1.55
X2.722Y-4.834
X2.724Y-4.466
X2.724Y-4.466
X2.728Y-3.4
X2.7374Y-2.142
X2.7554Y-3.1274
X2.756Y-3.632
X2.765Y-2.675
X2.778Y-3.374
X2.778Y-4.19
X2.786Y-1.732
X2.786Y-3.914
X2.796Y-1.834
X2.796Y-1.884
X2.8484Y-2.396
X2.856Y-3.416
X2.866Y-2.305
X2.9064Y-1.629
X2.9094Y-1.515
X2.92Y-3.764
X2.9224Y-1.733
X2.9224Y-1.847
X2.926Y-3.05
X2.926Y-3.432
X2.952Y-3.73
X2.954Y-3.868
X2.9875Y-3.6055
X2.9924Y-1.517
X2.9934Y-1.63
X3.027Y-2.155
X3.028Y-2.88
X3.028Y-3.538
X3.087Y-2.719
X3.104Y-2.504
X3.118Y-3.616
X3.122Y-4.546
X3.134Y-3.438
X3.158Y-2.216
X3.16Y-4.704
X3.168Y-3.638
X3.17Y-4.922
X3.186Y-2.66
X3.19Y-2.088
X3.19Y-4.766
X3.192Y-4.828
X3.2Y-4.63
X3.215Y-5.005
X3.234Y-2.13
X3.244Y-3.534
X3.248Y-4.25
X3.26Y-3.096
X3.2764Y-2.916
X3.28Y-4.736
X3.306Y-2.156
X3.3155Y-3.5225
X3.366Y-4.826
X3.3885Y-4.5085
X3.39Y-4.586
X3.396Y-4.172
X3.404Y-4.036
X3.442Y-3.928
X3.45Y-4.51
X3.452Y-3.7735
X3.478Y-2.516
X3.478Y-2.746
X3.488Y-3.378
X3.494Y-4.138
X3.494Y-5.07
X3.496Y-4.564
X3.498Y-2.446
X3.513Y-3.7745
X3.518Y-2.72
X3.534Y-3.846
X3.536Y-2.298
X3.536Y-3.976
X3.5701Y-4.5499
X3.5765Y-3.7745
X3.578Y-2.324
X3.59Y-4.355
X3.596Y-3.934
X3.602Y-4.666
X3.62Y-2.326
X3.62Y-2.565
X3.63Y-4.582
X3.638Y-3.338
X3.642Y-3.55
X3.642Y-3.704
X3.646Y-3.192
X3.6514Y-3.396
X3.658Y-2.36
X3.668Y-4.556
X3.668Y-4.654
X3.6811Y-4.2336
X3.6822Y-4.1662
X3.695Y-2.565
X3.698Y-3.306
X3.698Y-3.53
X3.7Y-2.326
X3.706Y-3.696
X3.722Y-5.07
X3.75Y-2.326
X3.75Y-4.922
X3.764Y-4.482
X3.768Y-3.73
X3.778Y-2.366
X3.8Y-2.326
X3.814Y-3.736
X3.834Y-2.68
X3.847Y-2.527
X3.848Y-2.468
X3.85Y-2.202
X3.868Y-2.712
X3.868Y-4.162
X3.876Y-2.6
X3.8775Y-3.8625
X3.882Y-4.56
X3.888Y-2.42
X3.8981Y-3.6499
X3.9Y-2.234
X3.914Y-2.528
X3.92Y-3.714
X3.9285Y-4.505
X3.96Y-2.446
X3.9635Y-3.3085
X3.968Y-2.708
X3.97Y-3.715
X3.974Y-2.526
X3.974Y-4.504
X4.0Y-2.302
X4.022Y-4.17
X4.022Y-4.586
X4.0275Y-3.9465
X4.044Y-4.524
X4.07Y-2.575
X4.0775Y-3.9485
X4.085Y-3.6
X4.09Y-4.576
X4.0902Y-3.3402
X4.11Y-4.542
X4.12Y-3.788
X4.128Y-3.308
X4.14Y-2.565
X4.144Y-3.534
X4.144Y-3.936
X4.15Y-1.968
X4.15Y-2.368
X4.166Y-3.806
X4.166Y-5.142
X4.195Y-4.23
X4.196Y-5.176
X4.2Y-2.334
X4.206Y-3.922
X4.218Y-3.694
X4.25Y-1.966
X4.25Y-2.37
X4.274Y-4.5
X4.28Y-4.766
X4.284Y-2.528
X4.3084Y-3.308
X4.3094Y-3.209
X4.314Y-2.138
X4.314Y-2.398
X4.324Y-4.764
X4.326Y-2.754
X4.326Y-3.398
X4.342Y-3.694
X4.348Y-3.7705
X4.3628Y-5.1198
X4.37Y-5.03
X4.394Y-4.148
X4.396Y-4.518
X4.409Y-3.7715
X4.436Y-4.35
X4.436Y-4.35
X4.464Y-3.814
X4.468Y-5.098
X4.474Y-4.37
X4.5Y-2.094
X4.5031Y-4.4981
X4.552Y-4.138
X4.5724Y-2.109
X4.5965Y-4.2675
X4.6Y-2.054
X4.6Y-3.826
X4.606Y-4.8785
X4.608Y-2.328
X4.612Y-3.96
X4.62Y-5.03
X4.622Y-4.49
X4.628Y-4.766
X4.632Y-4.23
X4.64Y-2.294
X4.648Y-3.878
X4.672Y-2.262
X4.682Y-3.444
X4.706Y-2.288
X4.706Y-2.48
X4.71Y-3.29
X4.71Y-3.37
X4.71Y-3.484
X4.712Y-2.182
X4.716Y-3.226
X4.728Y-4.81
X4.7419Y-5.1029
X4.744Y-2.214
X4.7451Y-3.1601
X4.7484Y-2.082
X4.752Y-2.144
X4.78Y-3.214
X4.81Y-4.316
X4.8105Y-4.2675
X4.824Y-2.214
X4.8314Y-3.901
X4.8324Y-3.844
X4.834Y-3.514
X4.86Y-3.112
X4.862Y-2.552
X4.862Y-2.632
X4.862Y-2.712
X4.862Y-2.792
X4.862Y-2.872
X4.862Y-2.952
X4.862Y-3.032
X4.865Y-2.445
X4.892Y-3.112
X4.904Y-2.214
X4.9084Y-3.844
X4.9084Y-3.904
X4.934Y-3.032
X4.945Y-2.439
X4.978Y-2.952
X4.984Y-2.214
X5.0Y-4.36
X5.018Y-4.186
X5.022Y-2.872
X5.022Y-3.45
X5.025Y-2.441
X5.034Y-4.276
X5.048Y-4.238
X5.066Y-2.092
X5.066Y-2.792
X5.066Y-4.36
X5.068Y-3.446
X5.0964Y-3.837
X5.0974Y-3.9
X5.105Y-2.437
X5.114Y-2.712
X5.118Y-5.064
X5.12Y-2.004
X5.124Y-3.324
X5.134Y-3.382
X5.134Y-5.258
X5.146Y-2.152
X5.154Y-2.632
X5.156Y-3.29
X5.18Y-5.104
X5.19Y-2.552
X5.21Y-4.208
X5.2164Y-3.836
X5.218Y-5.216
X5.2194Y-3.9
X5.22Y-4.844
X5.224Y-2.214
X5.2288Y-2.55
X5.2288Y-2.63
X5.2288Y-2.71
X5.2288Y-2.79
X5.2288Y-2.87
X5.2288Y-2.95
X5.2288Y-3.03
X5.2288Y-3.11
X5.248Y-4.77
X5.25Y-5.142
X5.252Y-2.028
X5.252Y-4.208
X5.264Y-4.674
X5.264Y-4.816
X5.272Y-4.426
X5.272Y-4.426
X5.284Y-5.218
X5.298Y-4.878
X5.306Y-3.158
X5.308Y-3.322
X5.318Y-4.426
X5.348Y-3.416
X5.3611Y-3.2289
X5.364Y-2.248
X5.3654Y-2.396
X5.366Y-3.606
X5.3664Y-2.335
X5.368Y-4.378
X5.368Y-4.92
X5.372Y-3.544
X5.382Y-5.138
X5.386Y-3.452
X5.4Y-2.214
X5.404Y-4.71
X5.404Y-4.83
X5.404Y-4.94
X5.42Y-4.64
X5.43Y-4.556
X5.436Y-4.996
X5.438Y-4.602
X5.45Y-2.182
X5.476Y-4.198
X5.478Y-4.608
X5.486Y-5.058
X5.5Y-2.152
X5.5164Y-2.594
X5.518Y-4.134
X5.518Y-4.592
X5.5184Y-2.832
X5.5184Y-3.656
X5.5194Y-3.071
X5.524Y-4.958
X5.55Y-2.122
X5.552Y-3.476
X5.557Y-4.615
X5.558Y-5.076
X5.562Y-3.306
X5.568Y-3.398
X5.585Y-3.1626
X5.59Y-4.588
X5.6Y-2.092
X5.62Y-5.056
X5.624Y-4.616
X5.65Y-2.062
X5.6664Y-3.936
X5.6674Y-3.825
X5.688Y-2.486
X5.6976Y-2.55
X5.6976Y-2.63
X5.6976Y-2.71
X5.6976Y-2.79
X5.6976Y-2.87
X5.6976Y-2.95
X5.6976Y-3.03
X5.6976Y-3.11
X5.7Y-2.062
X5.7184Y-2.212
X5.736Y-2.55
X5.75Y-2.122
X5.75Y-2.172
X5.75Y-3.296
X5.782Y-2.63
X5.83Y-2.092
X5.83Y-2.71
X5.846Y-3.296
X5.862Y-2.062
X5.876Y-2.79
X5.876Y-3.326
X5.9Y-2.172
X5.918Y-2.87
X5.9494Y-3.996
X5.9494Y-4.088
X5.95Y-2.096
X5.952Y-3.524
X5.954Y-3.294
X5.964Y-2.95
X6.0Y-2.204
X6.012Y-3.358
X6.014Y-3.03
X6.062Y-3.11
X6.064Y-3.308
X6.082Y-2.096
X6.1Y-2.55
X6.1Y-2.63
X6.1Y-2.71
X6.1Y-2.79
X6.1Y-2.87
X6.1Y-2.95
X6.1Y-3.03
X6.1Y-3.11
X6.103Y-3.899
X6.103Y-3.979
X6.15Y-2.028
X6.178Y-3.294
X6.23Y-1.994
X6.242Y-3.178
X6.255Y-2.55
T3
X3.0903Y-2.37
X3.0903Y-3.87
X3.1136Y-2.3136
X3.1136Y-2.4264
X3.1136Y-3.8136
X3.1136Y-3.9264
X3.17Y-2.2903
X3.17Y-2.4497
X3.17Y-3.7903
X3.17Y-3.9497
X3.2264Y-2.3136
X3.2264Y-2.4264
X3.2264Y-3.8136
X3.2264Y-3.9264
X3.2497Y-2.37
X3.2497Y-3.87
X5.4303Y-2.37
X5.4303Y-3.87
X5.4536Y-2.3136
X5.4536Y-2.4264
X5.4536Y-3.8136
X5.4536Y-3.9264
X5.51Y-2.2903
X5.51Y-2.4497
X5.51Y-3.7903
X5.51Y-3.9497
X5.5664Y-2.3136
X5.5664Y-2.4264
X5.5664Y-3.8136
X5.5664Y-3.9264
X5.5897Y-2.37
X5.5897Y-3.87
T5
X2.912Y-3.994
X2.912Y-4.094
T6
X4.095Y-4.97
X4.095Y-5.07
X4.095Y-5.17
X6.186Y-4.7691
X6.186Y-4.8479
X6.186Y-4.9266
X6.186Y-5.0054
X6.186Y-5.0841
X6.186Y-5.1629
T7
X2.5268Y-3.5524
X2.5268Y-3.6508
X2.5268Y-3.7492
X2.5268Y-3.8476
T8
X2.48Y-2.2
X2.48Y-2.3
X2.5204Y-4.19
X2.5204Y-4.29
X2.5204Y-4.39
X2.5204Y-4.49
X2.5204Y-4.59
X2.5204Y-4.69
X2.5204Y-4.79
X2.5204Y-4.89
X2.5204Y-4.99
X2.5204Y-5.09
X2.6204Y-4.19
X2.6204Y-4.29
X2.6204Y-4.39
X2.6204Y-4.49
X2.6204Y-4.59
X2.6204Y-4.69
X2.6204Y-4.79
X2.6204Y-4.89
X2.6204Y-4.99
X2.6204Y-5.09
X3.1Y-1.5
X3.1Y-1.6
X3.1Y-1.8296
X3.1Y-1.9296
X3.2Y-1.5
X3.2Y-1.6
X3.2Y-1.8296
X3.2Y-1.9296
X3.3Y-1.5
X3.3Y-1.6
X3.3Y-1.8296
X3.3Y-1.9296
X3.4Y-1.5
X3.4Y-1.6
X3.4Y-1.8296
X3.4Y-1.9296
X3.5Y-1.5
X3.5Y-1.6
X3.5Y-1.8296
X3.5Y-1.9296
X3.6Y-1.5
X3.6Y-1.6
X3.6Y-1.8296
X3.6Y-1.9296
X3.7Y-1.5
X3.7Y-1.6
X3.7Y-1.8296
X3.7Y-1.9296
X3.8Y-1.5
X3.8Y-1.6
X3.8Y-1.8296
X3.8Y-1.9296
X3.9Y-1.5
X3.9Y-1.6
X3.9Y-1.8296
X3.9Y-1.9296
X4.0Y-1.5
X4.0Y-1.6
X4.0Y-1.8296
X4.0Y-1.9296
X4.1Y-1.5
X4.1Y-1.6
X4.1Y-1.8296
X4.1Y-1.9296
X4.2Y-1.5
X4.2Y-1.6
X4.2Y-1.8296
X4.2Y-1.9296
X4.3Y-1.5
X4.3Y-1.6
X4.3Y-1.8296
X4.3Y-1.9296
X4.4Y-1.5
X4.4Y-1.6
X4.4Y-1.8296
X4.4Y-1.9296
X4.5Y-1.5
X4.5Y-1.6
X4.5Y-1.8296
X4.5Y-1.9296
X4.6Y-1.5
X4.6Y-1.6
X4.6Y-1.8296
X4.6Y-1.9296
X4.7Y-1.5
X4.7Y-1.6
X4.7Y-1.8296
X4.7Y-1.9296
X4.8Y-1.5
X4.8Y-1.6
X4.8Y-1.8296
X4.8Y-1.9296
X4.9Y-1.5
X4.9Y-1.6
X4.9Y-1.8296
X4.9Y-1.9296
X5.0Y-1.5
X5.0Y-1.6
X5.0Y-1.8296
X5.0Y-1.9296
X5.1Y-1.5
X5.1Y-1.6
X5.1Y-1.8296
X5.1Y-1.9296
X5.2Y-1.5
X5.2Y-1.6
X5.2Y-1.8296
X5.2Y-1.9296
X5.3Y-1.5
X5.3Y-1.6
X5.3Y-1.8296
X5.3Y-1.9296
X5.4Y-1.5
X5.4Y-1.6
X5.4Y-1.8296
X5.4Y-1.9296
X5.5Y-1.5
X5.5Y-1.6
X5.5Y-1.8296
X5.5Y-1.9296
X5.6Y-1.5
X5.6Y-1.6
X5.6Y-1.8296
X5.6Y-1.9296
X5.7Y-1.5
X5.7Y-1.6
X5.7Y-1.8296
X5.7Y-1.9296
X5.8Y-1.5
X5.8Y-1.6
X5.8Y-1.8296
X5.8Y-1.9296
X5.9Y-1.5
X5.9Y-1.6
X5.9Y-1.8296
X5.9Y-1.9296
X6.0Y-1.5
X6.0Y-1.6
X6.0Y-1.8296
X6.0Y-1.9296
X6.1Y-1.5
X6.1Y-1.6
X6.1Y-1.8296
X6.1Y-1.9296
X6.2Y-1.5
X6.2Y-1.6
X6.2Y-1.8296
X6.2Y-1.9296
T9
X2.8798Y-5.02
X3.1002Y-5.02
T10
X3.17Y-2.37
X3.17Y-3.87
X5.51Y-2.37
X5.51Y-3.87
T4
G00X2.4499Y-1.5005
M15
G01X2.4499Y-1.4769
M16
G05
G00X2.4499Y-1.6749
M15
G01X2.4499Y-1.6316
M16
G05
G00X2.7901Y-1.5005
M15
G01X2.7901Y-1.4769
M16
G05
G00X2.7901Y-1.6749
M15
G01X2.7901Y-1.6316
M16
G05
T0
M30
